<svg xmlns="http://www.w3.org/2000/svg" xmlns:xlink="http://www.w3.org/1999/xlink" width="26" height="26" viewBox="0 0 26 26"><defs><style>.a,.c{fill:#fff;}.a{stroke:#707070;}.b{clip-path:url(#a);}.c{fill-rule:evenodd;}</style><clipPath id="a"><rect class="a" width="26" height="26" transform="translate(927.86 1257.86)"/></clipPath></defs><g class="b" transform="translate(-927.86 -1257.86)"><g transform="translate(932.808 1260.917)"><path class="c" d="M579.976,8a7.525,7.525,0,0,0-7.526,7.526c0,3.4,5.04,9.817,6.871,12.036a.822.822,0,0,0,1.309,0c1.831-2.219,6.871-8.634,6.871-12.036A7.525,7.525,0,0,0,579.976,8Zm0,10.373a3.051,3.051,0,1,1,3.051-3.051A3.051,3.051,0,0,1,579.976,18.373Z" transform="translate(-572.45 -8)"/></g></g></svg>