<svg xmlns="http://www.w3.org/2000/svg" xmlns:xlink="http://www.w3.org/1999/xlink" width="26" height="26" viewBox="0 0 26 26"><defs><style>.a,.c{fill:#fff;}.a{stroke:#707070;}.b{clip-path:url(#a);}</style><clipPath id="a"><rect class="a" width="26" height="26" transform="translate(899 2111)"/></clipPath></defs><g class="b" transform="translate(-899 -2111)"><g transform="translate(-490.991 27.218)"><path class="c" d="M1405.839,2089.588a.806.806,0,0,0-.806-.806h-12.938a.806.806,0,0,0-.806.806v8.555h14.551Z"/><path class="c" d="M1414.744,2336.9l-3.278-6.53a.842.842,0,0,0-.753-.464h-3.6a.842.842,0,0,0-.842.843v7.6h-14.982v2.947a.806.806,0,0,0,.806.806h1.534a2.726,2.726,0,1,1,5.453,0h8.811a2.726,2.726,0,1,1,5.453,0h.689a.8.8,0,0,0,.795-.795v-4.055A.8.8,0,0,0,1414.744,2336.9Zm-1.665-1.024c0,.006,0,.012,0,.017a.5.5,0,0,1-.605.467l-4.851-1.011a.576.576,0,0,1-.505-.505V2331.3a.5.5,0,0,1,.505-.5h2.884a.5.5,0,0,1,.452.278l1.865,3.729A2.374,2.374,0,0,1,1413.079,2335.879Z" transform="translate(0 -239.782)"/><path class="c" d="M4462.487,4120.471a2.209,2.209,0,0,0-3.6,2.422,2.212,2.212,0,0,0,1.175,1.174,2.209,2.209,0,0,0,2.422-.473,2.206,2.206,0,0,0,0-3.124Zm-1.562,2.821a1.26,1.26,0,1,1,1.26-1.26A1.262,1.262,0,0,1,4460.924,4123.292Z" transform="translate(-3050.306 -2019.704)"/><path class="c" d="M1907.07,4120.471a2.208,2.208,0,1,0,0,3.124,2.207,2.207,0,0,0,0-3.124Zm-1.562,2.821a1.26,1.26,0,1,1,1.26-1.26A1.261,1.261,0,0,1,1905.508,4123.292Z" transform="translate(-509.153 -2019.704)"/></g></g></svg>