<svg xmlns="http://www.w3.org/2000/svg" xmlns:xlink="http://www.w3.org/1999/xlink" width="26" height="26" viewBox="0 0 26 26"><defs><style>.a,.c{fill:#fff;}.a{stroke:#707070;}.b{clip-path:url(#a);}</style><clipPath id="a"><rect class="a" width="26" height="26" transform="translate(747 1978)"/></clipPath></defs><g class="b" transform="translate(-747 -1978)"><g transform="translate(179.344 1949.993)"><path class="c" d="M592.369,131.489a2.275,2.275,0,0,1-2.936,0l-1.847-1.555-6.273,6.23h19.174l-6.272-6.23Z" transform="translate(-10.244 -86.961)"/><path class="c" d="M735.2,75.854V64.506l-6.142,5.206Z" transform="translate(-143.885 -27.721)"/><path class="c" d="M570,64.506V75.854l6.142-6.142Z" transform="translate(0 -27.721)"/><path class="c" d="M590.525,33.524H570.789a.787.787,0,0,0-.789.784v.163l.416.35,9.759,8.221a.747.747,0,0,0,.965,0l9.758-8.221.416-.35v-.163A.787.787,0,0,0,590.525,33.524Z"/></g></g></svg>