<svg xmlns="http://www.w3.org/2000/svg" xmlns:xlink="http://www.w3.org/1999/xlink" width="47" height="47" viewBox="0 0 47 47"><defs><style>.a{fill:#fff;stroke:#707070;}.b{clip-path:url(#a);}.c{fill:#d4001c;fill-rule:evenodd;}</style><clipPath id="a"><rect class="a" width="47" height="47" transform="translate(-0.153 -0.234)"/></clipPath></defs><g class="b" transform="translate(0.153 0.234)"><g transform="translate(8.807 5.333)"><path class="c" d="M586.387,8A13.937,13.937,0,0,0,572.45,21.937c0,6.3,9.334,18.18,12.724,22.289a1.523,1.523,0,0,0,2.425,0c3.391-4.109,12.724-15.99,12.724-22.289A13.937,13.937,0,0,0,586.387,8Zm0,19.211a5.65,5.65,0,1,1,5.65-5.65A5.65,5.65,0,0,1,586.387,27.211Z" transform="translate(-572.45 -8)"/></g></g></svg>