<svg xmlns="http://www.w3.org/2000/svg" xmlns:xlink="http://www.w3.org/1999/xlink" width="22" height="22" viewBox="0 0 22 22"><defs><style>.a{fill:#fff;stroke:#707070;}.b{clip-path:url(#a);}.c{fill:#1a366f;fill-rule:evenodd;}</style><clipPath id="a"><rect class="a" width="22" height="22" transform="translate(839 1202)"/></clipPath></defs><g class="b" transform="translate(-839 -1202)"><path class="c" d="M2158.244,105.62l.368-.267a1.688,1.688,0,0,0,.666-1.777l-.809-3.5a.915.915,0,0,0-.662-.69l-1.359-.378a1.681,1.681,0,0,0-1.725.493c-5.812,6.325,8.6,20.736,15.063,15.11a1.683,1.683,0,0,0,.526-1.756l-.37-1.334a.916.916,0,0,0-.69-.662l-3.5-.809a1.688,1.688,0,0,0-1.777.666l-.267.368a.623.623,0,0,1-.831.167,14.529,14.529,0,0,1-4.8-4.8.623.623,0,0,1,.167-.831Z" transform="translate(-1311.816 1105.11)"/></g></svg>