<svg xmlns="http://www.w3.org/2000/svg" xmlns:xlink="http://www.w3.org/1999/xlink" width="26" height="26" viewBox="0 0 26 26"><defs><style>.a,.c{fill:#fff;}.a{stroke:#707070;}.b{clip-path:url(#a);}.c{fill-rule:evenodd;}</style><clipPath id="a"><rect class="a" width="26" height="26" transform="translate(839 1202)"/></clipPath></defs><g class="b" transform="translate(-839 -1202)"><path class="c" d="M2159.13,106.834l.435-.315a2,2,0,0,0,.787-2.1l-.956-4.135a1.081,1.081,0,0,0-.782-.816l-1.606-.447a1.987,1.987,0,0,0-2.039.582c-6.868,7.475,10.164,24.506,17.8,17.858a1.989,1.989,0,0,0,.622-2.075l-.437-1.576a1.082,1.082,0,0,0-.816-.782l-4.135-.956a2,2,0,0,0-2.1.787l-.315.435a.737.737,0,0,1-.982.2,17.17,17.17,0,0,1-5.676-5.675.737.737,0,0,1,.2-.982Z" transform="translate(-1311.351 1105.484)"/></g></svg>