<svg xmlns="http://www.w3.org/2000/svg" width="213.355" height="57.337" viewBox="0 0 213.355 57.337"><defs><style>.a{fill:#fff;}.b{fill:#90c2ca;}</style></defs><path class="a" d="M1421.261,1485.539H1258c-13.777,0-25.049,10.244-25.049,22.765h0c0,12.521,11.272,22.765,25.049,22.765h121.184l30.354,11.808-3.727-11.808h15.446c13.777,0,25.049-10.244,25.049-22.765h0C1446.31,1495.783,1435.038,1485.539,1421.261,1485.539Z" transform="translate(-1232.955 -1485.539)"/><path class="b" d="M1415.14,1541.948h21.19c11.5,0,20.86-8.472,20.86-18.886s-9.358-18.886-20.86-18.886H1272.453c-11.5,0-20.86,8.472-20.86,18.886s9.358,18.886,20.86,18.886h122.523l22.987,8.908Z" transform="translate(-1247.714 -1500.297)"/></svg>