<svg xmlns="http://www.w3.org/2000/svg" xmlns:xlink="http://www.w3.org/1999/xlink" width="159" height="54" viewBox="0 0 159 54"><defs><style>.a,.aa{fill:#fff;}.a{stroke:#707070;}.b{fill:none;}.c{clip-path:url(#a);}.ad,.d{fill:#231f20;}.d{fill-rule:evenodd;}.e{clip-path:url(#b);}.f{fill:url(#c);}.g{clip-path:url(#d);}.h{fill:url(#e);}.i{clip-path:url(#f);}.j{fill:url(#g);}.k{clip-path:url(#h);}.l{fill:url(#i);}.m{clip-path:url(#j);}.n{fill:url(#k);}.o{clip-path:url(#l);}.p{fill:url(#m);}.q{clip-path:url(#n);}.r{fill:url(#o);}.s{clip-path:url(#p);}.t{fill:url(#q);}.u{clip-path:url(#r);}.v{fill:url(#s);}.w{clip-path:url(#t);}.x{fill:url(#u);}.y{clip-path:url(#v);}.z{fill:url(#w);}.ab{fill:#262261;}.ac{fill:#a7a8aa;}</style><clipPath id="a"><rect class="a" width="159" height="54" transform="translate(-0.286 -1.557)"/></clipPath><clipPath id="b"><path class="b" d="M655.1,12.783h2.945q1.963,0,1.964,2.945t-1.964,2.945H655.1Zm-3.927-3.927V22.6h6.872q5.891,0,5.89-6.872t-5.89-6.872ZM664.922,22.6h3.927V8.856h-3.927Zm9.817-13.744q-4.909,0-4.909,4.379,0,4.457,4.909,4.457h2.945q.982,0,.982.451,0,.53-.982.53H669.83V22.6h7.854q4.908,0,4.909-4.457,0-4.378-4.909-4.379h-2.945q-.982,0-.982-.53,0-.452.982-.452h7.854V8.856Zm10.848,2.013a6.622,6.622,0,0,0-2.013,4.86,6.873,6.873,0,0,0,11.732,4.86,6.775,6.775,0,0,0,1.512-2.239l-3.6-1.6a2.9,2.9,0,0,1-.687,1.06,2.943,2.943,0,1,1-4.163-4.163,2.939,2.939,0,0,1,4.163,0,2.865,2.865,0,0,1,.717,1.139l3.583-1.679a6.911,6.911,0,0,0-1.522-2.238,6.873,6.873,0,0,0-9.719,0m41.627-2.013-2.945,7.854-2.945-7.854H717.4L722.305,22.6h3.927l4.909-13.744Zm4.909,0V22.6H743.9V18.673H736.05v-.981h5.891V13.765H736.05v-.981H743.9V8.856Zm16.69,3.927h3.927a.868.868,0,0,1,.982.981.868.868,0,0,1-.982.982h-3.927Zm-3.927-3.927V22.6h3.927V18.673L752.74,22.6h4.908l-3.927-3.927q3.927,0,3.927-4.909T752.74,8.856Zm21.667,0-2.68,3.927-2.68-3.927H757l4.909,7.854V22.6h3.927V16.71l4.908-7.854Z" transform="translate(-651.177 -8.856)"/></clipPath><linearGradient id="c" x1="-1.492" y1="4.55" x2="-1.489" y2="4.55" gradientUnits="objectBoundingBox"><stop offset="0" stop-color="#4993cf"/><stop offset="1" stop-color="#3b56a5"/></linearGradient><clipPath id="d"><path class="b" d="M836.014,29.756a6.187,6.187,0,0,0,2.04,4.67l.757-.759a5.365,5.365,0,1,1,8.471-1.566l.939.566a6.451,6.451,0,1,0-12.206-2.911" transform="translate(-836.014 -23.303)"/></clipPath><linearGradient id="e" x1="-14.372" y1="3.613" x2="-14.355" y2="3.613" gradientUnits="objectBoundingBox"><stop offset="0" stop-color="#f28083"/><stop offset="1" stop-color="#ed2b31"/></linearGradient><clipPath id="f"><path class="b" d="M842.4,34.392a4.69,4.69,0,0,0,.238,1.471l1.382-.386a2.9,2.9,0,0,1-.166-1.085,3.245,3.245,0,1,1,5.864,1.907l1.071,1a4.7,4.7,0,1,0-8.39-2.9" transform="translate(-842.404 -29.692)"/></clipPath><linearGradient id="g" x1="-19.362" y1="4.531" x2="-19.338" y2="4.531" gradientUnits="objectBoundingBox"><stop offset="0" stop-color="#e37fb2"/><stop offset="1" stop-color="#ec2180"/></linearGradient><clipPath id="h"><path class="b" d="M847.621,38.168c0,.051.005.1.008.15l1-.124c0-.009,0-.017,0-.026a2.244,2.244,0,1,1,3.482,1.87l.556.822a3.146,3.146,0,0,0,1.456-2.692,3.25,3.25,0,0,0-6.5,0" transform="translate(-847.621 -34.919)"/></clipPath><linearGradient id="i" x1="-26.536" y1="5.805" x2="-26.504" y2="5.805" gradientUnits="objectBoundingBox"><stop offset="0" stop-color="#9e5da5"/><stop offset="1" stop-color="#5d50a0"/></linearGradient><clipPath id="j"><path class="b" d="M848.2,32.257a4.678,4.678,0,1,1-7.607,2.329l-.743-.254a5.451,5.451,0,1,0,8.753-2.769Z" transform="translate(-839.659 -31.564)"/></clipPath><linearGradient id="k" x1="-16.118" y1="3.855" x2="-16.098" y2="3.855" gradientUnits="objectBoundingBox"><stop offset="0" stop-color="#dd0f82"/><stop offset="1" stop-color="#ad1e3d"/></linearGradient><clipPath id="l"><path class="b" d="M833.362,27.83a6.882,6.882,0,0,0,1.561,4.414l.542-.475a6.432,6.432,0,1,1,9.621.615l.589.465a7.18,7.18,0,1,0-12.313-5.02" transform="translate(-833.362 -20.649)"/></clipPath><linearGradient id="m" x1="-12.235" y1="3.389" x2="-12.22" y2="3.389" gradientUnits="objectBoundingBox"><stop offset="0" stop-color="#f37721"/><stop offset="1" stop-color="#fac614"/></linearGradient><clipPath id="n"><path class="b" d="M830.489,25.584l.831.021a7.126,7.126,0,0,1,9.8-6.492l.315-.772a7.972,7.972,0,0,0-10.945,7.243" transform="translate(-830.489 -17.765)"/></clipPath><linearGradient id="o" x1="-17.356" y1="4.808" x2="-17.335" y2="4.808" gradientUnits="objectBoundingBox"><stop offset="0" stop-color="#ffcf1c"/><stop offset="1" stop-color="#f6eb28"/></linearGradient><clipPath id="p"><path class="b" d="M874.628,29.032a7.97,7.97,0,0,1-3.469,11.7l.518.967a9.074,9.074,0,0,0,3.816-13.346Z" transform="translate(-871.159 -28.352)"/></clipPath><linearGradient id="q" x1="-16.046" y1="4.79" x2="-16.027" y2="4.79" gradientUnits="objectBoundingBox"><stop offset="0" stop-color="#c7db5d"/><stop offset="1" stop-color="#7bab41"/></linearGradient><clipPath id="r"><path class="b" d="M826.469,25.166a9.056,9.056,0,0,0,.5,2.971l1.026-.383a7.964,7.964,0,0,1,4.193-9.828l-.554-.95a9.075,9.075,0,0,0-5.165,8.191" transform="translate(-826.469 -16.975)"/></clipPath><linearGradient id="s" x1="-17.707" y1="5.66" x2="-17.686" y2="5.66" xlink:href="#q"/><clipPath id="t"><path class="b" d="M825.458,22.1a9.374,9.374,0,0,0,.133,1.561l.369-.09a9.14,9.14,0,0,1-.124-1.471,8.974,8.974,0,1,1,15.1,6.551l.229.309a9.35,9.35,0,1,0-15.7-6.859" transform="translate(-825.458 -12.749)"/></clipPath><linearGradient id="u" x1="-8.951" y1="2.64" x2="-8.94" y2="2.64" gradientUnits="objectBoundingBox"><stop offset="0" stop-color="#62c9e4"/><stop offset="1" stop-color="#427fc0"/></linearGradient><clipPath id="v"><path class="b" d="M821.57,19.275c0,.271.014.539.033.8l1.087-.193c-.014-.2-.023-.405-.024-.611a9.321,9.321,0,1,1,16.878,5.444l.82.748a10.418,10.418,0,1,0-18.8-6.192" transform="translate(-821.57 -8.856)"/></clipPath><linearGradient id="w" x1="-8.65" y1="2.462" x2="-8.639" y2="2.462" xlink:href="#c"/></defs><g class="c" transform="translate(0.286 1.557)"><g transform="translate(5.176 -0.048)"><g transform="translate(0 0)"><path class="d" d="M699.082-29.119V-39.79h3.259l3.675,5.713V-39.79h3.355v10.671h-3.333l-3.6-5.575v5.575Zm-6.245-2.354a2.056,2.056,0,0,0,1.089-.3,2.079,2.079,0,0,0,.785-.992,4.36,4.36,0,0,0,.294-1.7,5.1,5.1,0,0,0-.145-1.278,2.742,2.742,0,0,0-.381-.912,2.012,2.012,0,0,0-.655-.581,1.791,1.791,0,0,0-.921-.236,1.97,1.97,0,0,0-1.08.324,2.2,2.2,0,0,0-.811,1.009,4.21,4.21,0,0,0-.294,1.675,3.624,3.624,0,0,0,.685,2.347,1.762,1.762,0,0,0,1.435.648m.043,2.633a5.51,5.51,0,0,1-4.088-1.537,5.561,5.561,0,0,1-1.528-4.1,6.447,6.447,0,0,1,.35-2.19,4.969,4.969,0,0,1,.949-1.634,4.846,4.846,0,0,1,1.252-1.022,5.808,5.808,0,0,1,1.4-.553,6.434,6.434,0,0,1,1.6-.2,6.407,6.407,0,0,1,2.905.662,4.575,4.575,0,0,1,2.028,1.924,5.815,5.815,0,0,1,.707,2.9,6.525,6.525,0,0,1-.618,2.883,4.969,4.969,0,0,1-1.881,2.068,5.643,5.643,0,0,1-3.076.795m-6.273-6.87H683.3a1.887,1.887,0,0,0-.573-1.242,1.716,1.716,0,0,0-1.223-.45,1.872,1.872,0,0,0-1.515.722,3.743,3.743,0,0,0-.58,2.339,4.477,4.477,0,0,0,.249,1.692,1.9,1.9,0,0,0,.692.867,2.056,2.056,0,0,0,1.109.279,1.822,1.822,0,0,0,1.288-.441,2.038,2.038,0,0,0,.568-1.323h3.368a6,6,0,0,1-.4,1.669,4.354,4.354,0,0,1-.964,1.353,4.671,4.671,0,0,1-1.6,1.052,5.787,5.787,0,0,1-2.147.367,6.832,6.832,0,0,1-2.257-.359,4.953,4.953,0,0,1-1.738-1.029,4.956,4.956,0,0,1-1.1-1.522,6.229,6.229,0,0,1-.557-2.663,6.519,6.519,0,0,1,.4-2.317,5.119,5.119,0,0,1,1.111-1.8,4.8,4.8,0,0,1,1.567-1.1,6.128,6.128,0,0,1,2.427-.465,6.718,6.718,0,0,1,2.168.346,4.2,4.2,0,0,1,1.669,1.016,4.57,4.57,0,0,1,1,1.53,5.427,5.427,0,0,1,.337,1.478M674.89-36.7h-3.326a1.128,1.128,0,0,0-.45-.692,1.583,1.583,0,0,0-.932-.234,1.464,1.464,0,0,0-.91.244.573.573,0,0,0-.236.477.51.51,0,0,0,.177.4,3.186,3.186,0,0,0,1.183.45l1.36.331a5.127,5.127,0,0,1,2.648,1.3,2.791,2.791,0,0,1,.765,1.941,3.308,3.308,0,0,1-.4,1.609,3.364,3.364,0,0,1-.964,1.141,4.442,4.442,0,0,1-1.487.66,7.183,7.183,0,0,1-1.918.25,7.332,7.332,0,0,1-2.073-.285,4.391,4.391,0,0,1-1.606-.824,3.692,3.692,0,0,1-.949-1.241,4.3,4.3,0,0,1-.314-1.236h3.363a1.25,1.25,0,0,0,.506.778,2.111,2.111,0,0,0,1.2.271,1.687,1.687,0,0,0,1.014-.234.59.59,0,0,0,.229-.495.689.689,0,0,0-.212-.521,3.054,3.054,0,0,0-1.148-.426l-1.221-.3a8.834,8.834,0,0,1-1.794-.633,3.067,3.067,0,0,1-1.266-1.044,2.733,2.733,0,0,1-.428-1.55,3.3,3.3,0,0,1,.383-1.6,3.165,3.165,0,0,1,1.022-1.124,4.27,4.27,0,0,1,1.437-.6,7.408,7.408,0,0,1,1.63-.177,7.6,7.6,0,0,1,1.833.2,4.155,4.155,0,0,1,1.325.53,2.954,2.954,0,0,1,.8.752,3.561,3.561,0,0,1,.48.858,5.087,5.087,0,0,1,.279,1.024M661.45-39.79h3.5v10.671h-3.5Zm-10.477,0h9.8v2.808h-3.154v7.863h-3.487v-7.863h-3.154Z" transform="translate(-650.973 40.08)"/></g><g transform="translate(0.056 13.433)"><g class="e" transform="translate(0 0)"><rect class="f" width="119.567" height="13.744" transform="translate(0 0)"/></g></g><g transform="translate(50.794 17.399)"><g class="g" transform="translate(0 0)"><rect class="h" width="15.801" height="16.569" transform="matrix(0.458, -0.889, 0.889, 0.458, -4.531, 8.788)"/></g></g><g transform="translate(52.548 19.152)"><g class="i" transform="translate(0)"><rect class="j" width="11.678" height="12.073" transform="matrix(0.588, -0.809, 0.809, 0.588, -3.617, 4.97)"/></g></g><g transform="translate(53.98 20.587)"><g class="k" transform="translate(0)"><rect class="l" width="8.532" height="8.693" transform="matrix(0.548, -0.837, 0.837, 0.548, -2.723, 4.158)"/></g></g><g transform="translate(51.794 19.666)"><g class="m"><rect class="n" width="14.041" height="14.406" transform="matrix(0.548, -0.836, 0.836, 0.548, -4.42, 6.74)"/></g></g><g transform="translate(50.066 16.67)"><g class="o" transform="translate(0 0)"><rect class="p" width="18.64" height="18.843" transform="matrix(0.659, -0.753, 0.753, 0.659, -6.046, 6.91)"/></g></g><g transform="translate(49.277 15.878)"><g class="q" transform="translate(0)"><rect class="r" width="13.168" height="13.369" transform="translate(-3.903 4.278) rotate(-47.618)"/></g></g><g transform="translate(60.441 18.785)"><g class="s"><rect class="t" width="14.556" height="11.341" transform="translate(-5.436 10.544) rotate(-62.727)"/></g></g><g transform="translate(48.174 15.662)"><g class="u" transform="translate(0 0)"><rect class="v" width="12.541" height="10.198" transform="matrix(0.458, -0.889, 0.889, 0.458, -4.546, 8.818)"/></g></g><g transform="translate(47.896 14.502)"><g class="w"><rect class="x" width="24.702" height="24.235" transform="translate(-7.82 5.974) rotate(-37.378)"/></g></g><g transform="translate(46.829 13.433)"><g class="y" transform="translate(0 0)"><rect class="z" width="25.587" height="26.602" transform="translate(-7.826 11.087) rotate(-54.783)"/></g></g><g transform="translate(0.253 21.06)"><path d="M855.447,40.249a2.471,2.471,0,1,1-2.471-2.471,2.471,2.471,0,0,1,2.471,2.471" transform="translate(-795.986 -37.466)"/><path class="aa" d="M866.63,37.829a1.187,1.187,0,1,1-1.187-1.187,1.187,1.187,0,0,1,1.187,1.187" transform="translate(-805.963 -36.642)"/><path class="aa" d="M870.181,46.893a.7.7,0,1,1-.7-.7.7.7,0,0,1,.7.7" transform="translate(-809.245 -43.571)"/><path class="ab" d="M859.5,55.73s-13.324,2.261-16.774,6.127a5.239,5.239,0,0,0,3.569,2.26s5.294-3.45,6.484-3.45a44.239,44.239,0,0,1-1.67,7.861c-7.985.9-26.366,1.83-57.8-2.547l1.677,1.956a239.7,239.7,0,0,0,55.53,2.494,66.4,66.4,0,0,1-3.268,8.081s1.011,1.785,5,1.487c0,0,1.575-8.158,2.628-9.944.531-.052,2.32-.129,2.853-.185l-1.271-.023c1.573.155,4.588.057,9.888-2.934,7.376-4.164,8.922-13.086-6.841-11.183M855.873,67.8l4.045-9.041-.476-.416.417-.119c9.458-2.8,11.659.892,8.982,4.1S855.873,67.8,855.873,67.8" transform="translate(-754.491 -50.299)"/><path class="ab" d="M1084.668,68.558h-2.2s-5.651,6.365-6.662,6.365,2.439-4.7,2.617-4.878-.773-1.011-4.4-.475c0,0-3.628,7.317-4.342,13.264a4.92,4.92,0,0,0,3.39.595s.476-5.71,6.841-10.469a4.441,4.441,0,0,0,3.629,1.785l1.547-1.725a3.9,3.9,0,0,1-.417-4.461" transform="translate(-954.996 -59.797)"/><path class="ab" d="M1142.145,59.409s.3-2.558-2.915-1.784a3.946,3.946,0,0,0-3.271-1.13c-1.844.357-7.5,3.391-8.8,8.744s2.32,5.413,5,5.056,10.35-5.889,9.993-10.886m-10.29,10.112s-2.3.434-.417-4.342c1.785-4.521,7.019-6.959,7.019-6.959,3.093,7.316-6.6,11.3-6.6,11.3" transform="translate(-996.496 -51.004)"/><rect class="ac" width="89.274" height="1.274" transform="translate(0 26.136)"/><rect class="ac" width="44.503" height="1.274" transform="translate(100.903 26.136)"/><path class="ad" d="M811.227,79.173l1.906.349-.106.58-1.2-.22-.131.715,1.122.206-.105.575-1.123-.206-.23,1.257-.705-.13Z" transform="translate(-767.075 -67.498)"/><path class="ad" d="M822.921,83.127a1.512,1.512,0,0,1-1.808,1.407,1.487,1.487,0,0,1-1.22-1.84,1.542,1.542,0,0,1,1.792-1.4,1.484,1.484,0,0,1,1.236,1.833m-2.276-.327c-.1.62.12,1.1.6,1.176s.828-.336.926-.946c.091-.568-.1-1.1-.586-1.174s-.837.334-.935.945" transform="translate(-773.758 -69.021)"/><path class="ad" d="M834.224,86.416a2.109,2.109,0,0,1-.822.024,1.515,1.515,0,0,1-1.429-1.808,1.617,1.617,0,0,1,1.951-1.429,1.8,1.8,0,0,1,.756.248l-.228.54a1.51,1.51,0,0,0-.582-.2,1.045,1.045,0,0,0-.283,2.07,1.717,1.717,0,0,0,.612-.02Z" transform="translate(-782.526 -70.406)"/><path class="ad" d="M843.43,84.091l-.22,1.812c-.067.548.111.849.471.893s.612-.192.681-.754l.22-1.812.711.086-.215,1.77c-.118.974-.666,1.378-1.49,1.278-.8-.1-1.206-.6-1.084-1.6l.214-1.76Z" transform="translate(-790.166 -71.004)"/><path class="ad" d="M853.446,87.949a1.821,1.821,0,0,0,.772.28c.328.034.517-.083.538-.29s-.118-.326-.484-.5c-.506-.243-.823-.57-.774-1.03.057-.539.555-.9,1.3-.822a1.859,1.859,0,0,1,.791.244l-.22.556a1.489,1.489,0,0,0-.641-.219c-.31-.033-.475.1-.492.257-.021.2.143.309.54.508.537.265.764.583.717,1.029-.055.53-.507.939-1.374.847a2.072,2.072,0,0,1-.876-.292Z" transform="translate(-797.97 -72.146)"/><path class="ad" d="M869.424,88.576a1.512,1.512,0,0,1-1.7,1.539,1.488,1.488,0,0,1-1.355-1.744,1.543,1.543,0,0,1,1.682-1.531,1.484,1.484,0,0,1,1.37,1.735m-2.293-.155c-.053.626.2,1.088.682,1.128s.8-.4.852-1.013c.049-.573-.179-1.085-.672-1.127s-.81.4-.862,1.012" transform="translate(-807.492 -73.057)"/><path class="ad" d="M878.76,90.813l.215-3.174.838.057.581,1.208a10.12,10.12,0,0,1,.444,1.123h.009a13.209,13.209,0,0,1,.034-1.332l.063-.923.659.044-.215,3.174-.753-.051-.6-1.27a10.716,10.716,0,0,1-.475-1.159h-.019c-.005.425-.026.873-.061,1.391l-.065.956Z" transform="translate(-816.485 -73.64)"/><path class="ad" d="M895.466,90.488,894.3,90.43l-.038.755,1.306.064-.029.589-2.022-.1.157-3.178,1.956.1-.029.59-1.24-.061-.033.66,1.169.058Z" transform="translate(-827.19 -74.309)"/><path class="ad" d="M903.759,92.227l-.267-.586c-.11-.226-.179-.394-.262-.581h-.009c-.073.181-.159.344-.271.561l-.28.566-.82-.03.978-1.574L902,88.98l.825.03.257.59c.087.2.152.355.221.537h.01c.083-.2.15-.339.236-.52l.29-.57.82.03-.953,1.518.883,1.661Z" transform="translate(-833.237 -74.613)"/><path class="ad" d="M914.7,92.484a2.108,2.108,0,0,1-.814.117,1.515,1.515,0,0,1-1.626-1.634,1.616,1.616,0,0,1,1.775-1.641,1.8,1.8,0,0,1,.779.16l-.165.562a1.517,1.517,0,0,0-.6-.132A1.045,1.045,0,0,0,914,92.005a1.715,1.715,0,0,0,.606-.089Z" transform="translate(-840.789 -74.864)"/><path class="ad" d="M924.854,91.436l-1.171-.013-.008.755,1.308.015-.007.59-2.025-.023.036-3.181,1.959.023-.007.59-1.241-.014-.008.661,1.171.013Z" transform="translate(-848.546 -75.047)"/><path class="ad" d="M932.164,89.672h.717V92.25h1.265v.6h-1.982Z" transform="translate(-855.23 -75.115)"/><path class="ad" d="M940.884,89.644l.718-.007.027,2.577,1.265-.013.007.6-1.982.02Z" transform="translate(-861.556 -75.09)"/><path class="ad" d="M951.535,91.248l-1.169.025.016.755L951.688,92l.013.589-2.022.044-.069-3.178,1.957-.043.013.589-1.24.027.014.66,1.169-.026Z" transform="translate(-867.886 -74.927)"/><path class="ad" d="M958.764,92.289l-.113-3.178.839-.03.7,1.141a10.063,10.063,0,0,1,.557,1.071h.01a13.089,13.089,0,0,1-.1-1.327l-.033-.924.66-.024.113,3.178-.754.027-.723-1.2a10.838,10.838,0,0,1-.592-1.1h-.019c.039.424.064.871.083,1.39l.034.957Z" transform="translate(-874.446 -74.641)"/><path class="ad" d="M972.684,91.553a2.114,2.114,0,0,1-.8.177,1.516,1.516,0,0,1-1.743-1.511,1.618,1.618,0,0,1,1.652-1.769,1.806,1.806,0,0,1,.789.1l-.123.573a1.513,1.513,0,0,0-.609-.088,1.046,1.046,0,0,0,.108,2.088,1.72,1.72,0,0,0,.6-.133Z" transform="translate(-882.777 -74.225)"/><path class="ad" d="M982.56,89.809l-1.168.071.046.753,1.3-.079.036.588-2.02.124-.194-3.174,1.954-.119.036.589-1.239.075.04.659,1.168-.071Z" transform="translate(-890.345 -73.882)"/></g></g></g></svg>