<svg xmlns="http://www.w3.org/2000/svg" xmlns:xlink="http://www.w3.org/1999/xlink" width="131.86" height="46" viewBox="0 0 131.86 46"><defs><style>.a,.ab{fill:#fff;}.a{stroke:#707070;}.b{fill:none;}.c{clip-path:url(#a);}.d{clip-path:url(#b);}.ae,.e{fill:#231f20;}.e{fill-rule:evenodd;}.f{clip-path:url(#c);}.g{fill:url(#d);}.h{clip-path:url(#e);}.i{fill:url(#f);}.j{clip-path:url(#g);}.k{fill:url(#h);}.l{clip-path:url(#i);}.m{fill:url(#j);}.n{clip-path:url(#k);}.o{fill:url(#l);}.p{clip-path:url(#m);}.q{fill:url(#n);}.r{clip-path:url(#o);}.s{fill:url(#p);}.t{clip-path:url(#q);}.u{fill:url(#r);}.v{clip-path:url(#s);}.w{fill:url(#t);}.x{clip-path:url(#u);}.y{fill:url(#v);}.z{clip-path:url(#w);}.aa{fill:url(#x);}.ac{fill:#262261;}.ad{fill:#a7a8aa;}</style><clipPath id="a"><path class="a" d="M0,0H131.86V46H0Z" transform="translate(870 1147)"/></clipPath><clipPath id="b"><rect class="a" width="135" height="46" transform="translate(-0.286 -1.557)"/></clipPath><clipPath id="c"><path class="b" d="M654.53,12.21h2.515q1.676,0,1.677,2.515t-1.677,2.515H654.53Zm-3.353-3.354V20.592h5.868q5.03,0,5.03-5.868t-5.03-5.868Zm11.737,11.736h3.353V8.856h-3.353ZM671.3,8.856q-4.192,0-4.192,3.739,0,3.806,4.192,3.806h2.515q.838,0,.838.385,0,.453-.838.453h-6.707v3.353h6.707q4.191,0,4.192-3.806,0-3.738-4.192-3.739H671.3q-.839,0-.839-.452,0-.386.839-.386H678V8.856Zm9.263,1.719a5.655,5.655,0,0,0-1.719,4.15,5.869,5.869,0,0,0,10.018,4.15,5.787,5.787,0,0,0,1.291-1.912L687.074,15.6a2.477,2.477,0,0,1-.587.905,2.513,2.513,0,1,1-3.555-3.554,2.528,2.528,0,0,1,4.167.972l3.06-1.434a5.9,5.9,0,0,0-1.3-1.911,5.869,5.869,0,0,0-8.3,0m35.546-1.719-2.515,6.707-2.515-6.707h-3.353l4.192,11.736h3.353L719.46,8.856Zm4.192,0V20.592h10.06V17.239h-6.706V16.4h5.03V13.048h-5.03V12.21h6.706V8.856Zm14.252,3.354H737.9a.741.741,0,0,1,.838.838.741.741,0,0,1-.838.838h-3.354ZM731.2,8.856V20.592h3.353V17.239l3.354,3.353h4.191l-3.353-3.353q3.353,0,3.353-4.192T737.9,8.856Zm18.5,0-2.289,3.354-2.289-3.354h-3.58l4.192,6.707v5.03h3.354v-5.03l4.191-6.707Z" transform="translate(-651.177 -8.856)"/></clipPath><linearGradient id="d" x1="-1.492" y1="4.55" x2="-1.489" y2="4.55" gradientUnits="objectBoundingBox"><stop offset="0" stop-color="#4993cf"/><stop offset="1" stop-color="#3b56a5"/></linearGradient><clipPath id="e"><path class="b" d="M836.014,28.814a5.283,5.283,0,0,0,1.742,3.988l.647-.648a4.581,4.581,0,1,1,7.233-1.337l.8.484a5.509,5.509,0,1,0-10.423-2.486" transform="translate(-836.014 -23.303)"/></clipPath><linearGradient id="f" x1="-14.372" y1="3.613" x2="-14.355" y2="3.613" gradientUnits="objectBoundingBox"><stop offset="0" stop-color="#f28083"/><stop offset="1" stop-color="#ed2b31"/></linearGradient><clipPath id="g"><path class="b" d="M842.4,33.705a4,4,0,0,0,.2,1.256l1.18-.329a2.477,2.477,0,0,1-.142-.927,2.771,2.771,0,1,1,5.008,1.629l.915.85a4.011,4.011,0,1,0-7.164-2.479" transform="translate(-842.404 -29.692)"/></clipPath><linearGradient id="h" x1="-19.362" y1="4.531" x2="-19.338" y2="4.531" gradientUnits="objectBoundingBox"><stop offset="0" stop-color="#e37fb2"/><stop offset="1" stop-color="#ec2180"/></linearGradient><clipPath id="i"><path class="b" d="M847.621,37.694c0,.044,0,.086.006.128l.854-.106c0-.008,0-.015,0-.022a1.917,1.917,0,1,1,2.974,1.6l.475.7a2.686,2.686,0,0,0,1.243-2.3,2.775,2.775,0,0,0-5.55,0" transform="translate(-847.621 -34.919)"/></clipPath><linearGradient id="j" x1="-26.536" y1="5.805" x2="-26.504" y2="5.805" gradientUnits="objectBoundingBox"><stop offset="0" stop-color="#9e5da5"/><stop offset="1" stop-color="#5d50a0"/></linearGradient><clipPath id="k"><path class="b" d="M846.954,32.156a3.995,3.995,0,1,1-6.5,1.989l-.634-.217a4.654,4.654,0,1,0,7.475-2.364Z" transform="translate(-839.659 -31.564)"/></clipPath><linearGradient id="l" x1="-16.118" y1="3.855" x2="-16.098" y2="3.855" gradientUnits="objectBoundingBox"><stop offset="0" stop-color="#dd0f82"/><stop offset="1" stop-color="#ad1e3d"/></linearGradient><clipPath id="m"><path class="b" d="M833.362,26.781a5.877,5.877,0,0,0,1.333,3.769l.463-.406a5.493,5.493,0,1,1,8.216.525l.5.4a6.131,6.131,0,1,0-10.515-4.286" transform="translate(-833.362 -20.649)"/></clipPath><linearGradient id="n" x1="-12.235" y1="3.389" x2="-12.22" y2="3.389" gradientUnits="objectBoundingBox"><stop offset="0" stop-color="#f37721"/><stop offset="1" stop-color="#fac614"/></linearGradient><clipPath id="o"><path class="b" d="M830.489,24.442l.709.018a6.085,6.085,0,0,1,8.367-5.544l.269-.659a6.807,6.807,0,0,0-9.346,6.185" transform="translate(-830.489 -17.765)"/></clipPath><linearGradient id="p" x1="-17.356" y1="4.808" x2="-17.335" y2="4.808" gradientUnits="objectBoundingBox"><stop offset="0" stop-color="#ffcf1c"/><stop offset="1" stop-color="#f6eb28"/></linearGradient><clipPath id="q"><path class="b" d="M874.122,28.933a6.806,6.806,0,0,1-2.963,9.989l.442.826a7.748,7.748,0,0,0,3.258-11.4Z" transform="translate(-871.159 -28.352)"/></clipPath><linearGradient id="r" x1="-16.046" y1="4.79" x2="-16.027" y2="4.79" gradientUnits="objectBoundingBox"><stop offset="0" stop-color="#c7db5d"/><stop offset="1" stop-color="#7bab41"/></linearGradient><clipPath id="s"><path class="b" d="M826.469,23.969a7.735,7.735,0,0,0,.427,2.537l.876-.327a6.8,6.8,0,0,1,3.581-8.392l-.473-.811a7.749,7.749,0,0,0-4.41,6.994" transform="translate(-826.469 -16.975)"/></clipPath><linearGradient id="t" x1="-17.707" y1="5.66" x2="-17.686" y2="5.66" xlink:href="#r"/><clipPath id="u"><path class="b" d="M825.458,20.734a8,8,0,0,0,.113,1.333l.315-.077a7.807,7.807,0,0,1-.106-1.256,7.663,7.663,0,1,1,12.892,5.594l.2.264a7.984,7.984,0,1,0-13.409-5.857" transform="translate(-825.458 -12.749)"/></clipPath><linearGradient id="v" x1="-8.951" y1="2.64" x2="-8.94" y2="2.64" gradientUnits="objectBoundingBox"><stop offset="0" stop-color="#62c9e4"/><stop offset="1" stop-color="#427fc0"/></linearGradient><clipPath id="w"><path class="b" d="M821.57,17.753c0,.232.012.46.029.687l.928-.165c-.012-.173-.02-.346-.02-.522A7.959,7.959,0,1,1,836.92,22.4l.7.639a8.9,8.9,0,1,0-16.05-5.288" transform="translate(-821.57 -8.856)"/></clipPath><linearGradient id="x" x1="-8.65" y1="2.462" x2="-8.639" y2="2.462" xlink:href="#d"/></defs><g class="c" transform="translate(-870 -1147)"><g class="d" transform="translate(867.286 1148.557)"><g transform="translate(4.378 -0.268)"><g transform="translate(0 0)"><path class="e" d="M692.054-30.72v-9.112h2.782l3.138,4.879v-4.879h2.865v9.112h-2.846l-3.072-4.761v4.761Zm-5.333-2.01a1.756,1.756,0,0,0,.93-.257,1.775,1.775,0,0,0,.67-.847,3.723,3.723,0,0,0,.251-1.452,4.353,4.353,0,0,0-.124-1.092,2.341,2.341,0,0,0-.326-.779,1.718,1.718,0,0,0-.56-.5,1.529,1.529,0,0,0-.786-.2,1.682,1.682,0,0,0-.922.276,1.878,1.878,0,0,0-.693.861,3.594,3.594,0,0,0-.251,1.43,3.1,3.1,0,0,0,.585,2,1.5,1.5,0,0,0,1.225.553m.036,2.249a4.7,4.7,0,0,1-3.491-1.313,4.748,4.748,0,0,1-1.3-3.5,5.506,5.506,0,0,1,.3-1.87,4.244,4.244,0,0,1,.811-1.4,4.138,4.138,0,0,1,1.07-.873,4.961,4.961,0,0,1,1.2-.472,5.494,5.494,0,0,1,1.363-.168,5.472,5.472,0,0,1,2.481.566,3.907,3.907,0,0,1,1.732,1.643,4.966,4.966,0,0,1,.6,2.476,5.572,5.572,0,0,1-.528,2.461,4.243,4.243,0,0,1-1.607,1.766,4.819,4.819,0,0,1-2.627.679M681.4-36.349h-2.825a1.612,1.612,0,0,0-.489-1.06,1.466,1.466,0,0,0-1.044-.384,1.6,1.6,0,0,0-1.294.617,3.2,3.2,0,0,0-.5,2,3.823,3.823,0,0,0,.213,1.445,1.618,1.618,0,0,0,.591.74,1.755,1.755,0,0,0,.947.238,1.556,1.556,0,0,0,1.1-.377,1.739,1.739,0,0,0,.485-1.13h2.876a5.125,5.125,0,0,1-.34,1.425,3.718,3.718,0,0,1-.823,1.155,3.988,3.988,0,0,1-1.368.9,4.942,4.942,0,0,1-1.834.313,5.833,5.833,0,0,1-1.927-.307,4.23,4.23,0,0,1-1.484-.879,4.233,4.233,0,0,1-.936-1.3,5.319,5.319,0,0,1-.475-2.274,5.567,5.567,0,0,1,.345-1.978,4.371,4.371,0,0,1,.949-1.538,4.1,4.1,0,0,1,1.338-.936,5.233,5.233,0,0,1,2.072-.4,5.736,5.736,0,0,1,1.851.3,3.586,3.586,0,0,1,1.425.868,3.9,3.9,0,0,1,.856,1.306,4.632,4.632,0,0,1,.288,1.262m-10-.847h-2.84a.963.963,0,0,0-.384-.591,1.352,1.352,0,0,0-.8-.2,1.25,1.25,0,0,0-.777.208.489.489,0,0,0-.2.407.436.436,0,0,0,.151.345,2.721,2.721,0,0,0,1.011.384l1.161.283a4.378,4.378,0,0,1,2.261,1.106,2.383,2.383,0,0,1,.653,1.657,2.825,2.825,0,0,1-.338,1.374,2.874,2.874,0,0,1-.823.974,3.794,3.794,0,0,1-1.27.564,6.134,6.134,0,0,1-1.638.213,6.262,6.262,0,0,1-1.771-.243,3.75,3.75,0,0,1-1.371-.7,3.152,3.152,0,0,1-.81-1.06,3.672,3.672,0,0,1-.268-1.055h2.871a1.067,1.067,0,0,0,.432.664,1.8,1.8,0,0,0,1.023.232,1.44,1.44,0,0,0,.866-.2.5.5,0,0,0,.2-.423.588.588,0,0,0-.181-.445,2.608,2.608,0,0,0-.981-.364l-1.043-.257a7.544,7.544,0,0,1-1.532-.54,2.619,2.619,0,0,1-1.081-.892,2.333,2.333,0,0,1-.365-1.324,2.814,2.814,0,0,1,.327-1.365,2.7,2.7,0,0,1,.872-.96,3.646,3.646,0,0,1,1.227-.515,6.325,6.325,0,0,1,1.392-.151,6.488,6.488,0,0,1,1.565.175,3.549,3.549,0,0,1,1.132.453,2.524,2.524,0,0,1,.682.642,3.039,3.039,0,0,1,.41.733,4.348,4.348,0,0,1,.238.874m-11.477-2.636h2.991v9.112h-2.991Zm-8.947,0h8.365v2.4h-2.693v6.714h-2.978v-6.714h-2.694Z" transform="translate(-650.973 40.08)"/></g><g transform="translate(0.048 11.471)"><g class="f" transform="translate(0 0)"><rect class="g" width="102.101" height="11.736" transform="translate(0 0)"/></g></g><g transform="translate(43.374 14.857)"><g class="h" transform="translate(0 0)"><rect class="i" width="13.493" height="14.149" transform="matrix(0.458, -0.889, 0.889, 0.458, -3.869, 7.504)"/></g></g><g transform="translate(44.872 16.355)"><g class="j" transform="translate(0)"><rect class="k" width="9.972" height="10.309" transform="matrix(0.588, -0.809, 0.809, 0.588, -3.089, 4.244)"/></g></g><g transform="translate(46.094 17.58)"><g class="l" transform="translate(0)"><rect class="m" width="7.285" height="7.423" transform="matrix(0.548, -0.837, 0.837, 0.548, -2.325, 3.551)"/></g></g><g transform="translate(44.228 16.793)"><g class="n"><rect class="o" width="11.99" height="12.301" transform="matrix(0.548, -0.836, 0.836, 0.548, -3.774, 5.756)"/></g></g><g transform="translate(42.752 14.235)"><g class="p" transform="translate(0 0)"><rect class="q" width="15.917" height="16.091" transform="matrix(0.659, -0.753, 0.753, 0.659, -5.163, 5.901)"/></g></g><g transform="translate(42.079 13.559)"><g class="r" transform="translate(0)"><rect class="s" width="11.245" height="11.416" transform="translate(-3.333 3.653) rotate(-47.618)"/></g></g><g transform="translate(51.612 16.041)"><g class="t"><rect class="u" width="12.43" height="9.684" transform="translate(-4.642 9.003) rotate(-62.727)"/></g></g><g transform="translate(41.136 13.374)"><g class="v" transform="translate(0 0)"><rect class="w" width="10.709" height="8.708" transform="matrix(0.458, -0.889, 0.889, 0.458, -3.882, 7.53)"/></g></g><g transform="translate(40.899 12.383)"><g class="x"><rect class="y" width="21.093" height="20.694" transform="translate(-6.677 5.101) rotate(-37.378)"/></g></g><g transform="translate(39.988 11.471)"><g class="z" transform="translate(0 0)"><rect class="aa" width="21.849" height="22.716" transform="translate(-6.683 9.468) rotate(-54.783)"/></g></g><g transform="translate(0.216 17.984)"><path d="M854.725,39.888a2.11,2.11,0,1,1-2.11-2.11,2.11,2.11,0,0,1,2.11,2.11" transform="translate(-803.951 -37.512)"/><path class="ab" d="M866.283,37.656a1.014,1.014,0,1,1-1.014-1.014,1.014,1.014,0,0,1,1.014,1.014" transform="translate(-814.478 -36.642)"/><path class="ab" d="M869.976,46.79a.6.6,0,1,1-.6-.6.6.6,0,0,1,.6.6" transform="translate(-817.942 -43.953)"/><path class="ac" d="M849.832,55.691s-11.378,1.93-14.324,5.232a4.474,4.474,0,0,0,3.048,1.93s4.521-2.946,5.536-2.946a37.774,37.774,0,0,1-1.426,6.713c-6.818.768-22.515,1.563-49.357-2.175l1.432,1.671a204.681,204.681,0,0,0,47.418,2.13,56.71,56.71,0,0,1-2.791,6.9s.864,1.524,4.267,1.27c0,0,1.345-6.966,2.244-8.491.453-.044,1.981-.11,2.437-.158l-1.085-.02c1.343.132,3.918.049,8.443-2.506,6.3-3.555,7.619-11.175-5.842-9.549M846.734,66l3.454-7.721-.406-.356.356-.1c8.076-2.387,9.955.762,7.669,3.5S846.734,66,846.734,66" transform="translate(-760.162 -51.054)"/><path class="ac" d="M1082.478,68.558H1080.6s-4.825,5.435-5.689,5.435,2.083-4.013,2.235-4.166-.66-.863-3.759-.406c0,0-3.1,6.248-3.708,11.327a4.2,4.2,0,0,0,2.9.508s.406-4.876,5.841-8.939a3.792,3.792,0,0,0,3.1,1.524l1.321-1.473a3.328,3.328,0,0,1-.356-3.81" transform="translate(-971.749 -61.077)"/><path class="ac" d="M1139.915,58.975s.254-2.184-2.489-1.524a3.37,3.37,0,0,0-2.794-.965c-1.575.3-6.4,2.9-7.517,7.467s1.981,4.622,4.267,4.318,8.838-5.029,8.533-9.3m-8.787,8.635s-1.966.371-.356-3.708c1.524-3.86,5.994-5.943,5.994-5.943,2.641,6.247-5.638,9.651-5.638,9.651" transform="translate(-1015.542 -51.798)"/><rect class="ad" width="76.232" height="1.088" transform="translate(0 22.318)"/><rect class="ad" width="38.002" height="1.088" transform="translate(86.163 22.318)"/><path class="ae" d="M811.143,79.173l1.628.3-.091.5-1.026-.188-.112.61.958.176-.09.491-.959-.176-.2,1.074-.6-.111Z" transform="translate(-773.441 -69.204)"/><path class="ae" d="M822.474,82.856a1.291,1.291,0,0,1-1.544,1.2,1.27,1.27,0,0,1-1.042-1.571,1.317,1.317,0,0,1,1.53-1.2,1.267,1.267,0,0,1,1.055,1.565m-1.943-.279c-.084.529.1.939.508,1s.707-.287.791-.808c.078-.485-.083-.936-.5-1s-.715.285-.8.807" transform="translate(-780.493 -70.811)"/><path class="ae" d="M833.892,85.943a1.8,1.8,0,0,1-.7.02,1.294,1.294,0,0,1-1.22-1.544,1.381,1.381,0,0,1,1.666-1.22,1.535,1.535,0,0,1,.646.212l-.194.461a1.289,1.289,0,0,0-.5-.171.893.893,0,0,0-.242,1.768,1.466,1.466,0,0,0,.523-.017Z" transform="translate(-789.747 -72.273)"/><path class="ae" d="M843.291,84.079l-.188,1.548c-.057.468.095.725.4.763s.523-.164.581-.644l.188-1.547.608.074-.183,1.511c-.1.831-.569,1.176-1.272,1.091-.68-.083-1.029-.51-.926-1.366l.183-1.5Z" transform="translate(-797.809 -72.903)"/><path class="ae" d="M853.416,87.6a1.555,1.555,0,0,0,.66.239c.28.029.441-.071.459-.247s-.1-.278-.413-.425c-.432-.207-.7-.487-.661-.88.048-.461.474-.769,1.107-.7a1.588,1.588,0,0,1,.675.208l-.188.474a1.271,1.271,0,0,0-.547-.187c-.265-.028-.406.083-.42.219-.018.172.122.264.461.433.458.226.653.5.613.879-.047.453-.433.8-1.174.724a1.769,1.769,0,0,1-.748-.249Z" transform="translate(-806.044 -74.108)"/><path class="ae" d="M868.977,88.322a1.291,1.291,0,0,1-1.449,1.315,1.27,1.27,0,0,1-1.157-1.489,1.317,1.317,0,0,1,1.436-1.307,1.267,1.267,0,0,1,1.17,1.481m-1.958-.132c-.045.534.173.929.583.963s.683-.339.727-.865c.041-.49-.153-.927-.574-.962s-.692.338-.736.864" transform="translate(-816.092 -75.07)"/><path class="ae" d="M878.76,90.349l.184-2.71.715.049.5,1.031a8.638,8.638,0,0,1,.379.959h.008a11.248,11.248,0,0,1,.029-1.137l.054-.788.563.038L881,90.5l-.643-.043-.508-1.085a9.161,9.161,0,0,1-.406-.989h-.016c0,.363-.022.746-.052,1.188l-.055.816Z" transform="translate(-825.583 -75.685)"/><path class="ae" d="M895.181,90.206l-1-.049-.032.644,1.115.055-.025.5-1.727-.085.134-2.714,1.671.083-.025.5-1.059-.052-.028.563,1,.049Z" transform="translate(-836.879 -76.391)"/><path class="ae" d="M903.48,91.752l-.228-.5c-.094-.193-.153-.336-.224-.5h-.008c-.062.155-.136.293-.231.479l-.239.483-.7-.026.835-1.344-.708-1.368.7.026.219.5c.075.168.13.3.189.458h.008c.071-.171.128-.29.2-.444l.248-.487.7.026-.814,1.3.754,1.419Z" transform="translate(-843.26 -76.712)"/><path class="ae" d="M914.344,92.023a1.8,1.8,0,0,1-.7.1,1.294,1.294,0,0,1-1.388-1.4,1.38,1.38,0,0,1,1.516-1.4,1.536,1.536,0,0,1,.665.137l-.141.48a1.3,1.3,0,0,0-.512-.113.892.892,0,0,0-.039,1.784,1.464,1.464,0,0,0,.517-.076Z" transform="translate(-851.23 -76.976)"/><path class="ae" d="M924.576,91.165l-1-.011-.007.645,1.117.013-.006.5-1.729-.02.031-2.716,1.673.019-.006.5-1.06-.012-.007.564,1,.011Z" transform="translate(-859.415 -77.17)"/><path class="ae" d="M932.164,89.672h.612v2.2h1.08v.516h-1.693Z" transform="translate(-866.469 -77.242)"/><path class="ae" d="M940.884,89.643l.613-.006.023,2.2,1.08-.011.006.516-1.693.017Z" transform="translate(-873.145 -77.215)"/><path class="ae" d="M951.254,90.979l-1,.022.014.644,1.115-.024.011.5-1.727.038-.059-2.713,1.671-.036.011.5-1.059.023.012.564,1-.022Z" transform="translate(-879.824 -77.043)"/><path class="ae" d="M958.748,91.811l-.1-2.713.717-.026.6.974a8.6,8.6,0,0,1,.476.914h.008a11.15,11.15,0,0,1-.089-1.134l-.028-.789.564-.02.1,2.713-.644.023-.617-1.026a9.243,9.243,0,0,1-.505-.942h-.016c.033.362.055.744.071,1.187l.029.817Z" transform="translate(-886.747 -76.741)"/><path class="ae" d="M972.311,91.1a1.8,1.8,0,0,1-.687.151,1.3,1.3,0,0,1-1.488-1.291,1.382,1.382,0,0,1,1.41-1.511,1.542,1.542,0,0,1,.674.088l-.1.49a1.293,1.293,0,0,0-.52-.075.893.893,0,0,0,.092,1.783,1.469,1.469,0,0,0,.511-.114Z" transform="translate(-895.539 -76.303)"/><path class="ae" d="M982.269,89.54l-1,.061.039.643,1.114-.068.03.5-1.725.105-.165-2.711,1.669-.1.031.5-1.058.064.034.563,1-.061Z" transform="translate(-903.524 -75.941)"/></g></g></g></g></svg>