<?xml version="1.0" encoding="utf-8"?>
<!-- Generator: Adobe Illustrator 22.1.0, SVG Export Plug-In . SVG Version: 6.00 Build 0)  -->
<svg version="1.1" id="Layer_1" xmlns="http://www.w3.org/2000/svg" xmlns:xlink="http://www.w3.org/1999/xlink" x="0px" y="0px"
		viewBox="0 0 182.2 182.2" style="enable-background:new 0 0 182.2 182.2;" xml:space="preserve">
	<style type="text/css">
		.st0{fill:#112769;}
	</style>
	<g>
		<rect x="67.7" y="78.1" class="st0" width="4.1" height="3.1"/>
		<path class="st0" d="M125.1,69.8H106v-7.3c0-3.5-2.9-6.4-6.4-6.4H57c-3.5,0-6.4,2.9-6.4,6.4v30.6c0,3.5,2.9,6.4,6.4,6.4h2.1v10
			c0,0.8,0.3,1.5,0.9,2.1c0.6,0.6,1.3,0.9,2.1,0.9c0.8,0,1.6-0.3,2.1-0.9l12.1-12.1h3.3v7.3c0,3.5,2.9,6.4,6.4,6.4h16.5l12,12
			c1.1,1.1,3.1,1.1,4.2,0c0.6-0.6,0.9-1.3,0.9-2.1v-10h5.6c3.5,0,6.4-2.9,6.4-6.4V76.1C131.5,72.6,128.6,69.8,125.1,69.8z M75.2,97
			l-13.6,13.6V97H57c-2.1,0-3.9-1.7-3.9-3.9V62.5c0-2.1,1.7-3.9,3.9-3.9h42.6c2.1,0,3.9,1.7,3.9,3.9v30.7c0,2.1-1.7,3.9-3.9,3.9H75.2
			z M129,106.8c0,2.1-1.7,3.9-3.9,3.9h-8.1v13.6l-13.6-13.6H86c-2.1,0-3.9-1.7-3.9-3.9v-7.3h17.5c3.5,0,6.4-2.9,6.4-6.4V72.3h19.2
			c2.1,0,3.9,1.7,3.9,3.9V106.8z"/>
		<rect x="76.7" y="78.1" class="st0" width="4.1" height="3.1"/>
		<rect x="84.7" y="78.1" class="st0" width="4.1" height="3.1"/>
	</g>
</svg>
