<?xml version="1.0" encoding="utf-8"?>
<!-- Generator: Adobe Illustrator 22.1.0, SVG Export Plug-In . SVG Version: 6.00 Build 0)  -->
<svg version="1.1" id="Layer_1" xmlns="http://www.w3.org/2000/svg" xmlns:xlink="http://www.w3.org/1999/xlink" x="0px" y="0px"
	 viewBox="0 0 182.2 182.2" style="enable-background:new 0 0 182.2 182.2;" xml:space="preserve">
<style type="text/css">
	.st0{fill:#112769;}
</style>
<g>
	<path class="st0" d="M107.7,108.3c-0.2-0.2-0.5-0.4-0.9-0.4s-0.6,0.1-0.9,0.4c-0.2,0.2-0.4,0.5-0.4,0.9c0,0.3,0.1,0.6,0.4,0.9
		l4.9,4.9c0.7,0.8,1,1.1,1,2v6.3c0,0.7,0.6,1.2,1.2,1.2c0.7,0,1.2-0.6,1.2-1.2V117c0-1.4-0.6-2.8-1.6-3.7L107.7,108.3z"/>
	<path class="st0" d="M76.3,108.3c-0.2-0.2-0.5-0.4-0.9-0.4c-0.3,0-0.6,0.1-0.9,0.4v0l-5,5c-1.1,1-1.7,2.3-1.7,3.7v6.3
		c0,0.7,0.6,1.2,1.2,1.2c0.7,0,1.2-0.6,1.2-1.2V117c0-0.9,0.3-1.3,1-2l4.9-4.9C76.7,109.6,76.7,108.8,76.3,108.3z"/>
	<path class="st0" d="M86.4,69.5L86.4,69.5c0.7,0,1.2-0.6,1.2-1.2V55.4h6.9v12.9c0,0.7,0.6,1.2,1.2,1.2c0.7,0,1.2-0.6,1.2-1.2V54.2
		c0-0.7-0.6-1.2-1.2-1.2h-9.4c-0.7,0-1.2,0.6-1.2,1.2v14.1c0,0.3,0.1,0.6,0.4,0.9C85.7,69.4,86,69.5,86.4,69.5z"/>
	<path class="st0" d="M116.3,81.2H67.5h-1.6c-0.7,0-1.2,0.6-1.2,1.2s0.6,1.2,1.2,1.2h6.6v9.8c0,1.9,0.4,6.5,1.8,8.5
		c0.8,1.1,1.8,2.1,2.8,3.1l0.1,0.1v12.5l-2.8-1.8c-0.2-0.1-0.4-0.2-0.7-0.2c-0.4,0-0.8,0.2-1.1,0.6c-0.4,0.6-0.2,1.4,0.4,1.7
		l4.4,2.8c0.2,0.3,0.5,0.5,0.9,0.5l0.1,0l6.6,4.2v2.5c0,0.7,0.6,1.2,1.2,1.2c0.7,0,1.2-0.6,1.2-1.2v-3.1c0-0.4-0.2-0.8-0.6-1.1
		l-7.3-4.5v-11.7l1,0.9c2.4,2.3,5.4,3.5,8.7,3.5c0,0,0,0,0,0h3.1c0,0,0,0,0.1,0c3.2,0,6.3-1.2,8.6-3.5l1.1-1v11.7l-7.3,4.5
		c-0.4,0.2-0.6,0.6-0.6,1.1v3.1c0,0.7,0.6,1.2,1.2,1.2c0.7,0,1.2-0.6,1.2-1.2v-2.5l6.8-4.2c0.3,0,0.7-0.2,0.9-0.5l0.1-0.1l4.3-2.7
		c0.6-0.4,0.8-1.1,0.4-1.7c-0.4-0.6-1.1-0.8-1.7-0.4l-2.8,1.8v-12.5l0.1-0.1c1-1,2-2,2.8-3.1c1.3-2,1.8-6.6,1.8-8.5v-9.8h6.6
		c0.7,0,1.2-0.6,1.2-1.2C117.5,81.8,116.9,81.2,116.3,81.2z M107.1,93.4c0,2.4-0.6,6-1.4,7.2c-0.7,0.9-1.5,1.8-2.4,2.6l-0.9,0.9
		c-0.9,0.9-1.9,1.8-2.8,2.6c-1.9,1.8-4.3,2.8-6.9,2.8c0,0,0,0,0,0h-3.1c0,0,0,0,0,0c-2.6,0-5.1-1-7-2.8c-0.8-0.7-1.8-1.7-2.7-2.5
		l-0.9-0.9c-0.9-0.8-1.7-1.7-2.4-2.6c-0.8-1.2-1.4-4.8-1.4-7.2v-9.8h32.1V93.4z"/>
	<path class="st0" d="M100.5,64.8c0.7,0,1.2-0.6,1.2-1.2v-5.7l0.5,0.3c5.5,3.6,8,7.7,8,13.2v3.1c0,0.5,0.3,0.9,0.7,1.1l2.5,1.2v2.4
		c0,0.7,0.6,1.2,1.2,1.2c0.7,0,1.2-0.6,1.2-1.2v-3.1c0-0.5-0.3-0.9-0.7-1.1l-2.5-1.2v-2.4c0-9.1-6.2-13.8-11.6-16.8
		c-0.6-0.3-1.4-0.1-1.7,0.5c-0.1,0.2-0.2,0.4-0.2,0.6v7.9C99.3,64.3,99.8,64.8,100.5,64.8z"/>
	<path class="st0" d="M67.5,80.5c0.7,0,1.2-0.6,1.2-1.2v-2.4l2.5-1.2c0.4-0.2,0.7-0.6,0.7-1.1v-3.1c0-5.6,2.5-9.7,8-13.2l0.5-0.3
		v5.7c0,0.7,0.6,1.2,1.2,1.2c0.7,0,1.2-0.6,1.2-1.2v-7.9c0-0.7-0.6-1.2-1.2-1.2c0,0,0,0,0,0c-0.2,0-0.4,0.1-0.6,0.2
		c-5.4,3-11.7,7.5-11.7,16.8v2.4L67,75c-0.4,0.2-0.7,0.6-0.7,1.1v3.1C66.3,80,66.8,80.5,67.5,80.5z"/>
</g>
</svg>
