<?xml version="1.0" encoding="utf-8"?>
<!-- Generator: Adobe Illustrator 22.1.0, SVG Export Plug-In . SVG Version: 6.00 Build 0)  -->
<svg version="1.1" id="Layer_1" xmlns="http://www.w3.org/2000/svg" xmlns:xlink="http://www.w3.org/1999/xlink" x="0px" y="0px"
	 viewBox="0 0 182.2 182.2" style="enable-background:new 0 0 182.2 182.2;" xml:space="preserve">
<style type="text/css">
	.st0{fill:#112769;}
</style>
<g>
	<path class="st0" d="M121,128.4l-0.9-6c-0.6-4.2-2.3-8.3-4.9-11.6c-2.6-3.4-6.1-6.1-10-7.7l-5.6-2.4c2.9-1.7,5.4-4.3,7.1-7.4
		c1.8-3.2,2.7-6.9,2.7-10.6c0-0.4,0-0.8-0.1-1.3c0-0.1,0-0.2,0-0.4h2.5c0,0,0,0,0,0c0.7,0,1.2-0.6,1.2-1.2v-6.3
		c0-0.3-0.1-0.6-0.4-0.9s-0.5-0.4-0.9-0.4h-2c-0.6-4.2-2.4-7.7-5.5-10.2c-2.2-1.9-5-3.2-8.3-4.1v-4.3c0-0.7-0.6-1.2-1.2-1.2h-7.4
		c0,0,0,0,0,0c-0.7,0-1.2,0.6-1.2,1.2v4.3c-3.3,0.8-6.1,2.2-8.3,4.1c-3,2.6-4.9,6-5.5,10.3h-2c0,0,0,0,0,0c-0.7,0-1.2,0.6-1.2,1.2
		v6.3c0,0.7,0.6,1.2,1.2,1.2h2.5c0,0.1,0,0.2,0,0.4c0,0.4-0.1,0.8-0.1,1.3c0,3.7,0.9,7.4,2.7,10.6c1.7,3.1,4.2,5.7,7.1,7.4l-5.6,2.4
		c-3.9,1.7-7.4,4.4-10,7.7c-2.6,3.4-4.3,7.4-4.9,11.6l-0.9,6.1c0,0.3,0,0.7,0.2,0.9c0.2,0.3,0.5,0.4,0.8,0.5c0.1,0,0.1,0,0.2,0h57.4
		c0.3,0,0.6-0.1,0.9-0.4c0.2-0.2,0.4-0.5,0.4-0.9C121,128.5,121,128.4,121,128.4z M87.4,72.8C87.4,72.8,87.4,72.8,87.4,72.8
		c0.7,0,1.2-0.6,1.2-1.2V54.9h4.9v16.8c0,0.7,0.6,1.2,1.2,1.2c0,0,0,0,0,0c0.3,0,0.6-0.1,0.9-0.4c0.2-0.2,0.4-0.5,0.4-0.9V60.4
		c4.8,1.3,10.7,4.7,11.4,13.2c0.1,0.6,0.6,1.1,1.2,1.1h1.9v3.8H71.6l0-3.8h1.9c0,0,0,0,0,0c0.6,0,1.2-0.5,1.2-1.1
		c0.7-8.5,6.6-11.8,11.4-13.2v11.2C86.2,72.3,86.7,72.8,87.4,72.8z M97.1,112.7c0-3.3-2.6-6-5.9-6c0,0-0.1,0-0.1,0
		c-3.3,0-5.9,2.6-6,5.9c0,0.1,0,0.1,0,0.2c0,1.6,0.7,3.2,1.8,4.3l-2,10.4H63.8l0.7-4.6c1.1-7.7,6.3-14.4,13.4-17.5l8.1-3.5
		c0.3-0.1,0.5-0.4,0.7-0.7c0.1-0.3,0.1-0.6,0-0.9c-0.1-0.3-0.4-0.5-0.7-0.7c-6.5-2.5-10.8-9.2-10.8-16.9c0-0.4,0-0.8,0.1-1.2
		c0-0.1,0-0.2,0-0.4h31.5c0,0.1,0,0.3,0,0.4c0,0.4,0.1,0.8,0.1,1.2c0,7.6-4.3,14.4-10.8,16.9c-0.6,0.2-1,1-0.7,1.6
		c0.1,0.3,0.4,0.6,0.7,0.7l8.1,3.5c7.2,3.1,12.3,9.8,13.4,17.5l0.7,4.6l-21.2,0l-2-10.4C96.4,115.9,97.1,114.3,97.1,112.7z
		 M89.5,116.7c0.1-0.5-0.1-0.9-0.5-1.2c-1.6-1.1-1.9-3.3-0.8-4.9c1.1-1.6,3.3-1.9,4.9-0.8c1.6,1.1,1.9,3.3,0.8,4.9
		c-0.2,0.3-0.5,0.5-0.8,0.8c-0.4,0.3-0.6,0.8-0.5,1.2l2,10.6l-7.2,0L89.5,116.7z"/>
	<path class="st0" d="M102.2,118.4h5.3c0,0,0,0,0,0c0.3,0,0.6-0.1,0.9-0.4c0.2-0.2,0.4-0.5,0.4-0.9s-0.1-0.6-0.4-0.9
		c-0.2-0.2-0.5-0.4-0.9-0.4h-5.3c-0.3,0-0.6,0.1-0.9,0.4c-0.2,0.2-0.4,0.5-0.4,0.9C100.9,117.9,101.5,118.4,102.2,118.4z"/>
</g>
</svg>
