<?xml version="1.0" encoding="utf-8"?>
<!-- Generator: Adobe Illustrator 22.1.0, SVG Export Plug-In . SVG Version: 6.00 Build 0)  -->
<svg version="1.1" id="Layer_1" xmlns="http://www.w3.org/2000/svg" xmlns:xlink="http://www.w3.org/1999/xlink" x="0px" y="0px"
	 viewBox="0 0 182.2 182.2" style="enable-background:new 0 0 182.2 182.2;" xml:space="preserve">
	<style type="text/css">
		.st0{fill:#112769;}
	</style>
	<g>
		<path class="st0" d="M131.2,80.7L116.3,66c-0.6-0.6-1.6-0.6-2.2,0l-0.8,0.8c-0.5,0.6-1.4,0.7-2,0.2l-3.9-3.9
			c-0.5-0.6-0.4-1.5,0.2-2.1l0.8-0.8c0.6-0.6,0.6-1.6,0-2.2l-5.1-5.1c-1-1-2.7-0.9-3.6,0.1l-8.7,8.7c-1,1-1.1,2.6-0.1,3.6l5.4,5.4
			c0.5,0.5,1.2,0.5,1.7,0l1.1-1.1c0.3-0.3,0.7-0.5,1.1-0.5c0.3,0,0.7,0.1,0.9,0.3l3.9,3.9c0.2,0.2,0.4,0.6,0.3,0.9
			c0,0.4-0.2,0.8-0.5,1.1l-1.1,1.1c-0.4,0.4-0.5,1-0.1,1.5L61,120.5c-1.6,1.6-1.6,4.1,0,5.7l2.6,2.6c0.8,0.8,1.8,1.2,2.8,1.2
			c1,0,2.1-0.4,2.8-1.2l42.5-42.5c0.4,0.2,0.8,0.3,1.2,0.1c3.7-2,8.5-1.1,11.8,2.2c1.9,1.9,3,4.4,3.2,7.1c0.1,1.6-0.3,3.3-1,4.7
			c-0.3,0.6-0.1,1.3,0.5,1.6c0.5,0.2,1,0.2,1.4-0.2l1.5-1.5c2.7-2.6,4.3-6.1,4.5-9.8C135,86.7,133.7,83.2,131.2,80.7z M110,84.6
			l-42.5,42.5c-0.6,0.6-1.7,0.7-2.3,0l-0.1-0.1h-0.1l-2.4-2.4c-0.7-0.7-0.7-1.7,0-2.4l42.5-42.5L110,84.6z M106.4,77.1
			c0.7-0.7,1.2-1.7,1.2-2.7c0.1-1-0.3-2-1-2.7l-3.9-3.9c-0.7-0.7-1.7-1.1-2.7-1c-1,0.1-2,0.5-2.7,1.2L97,68.2l-4.5-4.5
			c-0.1-0.1-0.1-0.2,0.1-0.3l8.7-8.7c0.1-0.1,0.2-0.1,0.3-0.1l4.5,4.5l-0.2,0.2c-1.5,1.4-1.6,3.8-0.2,5.4l4,4c1.5,1.4,4,1.3,5.4-0.2
			l0.2-0.2l14.3,14.1c2,2.1,3,4.9,2.8,7.8l0,0c-0.1,2.3-0.9,4.4-2.2,6.3c0-0.3,0-0.7,0-1c-0.2-3.3-1.5-6.3-3.9-8.6
			c-2.4-2.5-5.7-3.8-9.1-3.8c-1.6,0-3.1,0.3-4.6,0.9l-6.5-6.5L106.4,77.1z"/>
		<path class="st0" d="M62.5,87.5C62.5,87.5,62.5,87.5,62.5,87.5c0.4,0,0.8-0.1,1.2-0.2l14.4-6.3c0.3-0.1,0.6-0.3,0.8-0.6l3.8-3.8
			c1.2-1.3,1-3.4-0.3-4.5L66.9,56.5c-0.6-0.6-1.4-1-2.2-1.1c-0.9-0.1-1.7,0.2-2.3,0.8L48.2,70.4c-0.6,0.6-0.9,1.5-0.8,2.3
			c0.1,0.8,0.5,1.6,1.1,2.2l11.5,11.5C60.6,87.1,61.5,87.4,62.5,87.5z M49.5,72.5c0-0.2,0-0.5,0.2-0.7l14.1-14.2
			c0.2-0.1,0.3-0.2,0.6-0.2c0,0,0.1,0,0.1,0c0.4,0,0.7,0.2,1,0.5L81,73.4c0.5,0.4,0.6,1.1,0.3,1.6l-3.8,3.8c-0.1,0.1-0.1,0.1-0.2,0.1
			l-14.4,6.3c-0.5,0.2-1.1,0-1.5-0.4L50,73.5C49.7,73.2,49.5,72.8,49.5,72.5z"/>
		<path class="st0" d="M58.8,77.9c0.5,0.5,1.2,0.8,1.9,0.8c0,0,0,0,0,0c0.5,0,1-0.1,1.4-0.4l7.6-3.5l0.1,0c0.2-0.1,0.5-0.3,0.7-0.5
			l1.6-1.6c0.6-0.7,0.8-1.6,0.5-2.5c-0.2-0.7-0.6-1.4-1.1-1.9L66.2,63c-0.5-0.5-1.3-0.8-2-0.8c-0.8,0-1.5,0.3-2,0.9l-7.1,7.1
			c-1.1,1.1-1.2,2.9-0.1,4L58.8,77.9z M64.3,64.3C64.3,64.3,64.3,64.3,64.3,64.3c0.2,0,0.3,0.1,0.5,0.2l5.3,5.3
			c0.3,0.3,0.4,0.6,0.6,1c0.1,0.2,0.1,0.4,0,0.5L69,72.8c-0.1,0.1-0.1,0.1-0.2,0.2l-7.6,3.5c-0.3,0.2-0.7,0.2-0.9,0l-3.8-3.8
			c-0.3-0.3-0.2-0.8,0.1-1.1l7.1-7.1C63.8,64.4,64,64.3,64.3,64.3z"/>
		<path class="st0" d="M105.3,95.1c-0.4-0.4-1.1-0.4-1.5,0c-0.4,0.4-0.4,1,0,1.4l25.8,25.8c0,0,0,0.1,0,0.1l-3.6,3.6
			c-0.1,0.1-0.2,0.1-0.3,0.2l-6.3,0.9l-1.7-5.9c0-0.1,0-0.2-0.1-0.3c-0.1-0.4-0.2-0.9-0.6-1.2c-0.5-0.3-1.3-0.2-1.9,0
			c-0.2,0-0.3,0.1-0.4,0.1c-0.3,0-0.7,0.1-1.3,0.2c-1.3,0.2-3.5,0.5-4,0.6c-0.5-1.6-1.6-5.4-1.7-5.9c0-0.1,0-0.2-0.1-0.3
			c-0.1-0.4-0.2-0.9-0.6-1.2c-0.5-0.4-1.3-0.2-2,0c-0.2,0-0.3,0.1-0.4,0.1c-0.3,0-0.8,0.1-1.4,0.2c-1.3,0.2-3.4,0.5-3.9,0.6l-1.9-6.7
			c-0.1-0.5-0.6-0.8-1.1-0.7c0,0-0.1,0-4.3,0.6c-0.3,0-0.5,0.2-0.7,0.4c-0.2,0.2-0.2,0.5-0.2,0.8c0,0.3,0.2,0.5,0.4,0.7
			c0.2,0.2,0.5,0.3,0.8,0.2l3.4-0.5l1.8,6.2c0.2,0.7,0.8,1.1,1.6,1.1c0.1,0,0.1,0,0.2,0l6.5-1l1.8,6.4c0.2,0.7,0.8,1.1,1.6,1.1
			c0.1,0,0.1,0,0.2,0l6.5-1l1.8,6.3c0.2,0.7,0.8,1.1,1.5,1.1c0.1,0,0.1,0,0.2,0l6.7-1c0.6-0.1,1.1-0.3,1.5-0.7l3.6-3.6
			c0.8-0.8,0.8-2.2,0-3L105.3,95.1z"/>
		<path class="st0" d="M79.6,81.1L79.6,81.1l-13.3,6.1c-0.8,0.4-1.2,1.3-1,2.1l1.8,6.4c0.2,0.8,1,1.2,1.8,1.1l6.5-1l1.5,5.2
			c0.1,0.4,0.5,0.7,1,0.7c0.1,0,0.2,0,0.3,0c0.5-0.2,0.8-0.7,0.7-1.2l-1.7-5.9c-0.1-0.6-0.6-0.9-1.2-0.9l-7,1L67.4,89l13.1-6
			c0.3-0.1,0.5-0.3,0.7-0.5l4.2-4.3l7.8,7.8c0.2,0.2,0.4,0.3,0.7,0.3c0.3,0,0.5-0.1,0.7-0.3s0.3-0.4,0.3-0.7c0-0.3-0.1-0.5-0.3-0.8
			l-8-8c-0.3-0.3-0.8-0.5-1.3-0.5c0,0,0,0,0,0c-0.5,0-0.9,0.2-1.3,0.5L79.7,81C79.7,81.1,79.6,81.1,79.6,81.1z"/>
	</g>
</svg>
