<?xml version="1.0" encoding="utf-8"?>
<!-- Generator: Adobe Illustrator 22.1.0, SVG Export Plug-In . SVG Version: 6.00 Build 0)  -->
<svg version="1.1" id="Layer_1" xmlns="http://www.w3.org/2000/svg" xmlns:xlink="http://www.w3.org/1999/xlink" x="0px" y="0px"
	 viewBox="0 0 182.2 182.2" style="enable-background:new 0 0 182.2 182.2;" xml:space="preserve">
	<style type="text/css">
		.st0{fill:#112769;}
	</style>
	<g>
		<path class="st0" d="M135.3,70c-0.2-0.2-0.5-0.3-0.8-0.3l-4.1,0V56.8h4c0,0,0,0,0,0c0.6,0,1.2-0.5,1.2-1.2c0-0.6-0.5-1.2-1.2-1.2
			h-4.4c-0.4-0.8-1.1-1.5-2-1.8c-0.9-0.4-1.9-0.3-2.8,0.1c-1.1,0.5-1.9,1.5-2.2,2.7c-4.2-0.6-15.5-1.8-21.5-0.4
			c-2.2,0.5-21.4,5.2-20.5,13.7c0.1,1.3,0.6,2.1,1.4,2.6c1.8,1,4.9-0.6,7.2-1.8c5.1-2.7,15.3-5.4,20.3-3.6c-0.3,0.3-0.7,0.5-1.1,0.5
			c-2.3,0.6-7.9,2.5-9.4,5.4c-0.5,0.9-0.5,1.9-0.2,2.8c0.4,1.4,1.7,2.2,3.1,2.2c0.1,0,0.2,0,0.3,0c1.6-0.1,3.1-0.5,4.6-1
			c2.2-0.7,4.8-1.5,6.9-1c3.8,0.9,7.1-1.4,9-3.1c0,2,1.6,3.7,3.6,3.8c1,0,1.9-0.4,2.6-1c0.7-0.6,1-1.5,1.1-2.4h4
			c0.3,0,0.6-0.1,0.8-0.3c0.2-0.2,0.3-0.5,0.3-0.8C135.6,70.5,135.5,70.2,135.3,70z M123,68.2c-0.8,1-4.6,5.1-8.5,4.2h0
			c-2.7-0.6-5.5,0.3-8.1,1.1c-3.4,1.1-4.6,1.3-5,0.2c-0.1-0.3-0.1-0.6,0.1-0.9c1-1.9,5.5-3.5,8.1-4.2c2.1-0.6,3-2,2.9-3
			c-0.1-0.9-0.8-1.7-1.7-2c-1.4-0.5-3-0.7-4.8-0.7c-5.9,0-13.3,2.3-17.4,4.4c-2.2,1.1-4.3,2.2-4.8,1.9c-0.2-0.1-0.2-0.3-0.3-0.8
			c-0.5-4.9,11.2-9.4,18.7-11.1c5.5-1.3,17-0.1,20.9,0.5V68.2z M128.1,71.6c0,0.8-0.6,1.4-1.4,1.4s-1.4-0.6-1.4-1.4V56.1
			c0-0.8,0.6-1.4,1.4-1.4s1.4,0.6,1.4,1.4V71.6z"/>
		<path class="st0" d="M104.9,93.8H93.1L93,93.8c-0.8,0.6-1.8,0.6-2.6,0l-0.1-0.1H78.2c0-0.1,0-0.2,0-0.3v-5.8c0.1,0,0.2,0,0.3,0
			h26.4c1.5,0,2.6-1.2,2.6-2.6v-6.9c0-0.6-0.5-1.2-1.2-1.2h0c-0.6,0-1.2,0.5-1.2,1.2v6.9c0,0.2-0.1,0.3-0.3,0.3H78.5
			c-0.2,0-0.3-0.1-0.3-0.3V71.2c0-0.2,0.1-0.3,0.3-0.3c0.6,0,1.2-0.5,1.2-1.2s-0.5-1.2-1.2-1.2c-1.5,0-2.6,1.2-2.6,2.6V77
			c-0.1,0-0.2,0-0.3,0H49.2c-1.5,0-2.6,1.2-2.6,2.6v14l0.1,0.1c0.6,0.8,0.6,1.8,0,2.6l-0.1,0.1v14.1l0.1,0.1c0.6,0.8,0.6,1.8,0,2.6
			l-0.1,0.1v14c0,1.5,1.2,2.6,2.6,2.6h26.5l0.1-0.1c0.8-0.6,1.8-0.6,2.6,0l0.1,0.1h26.5c1.5,0,2.6-1.2,2.6-2.6v-14l-0.1-0.1
			c-0.6-0.8-0.6-1.8,0-2.6l0.1-0.1v-14C107.5,95,106.3,93.8,104.9,93.8z M92.9,96.4c0-0.2,0.1-0.3,0.3-0.3l0.2,0h11.5
			c0.2,0,0.3,0.1,0.3,0.3v13.9c0,0.2-0.1,0.3-0.3,0.3H93.1c-0.2,0-0.3-0.1-0.3-0.3V96.4z M48.9,79.6c0-0.2,0.1-0.3,0.3-0.3h26.4
			c0.2,0,0.3,0.1,0.3,0.3v13.9c0,0.2-0.1,0.3-0.3,0.3l-26.4,0h0c-0.2,0-0.3-0.1-0.3-0.3V79.6z M48.9,96.4c0-0.1,0.1-0.3,0.3-0.3h11.7
			c0.2,0,0.3,0.1,0.3,0.3v13.9c0,0.2-0.1,0.3-0.3,0.3H49.2c-0.2,0-0.3-0.1-0.3-0.3V96.4z M75.6,127.4H49.2c-0.2,0-0.3-0.1-0.3-0.3
			v-13.9c0-0.2,0.1-0.3,0.3-0.3h26.4c0.2,0,0.3,0.1,0.3,0.3l0,13.9C75.8,127.3,75.7,127.4,75.6,127.4z M63.8,110.6
			c-0.2,0-0.3-0.1-0.3-0.3V96.4c0-0.2,0.1-0.3,0.3-0.3h26.4c0.2,0,0.3,0.1,0.3,0.3v13.9c0,0.2-0.1,0.3-0.3,0.3L63.8,110.6z
			M105.2,127.1c0,0.2-0.1,0.3-0.3,0.3H78.5c-0.2,0-0.3-0.1-0.3-0.3v-13.9c0-0.2,0.1-0.3,0.3-0.3h26.4c0.2,0,0.3,0.1,0.3,0.3
			L105.2,127.1z"/>
		<path class="st0" d="M97.6,70.9c0.6,0,1.2-0.5,1.2-1.2s-0.5-1.2-1.2-1.2h-4.3c-0.6,0-1.2,0.5-1.2,1.2s0.5,1.2,1.2,1.2H97.6z"/>
	</g>
</svg>
