<svg xmlns="http://www.w3.org/2000/svg" width="20.879" height="21.19" viewBox="0 0 20.879 21.19"><defs><style>.a{fill:#0d2f68;stroke:#0e306a;stroke-width:0.4px;}</style></defs><g transform="translate(-552.353 -620.063)"><path class="a" d="M572.727,625.183a1.686,1.686,0,0,0-1.411-.584h-2.133a4.621,4.621,0,0,0-9.224,0h-3.052l-.417-1.638a.537.537,0,0,0-.257-.368l-2.957-1.706a.494.494,0,0,0-.7.588.488.488,0,0,0,.239.287l2.753,1.589.818,3.213,1.8,7.159a1.167,1.167,0,0,0,.036.119,1.771,1.771,0,0,0,.693,3.4l11.625,0a.486.486,0,0,0,0-.973H558.913a.8.8,0,1,1,0-1.594h11.055a1.249,1.249,0,0,0,1.173-.949l1.827-7.158A1.589,1.589,0,0,0,572.727,625.183Zm-8.156-3.953a3.654,3.654,0,1,1-3.654,3.654A3.658,3.658,0,0,1,564.571,621.23Zm7.451,5.106-1.827,7.158a.287.287,0,0,1-.226.208H559.356a.287.287,0,0,1-.225-.208l-1.964-7.919H560a4.622,4.622,0,0,0,9.14,0h2.175a.838.838,0,0,1,.645.212A.647.647,0,0,1,572.023,626.336Z" transform="translate(0 0)"/><path class="a" d="M920.985,734.615a.422.422,0,0,0,.324.15h.012a.423.423,0,0,0,.318-.143l2.31-2.62a.425.425,0,0,0-.64-.561l-1.982,2.246-.99-1.219a.425.425,0,0,0-.653.545Z" transform="translate(-357.064 -108.019)"/><g transform="translate(558.664 637.665)"><path class="a" d="M779.182,1261.013a1.694,1.694,0,1,0,1.694,1.694A1.7,1.7,0,0,0,779.182,1261.013Zm0,2.652a.958.958,0,1,1,.958-.958A.959.959,0,0,1,779.182,1263.665Z" transform="translate(-777.488 -1261.013)"/><path class="a" d="M1057.836,1261.013a1.694,1.694,0,1,0,1.694,1.694A1.7,1.7,0,0,0,1057.836,1261.013Zm0,2.652a.958.958,0,1,1,.958-.958A.959.959,0,0,1,1057.836,1263.665Z" transform="translate(-1048.574 -1261.013)"/><path class="a" d="M921.574,1311.085h-2.62a.334.334,0,0,0,0,.667h2.62a.334.334,0,0,0,0-.667Z" transform="translate(-914.787 -1309.725)"/></g></g></svg>