<svg xmlns="http://www.w3.org/2000/svg" width="24.739" height="17.923" viewBox="0 0 24.739 17.923"><defs><style>.a{fill:#10296a;}</style></defs><g transform="translate(-663 -274.857)"><path class="a" d="M687.136,373.083a2.624,2.624,0,0,1-3.4,0l-2.142-1.816-7.275,7.275h22.24l-7.275-7.275Z" transform="translate(-10.065 -85.762)"/><path class="a" d="M829.23,319.091V305.84l-7.172,6.079Z" transform="translate(-141.491 -27.561)"/><path class="a" d="M663,305.84v13.252l7.172-7.172Z" transform="translate(0 -27.561)"/><path class="a" d="M686.823,274.857H663.916a.917.917,0,0,0-.916.916v.19l.483.409,11.327,9.6a.863.863,0,0,0,1.12,0l11.326-9.6.483-.409v-.19A.917.917,0,0,0,686.823,274.857Z"/></g></svg>