<svg xmlns="http://www.w3.org/2000/svg" width="34.024" height="35.143" viewBox="0 0 34.024 35.143"><defs><style>.a{fill:#102b6b;}</style></defs><path class="a" d="M221.372-38.575l14.051,14.05h-28.1Zm15.528-5.1V-26L222.85-40.052l2.807-2.807-.161-.2c-.38-.464-.773-.942-1.151-1.447L205.845-26V-54.883a.7.7,0,0,1,.7-.7h16.913a8.92,8.92,0,0,1,7.492-4.088,8.932,8.932,0,0,1,8.922,8.922c0,3.106-1.487,5.236-2.969,7.073Zm-17.357-4.793h-5.161V-46.5h3.04a3.2,3.2,0,0,1-3.04,2.212,3.2,3.2,0,0,1-3.195-3.195,3.2,3.2,0,0,1,3.195-3.195,3.164,3.164,0,0,1,1.947.661l1.2-1.558a5.111,5.111,0,0,0-3.146-1.069,5.166,5.166,0,0,0-5.16,5.16,5.166,5.166,0,0,0,5.16,5.161,5.167,5.167,0,0,0,5.161-5.161Zm18.237-2.28a6.833,6.833,0,0,0-6.833-6.833,6.833,6.833,0,0,0-6.832,6.833c0,5.673,6.414,7.3,6.414,14.056h.837c0-6.758,6.414-8.384,6.414-14.056Zm-6.833-3.125a2.663,2.663,0,0,0-2.663,2.662,2.663,2.663,0,0,0,2.663,2.663,2.663,2.663,0,0,0,2.663-2.663,2.663,2.663,0,0,0-2.663-2.662Zm0,0" transform="translate(-205.845 59.667)"/></svg>