<?xml version="1.0" encoding="utf-8"?>
<!-- Generator: Adobe Illustrator 22.1.0, SVG Export Plug-In . SVG Version: 6.00 Build 0)  -->
<svg version="1.1" id="Layer_1" xmlns="http://www.w3.org/2000/svg" xmlns:xlink="http://www.w3.org/1999/xlink" x="0px" y="0px"
	 viewBox="0 0 182.2 182.2" style="enable-background:new 0 0 182.2 182.2;" xml:space="preserve">
	<style type="text/css">
		.st0{fill:#112769;}
	</style>
	<g>
		<polygon class="st0" points="103,108.9 103,108.9 103,108.9 	"/>
		<path class="st0" d="M97.5,94.4c-1.8-1.3-3.9-2.1-6.1-2.5l-1.9-0.3l1.9-0.6c0.3-0.1,0.6-0.2,0.9-0.3c4.5-1.9,6.6-7.1,4.7-11.5
			c-1.9-4.5-7.1-6.6-11.5-4.7c-4.5,1.9-6.6,7.1-4.7,11.5c1,2.5,3.1,4.3,5.6,5l1.9,0.5l-1.9,0.3c-1.2,0.2-2.3,0.5-3.4,1
			c-2.7,1.2-5,3.2-6.7,5.7c-1.7,2.6-2.6,5.6-2.6,8.7c0,0.6,0.5,1.1,1.1,1.1h28.2l0.1,0l0.1,0c0.6,0,1.1-0.5,1.1-1.1
			c0-2.1-0.4-4.1-1.2-6.1C101.8,98.5,99.9,96.1,97.5,94.4z M86.2,88.7c-1.2-0.5-2.2-1.3-2.9-2.4l0,0c-1.2-1.9-1.5-4.2-0.6-6.2
			c0.5-1.2,1.3-2.2,2.4-2.9c1.9-1.2,4.2-1.5,6.2-0.6c1.2,0.5,2.2,1.3,2.9,2.4c1.2,1.9,1.5,4.2,0.6,6.2c-0.5,1.2-1.3,2.2-2.4,2.9
			c-1.1,0.7-2.4,1.1-3.7,1.1C87.9,89.2,87,89,86.2,88.7z M75.8,106.2l0.1-0.5c0.1-1.2,0.5-2.5,0.9-3.6c1-2.4,2.6-4.4,4.7-5.9
			c2.1-1.5,4.6-2.3,7.2-2.3h0c0.1,0,0.2,0,0.2,0h0c1.7,0,3.4,0.4,5,1.1c2.3,1,4.3,2.7,5.7,4.9c1.2,1.8,1.9,3.8,2.1,5.9l0.1,0.5
			L75.8,106.2z"/>
		<path class="st0" d="M131.2,61c-0.2-0.2-0.6-0.4-0.9-0.4h-9.8v-7.2c0-1.8-1.5-3.3-3.3-3.3H60.5c-1.8,0-3.3,1.5-3.3,3.3v8.4h-2.4
			c-2.3,0-4.2,1.9-4.1,4.3c0,2.3,1.9,4.1,4.1,4.1h2.4v8.3h-2.4c-2.3,0-4.2,1.9-4.1,4.3c0,2.3,1.9,4.1,4.1,4.1h2.4v8.3h-2.4
			c-2.3,0-4.2,1.9-4.2,4.2s1.9,4.2,4.2,4.2h2.4v8.3h-2.4c-2.3,0-4.2,1.9-4.2,4.2s1.9,4.2,4.2,4.2h2.4v8.4c0,1.8,1.5,3.3,3.3,3.3h56.7
			c1.8,0,3.3-1.5,3.3-3.3v-20.1h9.8c0.7,0,1.3-0.6,1.3-1.3V61.9C131.6,61.6,131.5,61.2,131.2,61z M55.1,67.2c-0.8,0-1.5-0.7-1.5-1.5
			s0.7-1.5,1.5-1.5h6.8c0.8,0,1.5,0.7,1.5,1.5s-0.7,1.5-1.5,1.5H55.1z M55.1,84.2c-0.8,0-1.5-0.7-1.5-1.5c0-0.8,0.7-1.5,1.5-1.5h6.8
			c0.8,0,1.5,0.7,1.5,1.5c0,0.8-0.7,1.5-1.5,1.5H55.1z M55.1,101c-0.8,0-1.5-0.7-1.5-1.5c0-0.8,0.7-1.5,1.5-1.5h6.8
			c0.8,0,1.5,0.7,1.5,1.5c0,0.8-0.7,1.5-1.5,1.5H55.1z M55.1,117.6c-0.8,0-1.5-0.7-1.5-1.5s0.7-1.5,1.5-1.5h6.8
			c0.8,0,1.5,0.7,1.5,1.5s-0.7,1.5-1.5,1.5H55.1z M118.1,128.8c0,0.5-0.4,0.8-0.8,0.8H60.5c-0.5,0-0.8-0.4-0.8-0.8v-8.4h2.4
			c2.3,0,4.2-1.9,4.2-4.2s-1.9-4.2-4.2-4.2h-2.4v-8.3h2.4c2.3,0,4.2-1.9,4.2-4.2s-1.9-4.2-4.2-4.2h-2.4v-8.3h2.4
			c2.3,0,4.2-1.9,4.1-4.3c0-2.3-1.9-4.1-4.1-4.1h-2.4v-8.3h2.4c2.3,0,4.2-1.9,4.1-4.3c0-2.3-1.9-4.1-4.1-4.1h-2.4v-8.4
			c0-0.5,0.4-0.8,0.8-0.8h56.7c0.5,0,0.8,0.4,0.8,0.8L118.1,128.8z M129.1,106.2h-8.5v-8.9h8.5V106.2z M129.1,94.8h-8.5v-8.9h8.5
			V94.8z M129.1,83.4h-8.5v-8.9h8.5V83.4z M129.1,72h-8.5v-8.9h8.5V72z"/>
	</g>
</svg>
