<?xml version="1.0" encoding="utf-8"?>
<!-- Generator: Adobe Illustrator 22.1.0, SVG Export Plug-In . SVG Version: 6.00 Build 0)  -->
<svg version="1.1" id="Layer_1" xmlns="http://www.w3.org/2000/svg" xmlns:xlink="http://www.w3.org/1999/xlink" x="0px" y="0px"
	 viewBox="0 0 182.2 182.2" style="enable-background:new 0 0 182.2 182.2;" xml:space="preserve">
	<style type="text/css">
		.st0{fill:#FFFFFF;}
	</style>
	<g>
		<path class="st0" d="M141.5,120.5L141.5,120.5l-7.8-28.3c0-0.1,0-0.1-0.1-0.2c-1.2-2.4-3.7-3.8-6.4-3.8h-18.7l3.4-5.9
			c5.4-9.4,2.2-21.3-7.2-26.8c-3-1.7-6.4-2.6-9.8-2.6c-10.8,0-19.6,8.8-19.6,19.6c0,3.4,0.9,6.8,2.6,9.8l3.4,5.9H54.9
			c-2.7-0.1-5.1,1.4-6.4,3.8c0,0.1-0.1,0.1-0.1,0.2l-7.8,28.3c-1.3,3.2,0.2,6.9,3.4,8.3c0.8,0.3,1.6,0.5,2.4,0.5h89.1
			c3.5,0,6.3-2.8,6.3-6.3C142,122.1,141.8,121.3,141.5,120.5z M80.2,81.1c-4.8-8.2-1.9-18.8,6.3-23.5c8.2-4.8,18.8-1.9,23.5,6.3
			c3.1,5.3,3.1,11.9,0,17.2l-14.9,25.8L80.2,81.1z M77,103.6h5.1c0.7,0,1.2-0.5,1.2-1.2c0-0.7-0.5-1.2-1.2-1.2h-5L78,90.6h5
			l11.1,19.3c0.3,0.6,1.1,0.8,1.6,0.4c0.2-0.1,0.3-0.3,0.4-0.4l11.1-19.3h20c1.7-0.1,3.3,0.9,4.2,2.4l6.3,23h-19.7l-0.8-14.4h7.2
			c0.7,0,1.2-0.5,1.2-1.2c0-0.7-0.5-1.2-1.2-1.2h-7.3l-0.2-2.7c0-0.7-0.6-1.1-1.3-1.1c-0.6,0-1.1,0.6-1.1,1.2l0.7,12h-6.8
			c-0.7,0-1.2,0.5-1.2,1.2c0,0.7,0.5,1.2,1.2,1.2c0,0,0,0,0,0h7l0.3,5H76.1L77,103.6z M75.6,90.6L73.7,116H59l4.8-25.4H75.6z
			M46.5,126.9c-2.2,0-4-1.8-4-4c0-0.5,0.1-1.1,0.3-1.6c0-0.1,0-0.1,0.1-0.2l7.7-28.3c0.9-1.5,2.5-2.4,4.2-2.4h6.5l-6.8,36.3H46.5z
			M139,125.1c-0.7,1.1-2,1.8-3.3,1.8H57l1.6-8.6h34.7v6.1c0,0.7,0.5,1.2,1.2,1.2c0.7,0,1.2-0.5,1.2-1.2c0,0,0,0,0,0v-0.7h5.7
			c0.7,0,1.2-0.5,1.2-1.2c0-0.7-0.5-1.2-1.2-1.2c0,0,0,0,0,0h-5.7v-3.1h42.8l0.8,2.9c0,0.1,0,0.1,0.1,0.2
			C139.8,122.6,139.7,124,139,125.1L139,125.1z"/>
		<path class="st0" d="M106,72c0-6-4.9-10.9-10.9-10.9S84.3,66,84.3,72c0,6,4.9,10.9,10.9,10.9C101.1,82.9,106,78,106,72z M86.6,72
			L86.6,72c0-4.7,3.8-8.5,8.5-8.5s8.5,3.8,8.5,8.5c0,4.7-3.8,8.5-8.5,8.5C90.4,80.5,86.6,76.7,86.6,72z"/>
	</g>
</svg>
