<?xml version="1.0" encoding="utf-8"?>
<!-- Generator: Adobe Illustrator 22.1.0, SVG Export Plug-In . SVG Version: 6.00 Build 0)  -->
<svg version="1.1" id="Layer_1" xmlns="http://www.w3.org/2000/svg" xmlns:xlink="http://www.w3.org/1999/xlink" x="0px" y="0px"
	 viewBox="0 0 182.2 182.2" style="enable-background:new 0 0 182.2 182.2;" xml:space="preserve">
	<style type="text/css">
		.st0{fill:#FFFFFF;}
	</style>
	<path class="st0" d="M147.1,87.8l-0.1-0.1l0,0l-20.1-32.1c-1.1-1.7-3.4-2.3-5.1-1.2l-6.7,4.2c-1.7,1.1-2.3,3.4-1.2,5.1l1.1,1.7
		c-1.8,0.4-3.6,0.5-5.5,0.2c-1.5-0.2-2.9-0.6-4.3-1l-0.1,0c-0.8-0.2-1.6-0.5-2.4-0.7c-2.4-0.6-5-0.8-7.5-0.6
		c-2.5,0.1-5.1,0.4-7.5,0.8l0,0c-0.5,0.1-1,0.1-1.5,0.2c-0.9,0.1-1.8,0.2-2.7,0.2c-2.7,0.1-5.6,0.3-8,2.3c-1.6-1.7-3.7-2.7-6-2.9
		c-0.4,0-0.8,0-1.1,0c0.9-1.7,0.4-3.9-1.3-4.9l-6.7-4.2c-1.7-1.1-4-0.6-5.1,1.2L35.1,88.3c-0.5,0.8-0.7,1.8-0.5,2.8s0.8,1.8,1.7,2.3
		l6.7,4.2c1.7,1.1,4,0.6,5.1-1.1c0.7,0.9,1.5,1.8,2.4,2.6c0.7,0.6,1.3,1.2,1.8,1.5l-1.3,1.6c-2,2.6-1.6,6.3,1,8.3
		c1,0.8,2.3,1.3,3.6,1.3c0.1,0,0.2,0,0.4,0c-0.7,2.4,0.1,4.9,2.1,6.4c1.1,0.8,2.4,1.3,3.7,1.3c0,0,0,0,0,0c0.9,0,1.7-0.2,2.5-0.5
		c0.4,2.9,2.9,5.2,5.9,5.2c0.8,0,1.5-0.1,2.2-0.4c0.2,1.4,0.9,2.6,2,3.5c1,0.8,2.2,1.2,3.4,1.2c1.6,0,3.3-0.7,4.3-2.1l2-2.6
		c1.9,1.5,4.1,2.7,6.5,3.5c1.5,0.5,3,0.8,4.6,0.8c0.8,0,1.7-0.1,2.5-0.2c2.8-0.6,4.8-2,5.5-3.9c0-0.1,0.1-0.3,0.1-0.4
		c0.1-0.5,0.2-1.1,0.1-1.6h0.2c0,0,0.1,0,0.1,0c1.7,0,3.4-0.5,4.8-1.5c1-0.7,1.8-1.7,2.3-2.9c0.3-0.8,0.3-1.6,0.2-2.4
		c0.2,0,0.4,0,0.6,0c1.8,0,4.1-0.4,5.3-2.4c0.8-1.2,1.2-2.6,1-4c0.2,0,0.4,0,0.6,0h0.1c0.1,0,0.2,0,0.3,0c2.4,0,4.6-1.2,5.9-3.2
		c0.9-1.2,1.4-2.7,1.4-4.2c-0.1-0.5-0.2-1.1-0.5-1.5c0.7-0.2,1.5-0.4,2.2-0.6c2.2-0.8,4.2-2.2,5.8-4l0.6,0.9c1.1,1.7,3.4,2.3,5.1,1.2
		l6.7-4.2c0.8-0.5,1.4-1.4,1.7-2.3S147.7,88.7,147.1,87.8z M144.6,90.9L144.6,90.9l-6.7,4.2c-0.6,0.4-1.3,0.2-1.7-0.4L116,62.4
		c-0.2-0.3-0.2-0.6-0.2-0.9c0.1-0.3,0.3-0.6,0.5-0.8l6.7-4.2c0.6-0.4,1.4-0.2,1.7,0.4L145,89.2C145.4,89.8,145.2,90.5,144.6,90.9z
		M122.6,104L122.6,104c-0.9,1.3-2.3,2.1-3.9,2.1c-0.1,0-0.2,0-0.3,0h0c-0.9,0-1.8-0.2-2.7-0.4c-0.4-0.3-0.9-0.6-1.4-0.9
		c-2.6-1.5-12.3-7.4-14.2-8.6l-0.1,0C99.9,96,99.5,96,99.2,96c-0.3,0.1-0.6,0.3-0.8,0.6c-0.4,0.6-0.2,1.3,0.4,1.7l0,0
		c1.9,1.2,11.6,7.2,14.3,8.7c1.3,0.7,2,1.4,2.1,2c0.1,0.9-0.1,1.7-0.7,2.4c-1.1,1.8-4.8,1.1-5.3,1c-0.6-0.5-1.3-1-2-1.4
		c-4.2-2.3-10.8-5.8-12.1-6.5l0,0c-0.3-0.2-0.6-0.2-0.9-0.1c-0.3,0.1-0.6,0.3-0.7,0.6c-0.3,0.6-0.1,1.4,0.5,1.7l0,0
		c1.3,0.7,7.9,4.2,12,6.5c0.8,0.4,1.5,1,2,1.7c0.8,1.3-0.2,2.8-1.2,3.5c-1.3,0.8-2.8,1.2-4.2,1c-0.4,0-0.9-0.1-1.3-0.2
		c-0.1-0.1-0.2-0.1-0.3-0.2l-8.8-4.2c-0.6-0.3-1.4,0-1.7,0.6c-0.3,0.6,0,1.4,0.6,1.7l8.8,4.2c0,0,0.1,0,0.1,0.1c0,0,0.1,0.1,0.1,0.1
		c0.5,0.3,0.7,0.9,0.5,1.5c0,0.1,0,0.1-0.1,0.2c-0.6,1.5-2.5,2.1-3.7,2.4c-1.9,0.4-3.9,0.2-5.7-0.5c-2.1-0.7-4.1-1.8-5.8-3.2l0.7-0.9
		c0.9-1.2,1.3-2.6,1.1-4.1s-0.9-2.8-2.1-3.7c-1-0.8-2.2-1.2-3.4-1.2c-0.1,0-0.2,0-0.3,0c0.6-3.2-1.4-6.3-4.6-6.9
		c-0.6-0.1-1.1-0.1-1.7-0.1c0.8-3.2-1.2-6.5-4.4-7.3c-2.3-0.6-4.8,0.3-6.3,2.1l-0.7,0.9c-0.9-3.1-4.2-4.9-7.3-4.1
		c-1.2,0.3-2.3,1-3.1,2c-1.8-1.5-3.8-3.4-4.1-4.5l0,0l17.1-27.4c0.1,0,0.1-0.1,0.1-0.1c0.9-0.2,1.7-0.3,2.6-0.2
		c1.7,0.2,3.2,0.9,4.4,2.2c-0.9,1.2-1.8,2.5-2.5,3.8l0,0c-0.5,0.8-0.9,1.5-1.4,2.3c-1,1.5-1.9,3.1-2.6,4.7c-0.1,0.1-0.1,0.3-0.2,0.4
		c-0.7,1.4-1,3-1,4.5c0.1,1.2,0.9,2.1,2,2.6c1.9,0.8,4.1,0,5.8-0.5l0.2-0.1c2.3-0.8,4.3-2,6.1-3.6c0.6-0.6,1.3-1.2,1.8-1.9
		c0.5-0.6,1.1-1.2,1.7-1.7c1.6-1.5,3.8-2,5.9-1.2c5.2,1.6,10,5.1,14.7,8.4l1,0.7c1.9,1.3,3.7,2.8,5.5,4.1l0.1,0.1
		c2.3,1.8,4.8,3.7,7.2,5.4c0.3,0.2,0.7,0.5,1,0.7c1.2,0.8,2.3,1.6,3.3,2.4C123.8,101,124.2,101.7,122.6,104z M58.9,111.2l7.8-10
		c0.6-0.7,1.4-1.2,2.4-1.4c0.1,0,0.3,0,0.4,0c1,0,1.9,0.4,2.5,1.1c0.7,0.7,1,1.6,1,2.5c0,0.8-0.3,1.6-0.8,2.2l-7.8,10
		c-1.2,1.6-3.5,1.8-5,0.6l0,0h0l0,0C58,115,57.7,112.8,58.9,111.2z M52.8,103.7l2.8-3.5c0.6-0.7,1.4-1.2,2.3-1.3c0.1,0,0.3,0,0.4,0
		c0.9,0,1.8,0.4,2.4,1c0.7,0.7,1,1.5,1,2.5c0,0.8-0.3,1.5-0.7,2.1l-2.8,3.5c-1.2,1.5-3.4,1.8-4.9,0.6
		C51.9,107.4,51.6,105.2,52.8,103.7z M67.4,116l5.8-7.4c1.1-1.5,3.3-1.9,4.8-0.7c1.5,1.1,1.9,3.3,0.7,4.8c0,0.1-0.1,0.1-0.1,0.2
		l-0.3,0.4c-0.2,0.2-0.5,0.5-0.7,0.7l-4.2,5.4c-0.2,0.3-0.4,0.5-0.5,0.8l0,0c-0.6,0.7-1.4,1.2-2.3,1.3c-0.9,0.1-1.8-0.1-2.5-0.7
		l-0.1,0l0,0C66.5,119.7,66.2,117.5,67.4,116z M120.5,95.3l-1-0.7c-2.4-1.7-4.8-3.5-7.1-5.3l-0.1,0c-1.8-1.4-3.7-2.9-5.6-4.2l-1-0.7
		c-4.6-3.3-9.8-7.1-15.4-8.8c-0.9-0.3-1.8-0.4-2.7-0.4c-2,0-4,0.8-5.5,2.2c-0.7,0.6-1.3,1.3-1.9,2c-0.5,0.6-1,1.2-1.6,1.7
		c-1.5,1.4-3.3,2.4-5.3,3.1l-0.2,0.1c-1.3,0.4-3,1-4.1,0.6c-0.2-0.1-0.4-0.3-0.4-0.6c0-1.1,0.3-2.3,0.8-3.3c0.1-0.2,0.1-0.3,0.2-0.4
		c0.6-1.5,1.4-2.9,2.3-4.3c0.5-0.8,1-1.6,1.5-2.4c0.8-1.5,1.8-3,3-4.3c0.1-0.1,0.2-0.2,0.4-0.4c1.9-1.8,4.2-1.9,6.9-2l0.1,0
		c0.9,0,1.8-0.1,2.8-0.2l1.5-0.2c2.4-0.3,4.9-0.7,7.3-0.8c2.3-0.1,4.6,0.1,6.8,0.6c0.8,0.2,1.7,0.5,2.4,0.7c1.5,0.5,3.1,0.9,4.7,1.1
		c2.4,0.4,4.9,0.2,7.2-0.5l15.8,25.2c-2.6,3.6-6.8,4.5-8.5,4.7C122.8,96.9,121.8,96.2,120.5,95.3z M84.3,119.3l-4.2,5.4
		c-1,1.3-2.9,1.5-4.2,0.5c-1.1-0.9-1.5-2.4-0.9-3.6l5.1-6.6c0.6-0.4,1.2-0.7,1.9-0.7c0.9,0,1.8,0.4,2.4,1.1
		C85.2,116.6,85.2,118.1,84.3,119.3z M37.5,91.3c-0.3-0.2-0.5-0.5-0.6-0.8c-0.1-0.3,0-0.6,0.1-0.9l0,0v0l20.2-32.2
		c0.2-0.3,0.5-0.5,0.8-0.6c0.3-0.1,0.6,0,0.9,0.1l0,0h0l6.7,4.2c0.6,0.4,0.8,1.1,0.4,1.7L45.9,95.1c-0.4,0.6-1.1,0.8-1.7,0.4
		L37.5,91.3z"/>
</svg>
