<?xml version="1.0" encoding="utf-8"?>
<!-- Generator: Adobe Illustrator 22.1.0, SVG Export Plug-In . SVG Version: 6.00 Build 0)  -->
<svg version="1.1" id="Layer_1" xmlns="http://www.w3.org/2000/svg" xmlns:xlink="http://www.w3.org/1999/xlink" x="0px" y="0px"
	 viewBox="0 0 182.2 182.2" style="enable-background:new 0 0 182.2 182.2;" xml:space="preserve">
	<style type="text/css">
		.st0{fill:#112769;}
	</style>
	<g>
		<path class="st0" d="M129.5,74.9c-2.1-5-5.1-9.4-8.9-13.2c-3.8-3.8-8.3-6.8-13.2-8.9c-5.1-2.2-10.6-3.3-16.1-3.3c0,0-0.1,0-0.1,0
			c-5.6,0-11,1.1-16.1,3.3c-5,2.1-9.4,5.1-13.2,8.9c-3.8,3.8-6.8,8.3-8.9,13.2c-2.2,5.1-3.3,10.6-3.3,16.2c0,5.6,1.1,11,3.3,16.2
			c2.1,5,5.1,9.4,8.9,13.2c3.8,3.8,8.3,6.8,13.2,8.9c5.1,2.2,10.6,3.3,16.1,3.3c0,0,0.1,0,0.1,0c5.6,0,11-1.1,16.1-3.3
			c5-2.1,9.4-5.1,13.2-8.9c3.8-3.8,6.8-8.3,8.9-13.2c2.2-5.2,3.3-10.6,3.3-16.2C132.8,85.5,131.7,80,129.5,74.9z M91.1,130.3
			c-21.6,0-39.1-17.6-39.2-39.2C51.9,69.5,69.5,52,91,51.9l0.1,0c21.6,0,39.1,17.6,39.2,39.2C130.2,112.7,112.7,130.2,91.1,130.3z"/>
		<path class="st0" d="M100.7,97.3c-0.2,0-0.4,0-0.6,0.1c-1.6,0.9-3.1,2.1-4.1,3.7c-5.9-2.7-12.9-9.6-15-14.9
			c1.6-1.1,2.8-2.5,3.7-4.2c0.1-0.2,0.1-0.4,0.1-0.6c-0.1-1.5-2.1-11.7-5.7-14.6c-0.8-0.7-1.8-0.9-2.8-0.7c-3.6,0.8-6.3,2.3-8.1,4.4
			c-1.7,2.2-2.4,4.9-2.1,7.7c0.2,3.5,1.7,7.6,4.4,12c2.7,4.3,5.9,8.4,9.5,12c3.6,3.6,7.6,6.8,12,9.5c4.4,2.6,8.5,4.1,12,4.4
			c0.4,0,0.7,0,1,0c0.1,0,0.2,0,0.3,0c2.3,0,4.5-0.8,6.3-2.1c2.2-1.7,3.7-4.4,4.4-8.1c0.2-1-0.1-2-0.7-2.8
			C112.4,99.4,102.2,97.4,100.7,97.3z M113.5,105.4c-1.2,5.8-4.4,8.5-9.5,8.2c-6.1-0.4-14.7-5.4-22.4-13.1
			C74.1,92.8,69,84.2,68.6,78.1c-0.4-5.1,2.4-8.2,8.2-9.5c0,0,0.1,0,0.1,0c0.2,0,0.5,0.1,0.6,0.3c1.1,0.8,2.3,3.2,3.3,6.4
			c0.6,2,1.1,4,1.4,6c-0.8,1.4-2,2.5-3.4,3.3c-0.6,0.3-0.9,0.9-0.7,1.5c0.9,3.1,3.5,6.9,7.1,10.5c3.1,3.2,6.7,5.7,10.8,7.4
			c0.6,0.2,1.3-0.1,1.6-0.7c0.7-1.4,1.9-2.6,3.3-3.4c2,0.3,4,0.8,6,1.4c3.2,1,5.6,2.2,6.4,3.3C113.6,105,113.6,105.3,113.5,105.4z"/>
	</g>
</svg>
