<?xml version="1.0" encoding="utf-8"?>
<!-- Generator: Adobe Illustrator 22.1.0, SVG Export Plug-In . SVG Version: 6.00 Build 0)  -->
<svg version="1.1" id="Layer_1" xmlns="http://www.w3.org/2000/svg" xmlns:xlink="http://www.w3.org/1999/xlink" x="0px" y="0px"
	 viewBox="0 0 182.2 182.2" style="enable-background:new 0 0 182.2 182.2;" xml:space="preserve">
	<style type="text/css">
		.st0{fill:#FFFFFF;}
	</style>
	<g>
		<path class="st0" d="M123.1,101.7c-0.4-1.8-1.6-3.4-3.2-4.4c-1.6-1-3.4-1.3-5.2-0.9c0.2-0.9,0.2-1.8,0-2.7
			c-0.7-3.8-4.4-6.2-8.1-5.6c0.1-0.5,0.2-1,0.1-1.5c0-3.7-2.9-6.7-6.5-6.9l11.9-11.9c2.6-2.8,2.5-7.1-0.2-9.8c-1.3-1.3-3.2-2.1-5-2
			c-1.9,0-3.7,0.8-5,2.1L76.8,83.6c-0.1,0.1-0.2,0.2-0.4,0.2c0,0,0,0,0,0c-0.3,0-0.5-0.2-0.5-0.5v-6.5c0-0.9-0.1-1.7-0.3-2.6
			c-1.3-5.6-6.1-9.5-11.9-9.5c0,0,0,0,0,0c-1.9,0-3.6,1.2-4.4,2.9c-0.8,1.8-0.5,3.8,0.8,5.3c1.6,1.8,2.5,4.1,2.5,6.4
			c0,0.2,0.1,19.3,0.3,23.9c0,0.1,0,0.3,0.1,0.4c0.3,1.8,1,3.4,2.2,4.7L80.8,124c3.2,3.4,7.8,5.4,12.4,5.4c0.1,0,0.1,0,0.2,0
			c4.1,0,7.9-1.5,10.9-4.3l17-17C123,106.5,123.7,104,123.1,101.7z M119.6,106.5l-17,17c-2.1,2.1-5.4,3.4-8.8,3.6
			c-2.9,0.1-7.2-0.6-11.3-4.7L67,106.7c-0.9-1-1.5-2.3-1.6-3.6c0-0.1,0-0.2-0.1-0.3C65.1,98.2,65,81.3,65,79.4v-0.1
			c0-3-1.1-5.8-3.1-8.1c-0.6-0.7-0.8-1.8-0.4-2.7c0.4-0.9,1.2-1.5,2.2-1.5c0,0,0,0,0,0c4.6,0,8.4,3.2,9.4,7.6
			c0.2,0.7,0.2,1.4,0.2,2.1v6.5c0,0.8,0.3,1.5,0.9,2.1c1.2,1.1,3,1.1,4.1,0l25.1-25.6c0.9-0.9,2-1.4,3.3-1.4c0,0,0.1,0,0.1,0
			c1.2,0,2.4,0.5,3.2,1.3c1.8,1.8,1.8,4.6,0.2,6.4L95.1,81.5c0,0,0,0,0,0.1c0,0,0,0-0.1,0l-4.9,5.1c-0.2,0.2-0.3,0.5-0.3,0.8
			c0,0.7,0.5,1.2,1.2,1.2c0,0,0,0,0,0c0.3,0,0.6-0.1,0.9-0.4l4.9-5.1l0,0c1.8-1.6,4.5-1.5,6.2,0.2c0.9,0.8,1.4,2,1.4,3.2
			c0,1.3-0.5,2.5-1.4,3.4l-0.2,0.2l-4.9,5.1c-0.2,0.2-0.3,0.5-0.3,0.8c0,0.7,0.5,1.2,1.2,1.2c0,0,0,0,0,0c0.3,0,0.6-0.1,0.9-0.4
			l4.9-5.1c0.8-0.9,2-1.4,3.2-1.4c0,0,0,0,0.1,0c1.2,0,2.4,0.5,3.2,1.3c0.9,0.9,1.4,2,1.4,3.3c0,1.2-0.5,2.4-1.3,3.3
			c-0.1,0.1-0.1,0.2-0.2,0.3l-4.5,4.7c-0.2,0.2-0.3,0.5-0.3,0.8c0,0.3,0.1,0.6,0.4,0.9c0.2,0.2,0.5,0.4,0.9,0.4c0,0,0,0,0,0
			c0.3,0,0.6-0.1,0.9-0.4l4.9-5.1l0,0c1.8-1.7,4.6-1.6,6.3,0c0.9,0.9,1.4,2,1.4,3.2C120.9,104.4,120.4,105.6,119.6,106.5z"/>
		<path class="st0" d="M79.4,67.4L79.4,67.4c0.2,0.2,0.5,0.3,0.8,0.3v0h0v0c0.3,0,0.6-0.1,0.8-0.3c0.2-0.2,0.3-0.5,0.3-0.8
			c0-0.3-0.1-0.6-0.3-0.8l-7.2-7.2c-0.2-0.2-0.5-0.3-0.8-0.3c0,0,0,0,0,0c-0.3,0-0.6,0.1-0.8,0.3c-0.2,0.2-0.3,0.5-0.3,0.8
			s0.1,0.6,0.3,0.8L79.4,67.4z"/>
		<path class="st0" d="M86.1,67.8C86.1,67.8,86.2,67.8,86.1,67.8c0.3,0,0.6-0.1,0.8-0.3l7.2-7.2c0.2-0.2,0.3-0.5,0.3-0.8
			s-0.1-0.6-0.3-0.8c-0.4-0.4-1.2-0.4-1.6,0l-7.2,7.2C85.1,66,85,66.3,85,66.6C85,67.3,85.5,67.8,86.1,67.8z"/>
		<path class="st0" d="M83.1,64.5L83.1,64.5c0.6,0,1.1-0.5,1.1-1.1v-9.5c0-0.6-0.5-1.1-1.1-1.1S82,53.2,82,53.8v9.5
			C82,64,82.5,64.5,83.1,64.5z"/>
	</g>
</svg>
