<svg xmlns="http://www.w3.org/2000/svg" width="16.744" height="29.766" viewBox="0 0 16.744 29.766"><defs><style>.a{fill:#fff;}</style></defs><path class="a" d="M1379.268,329.461H1367.45a2.688,2.688,0,0,0-2.463,2.849v24.064a2.692,2.692,0,0,0,2.463,2.853h11.818a2.684,2.684,0,0,0,2.463-2.853V332.31A2.68,2.68,0,0,0,1379.268,329.461Zm-7.118,1.135h2.414v.571h-2.414Zm1.211,28.224a1.56,1.56,0,1,1,1.332-1.537A1.448,1.448,0,0,1,1373.361,358.82Zm7.219-3.589h-14.438v-23.11h14.438Z" transform="translate(-1364.987 -329.461)"/></svg>