<svg xmlns="http://www.w3.org/2000/svg" xmlns:xlink="http://www.w3.org/1999/xlink" width="32" height="34" viewBox="0 0 32 34"><defs><style>.a{fill:red;}.b{clip-path:url(#a);}.c{fill:#fff;}</style><clipPath id="a"><rect class="a" width="32" height="34" transform="translate(0)"/></clipPath></defs><g class="b"><path class="c" d="M32.211,16.105A16.105,16.105,0,1,0,16.105,32.211c.095,0,.189,0,.283,0V19.67h-3.46V15.637h3.46V12.67c0-3.441,2.1-5.315,5.171-5.315a28.483,28.483,0,0,1,3.1.159v3.6H22.544c-1.67,0-1.993.794-1.993,1.958v2.568h3.993l-.52,4.032H20.551V31.588a16.114,16.114,0,0,0,11.66-15.483Zm0,0"/></g></svg>