<?xml version="1.0" encoding="utf-8"?>
<!-- Generator: Adobe Illustrator 22.1.0, SVG Export Plug-In . SVG Version: 6.00 Build 0)  -->
<svg version="1.1" id="Layer_1" xmlns="http://www.w3.org/2000/svg" xmlns:xlink="http://www.w3.org/1999/xlink" x="0px" y="0px"
	 viewBox="0 0 182.2 182.2" style="enable-background:new 0 0 182.2 182.2;" xml:space="preserve">
<style type="text/css">
	.st0{fill:#112769;}
</style>
<g>
	<path class="st0" d="M91.1,52.5c-21.3,0-38.6,17.3-38.6,38.6s17.3,38.6,38.6,38.6s38.6-17.3,38.6-38.6S112.4,52.5,91.1,52.5z
		 M91.1,127.3c-19.9,0-36.2-16.2-36.2-36.2c0-19.9,16.2-36.2,36.2-36.2s36.2,16.2,36.2,36.2C127.3,111,111,127.3,91.1,127.3z"/>
	<path class="st0" d="M101.3,101c-0.3,0.1-0.6,0.2-0.8,0.5L90,116.9l-7.6-8.6c-0.2-0.3-0.5-0.4-0.9-0.4c-0.3,0-0.6,0.1-0.8,0.3
		c-0.2,0.2-0.4,0.5-0.4,0.8c0,0.3,0.1,0.6,0.3,0.9l8.1,9.1c0.3,0.4,0.9,0.7,1.4,0.8l0.1,0c0,0,0.1,0,0.2,0c0.1,0,0.2-0.1,0.4-0.1
		c0.3-0.2,0.6-0.5,0.9-0.9l10.9-15.9c0.2-0.3,0.2-0.6,0.2-0.9c-0.1-0.3-0.2-0.6-0.5-0.8C101.9,101.1,101.6,101,101.3,101z"/>
	<path class="st0" d="M79.8,76.1h13.1l0,0.3c-0.5,3.1-3.6,6.2-9.4,5.7c-0.3,0-0.6-0.1-0.9-0.1l0.1,3.3l10,13.5h3.4l-9.5-13.8v-0.4
		l0.2,0c5.5-1,8.3-4.8,8.8-8.3l0-0.2h3.2l2.4-3.4h-6.1L95,72.6c-0.3-0.8-0.8-1.5-1.3-2.2c-0.1-0.2-0.1-0.4,0-0.5
		c0.1-0.1,0.2-0.1,0.3-0.1h4.8l2.4-3.4h-19l-2.4,3.4h6.5c1.3,0,2.7,0.3,3.8,1c0.7,0.4,1.2,0.9,1.7,1.6l0.3,0.4h-9.9L79.8,76.1z"/>
</g>
</svg>
