<svg xmlns="http://www.w3.org/2000/svg" xmlns:xlink="http://www.w3.org/1999/xlink" width="32" height="34" viewBox="0 0 32 34"><defs><style>.a{fill:red;}.b{clip-path:url(#a);}.c{fill:#fff;}</style><clipPath id="a"><rect class="a" width="32" height="34" transform="translate(-0.182)"/></clipPath></defs><g class="b" transform="translate(0.182)"><g transform="translate(-0.235 0)"><path class="c" d="M213.22,210.11a3.11,3.11,0,1,1-3.11-3.11A3.11,3.11,0,0,1,213.22,210.11Zm0,0" transform="translate(-193.696 -194.116)"/><path class="c" d="M150.408,137.635a3.09,3.09,0,0,0-1.771-1.771,5.163,5.163,0,0,0-1.732-.321c-.984-.045-1.279-.055-3.771-.055s-2.787.009-3.77.054a5.166,5.166,0,0,0-1.732.321,3.091,3.091,0,0,0-1.771,1.771,5.165,5.165,0,0,0-.321,1.733c-.045.984-.055,1.279-.055,3.771s.01,2.786.055,3.771a5.163,5.163,0,0,0,.321,1.732,3.09,3.09,0,0,0,1.771,1.771,5.156,5.156,0,0,0,1.733.321c.984.045,1.279.054,3.77.054s2.787-.009,3.771-.054a5.156,5.156,0,0,0,1.733-.321,3.09,3.09,0,0,0,1.771-1.771,5.166,5.166,0,0,0,.321-1.732c.045-.984.054-1.279.054-3.771s-.009-2.787-.054-3.771A5.155,5.155,0,0,0,150.408,137.635Zm-7.274,10.294a4.791,4.791,0,1,1,4.791-4.791A4.791,4.791,0,0,1,143.134,147.929Zm4.981-8.652a1.12,1.12,0,1,1,1.12-1.12A1.12,1.12,0,0,1,148.115,139.277Zm0,0" transform="translate(-126.877 -127.299)"/><path class="c" d="M16.105,0A16.105,16.105,0,1,0,32.211,16.105,16.107,16.107,0,0,0,16.105,0ZM25.3,19.918a6.785,6.785,0,0,1-.43,2.245,4.729,4.729,0,0,1-2.7,2.7,6.79,6.79,0,0,1-2.245.43c-.986.045-1.3.056-3.813.056s-2.827-.011-3.813-.056a6.79,6.79,0,0,1-2.245-.43,4.729,4.729,0,0,1-2.7-2.7,6.783,6.783,0,0,1-.43-2.245c-.045-.986-.056-1.3-.056-3.813s.011-2.827.056-3.813a6.786,6.786,0,0,1,.43-2.245,4.732,4.732,0,0,1,2.7-2.7,6.791,6.791,0,0,1,2.245-.43c.986-.045,1.3-.056,3.813-.056s2.827.011,3.813.056a6.793,6.793,0,0,1,2.245.429,4.73,4.73,0,0,1,2.7,2.7,6.784,6.784,0,0,1,.43,2.245c.045.986.056,1.3.056,3.813S25.343,18.932,25.3,19.918Zm0,0"/></g></g></svg>