<svg xmlns="http://www.w3.org/2000/svg" xmlns:xlink="http://www.w3.org/1999/xlink" width="32" height="34" viewBox="0 0 32 34"><defs><style>.a{fill:red;}.b{clip-path:url(#a);}.c{fill:#fff;}</style><clipPath id="a"><rect class="a" width="32" height="34" transform="translate(0.38)"/></clipPath></defs><g class="b" transform="translate(-0.38)"><path class="c" d="M16.105,0A16.105,16.105,0,1,0,32.211,16.105,16.107,16.107,0,0,0,16.105,0Zm-4.68,24.347H7.5v-11.8h3.922ZM9.464,10.935H9.439A2.044,2.044,0,1,1,9.49,6.857a2.045,2.045,0,1,1-.026,4.077Zm16.1,13.412H21.647V18.034c0-1.587-.568-2.669-1.987-2.669A2.147,2.147,0,0,0,17.647,16.8a2.686,2.686,0,0,0-.129.957v6.59H13.6s.051-10.693,0-11.8h3.922v1.671a3.894,3.894,0,0,1,3.535-1.948c2.581,0,4.516,1.687,4.516,5.311Zm0,0" transform="translate(0.274)"/></g></svg>