<?xml version="1.0" encoding="utf-8"?>
<!-- Generator: Adobe Illustrator 22.1.0, SVG Export Plug-In . SVG Version: 6.00 Build 0)  -->
<svg version="1.1" id="Layer_1" xmlns="http://www.w3.org/2000/svg" xmlns:xlink="http://www.w3.org/1999/xlink" x="0px" y="0px"
	 viewBox="0 0 182.2 182.2" style="enable-background:new 0 0 182.2 182.2;" xml:space="preserve">
<style type="text/css">
	.st0{fill:#112769;}
</style>
<g>
	<path class="st0" d="M104.7,95.6h2.7l1.5-2.2l0-0.1H98.2l-1.5,2.2l0,0.1h3.9c0,0,0.1,0,0.1,0c0.7,0,1.3,0.2,1.9,0.5
		c0.3,0.2,0.6,0.4,0.8,0.7h-5.2L96.7,99l0,0.1h7.3c-0.3,1.5-1.7,3-4.4,3c-0.2,0-0.4,0-0.5,0c-0.2,0-0.4,0-0.6-0.1l0,0l0,2v0l5.6,7.5
		l0,0h2.3l-5.4-7.8v0c2.5-0.3,4.5-2.2,4.9-4.6h1.7l1.5-2.2l0-0.1h-3.6C105.3,96.4,105,96,104.7,95.6
		C104.7,95.6,104.7,95.6,104.7,95.6C104.7,95.6,104.7,95.6,104.7,95.6C104.7,95.6,104.7,95.6,104.7,95.6z"/>
	<path class="st0" d="M115,76.3L92,52.8c-0.2-0.2-0.5-0.4-0.9-0.4c-0.3,0-0.6,0.1-0.9,0.4l-23,23.6c-0.3,0.3-0.4,0.9-0.3,1.3
		c0.2,0.4,0.6,0.7,1.1,0.7h11.1v50.2c0,0.7,0.5,1.2,1.2,1.2c0.3,0,0.6-0.1,0.9-0.4c0.2-0.2,0.4-0.5,0.4-0.9V77.2
		c0-0.7-0.5-1.2-1.2-1.2h-9.4l20.2-20.6l20.2,20.6h-9.4c-0.7,0-1.2,0.5-1.2,1.2V81c0,0,0,0,0,0.1c0,0,0,0,0,0c0,0,0,0,0,0
		c0,0,0,0,0,0.1l0,8.9c0,0.7,0.5,1.2,1.2,1.2h0c0.7,0,1.2-0.5,1.2-1.2l0-8.9c0,0,0-0.1,0-0.1c0,0,0,0,0,0c0,0,0,0,0,0c0,0,0,0,0-0.1
		v-2.7h11.1c0.5,0,0.9-0.3,1.1-0.7C115.4,77.2,115.3,76.7,115,76.3z"/>
	<path class="st0" d="M101.8,111.5L101.8,111.5C101.8,111.5,101.8,111.5,101.8,111.5c-0.3,0-0.6,0.1-0.9,0.3
		c-0.2,0.2-0.4,0.5-0.4,0.9l0,3.8c0,0.1,0,0.2,0,0.2v11c-0.1,0.8,0.4,1.4,1.2,1.5h0h0c0.8-0.1,1.3-0.8,1.2-1.5V116
		c0-0.1,0-0.2,0-0.2l0-3C103,112,102.5,111.5,101.8,111.5z"/>
	<path class="st0" d="M74.3,97.7C74.3,97.7,74.3,97.7,74.3,97.7c-0.7,0-1.2,0.5-1.2,1.2v18.7c0,0.7,0.5,1.2,1.2,1.2
		c0.3,0,0.6-0.1,0.9-0.4s0.4-0.5,0.4-0.9V98.9c0-0.3-0.1-0.6-0.4-0.9C74.9,97.8,74.6,97.7,74.3,97.7z"/>
</g>
</svg>
