<?xml version="1.0" encoding="utf-8"?>
<!-- Generator: Adobe Illustrator 22.1.0, SVG Export Plug-In . SVG Version: 6.00 Build 0)  -->
<svg version="1.1" id="Layer_1" xmlns="http://www.w3.org/2000/svg" xmlns:xlink="http://www.w3.org/1999/xlink" x="0px" y="0px"
	 viewBox="0 0 182.2 182.2" style="enable-background:new 0 0 182.2 182.2;" xml:space="preserve">
<style type="text/css">
	.st0{fill:#112769;}
</style>
<g>
	<path class="st0" d="M93.3,73.2h3.1l1.7-2.5H85.8h-0.1L84,73.2h4.4c0.8,0,1.6,0.2,2.3,0.6c0.4,0.2,0.7,0.6,1,0.9h-6L84,77.2h8.4
		c-0.3,1.9-2.3,3.7-5.7,3.5c-0.3,0-0.5,0-0.7-0.1l0,2.3l6.4,8.6h2.5l-6.2-8.9v-0.1c2.9-0.3,5.2-2.5,5.7-5.4h2l1.7-2.5h-4.1
		c-0.2-0.5-0.5-1-0.9-1.4C93.2,73.3,93.2,73.3,93.3,73.2C93.2,73.2,93.3,73.2,93.3,73.2z"/>
	<path class="st0" d="M90.7,52.7C76,53,64.3,65.1,64.5,79.7c0.1,5.7,1.5,11.2,4,16.3c2.3,4.9,5.2,9.5,8.6,13.7
		c3.7,4.8,7.9,9.2,12.5,13.2c0.4,0.4,1,0.5,1.5,0.5c0.6,0,1.1-0.2,1.6-0.6c4.5-4.3,8.6-8.9,12.4-13.8c3.3-4.3,6.2-8.9,8.6-13.8
		c2.7-5.6,4-10.9,4-15.6c0-0.3,0-0.6,0-0.9C117.4,64.2,105.3,52.5,90.7,52.7z M111.5,94.3c-2.3,4.7-5.1,9.2-8.3,13.3
		c-3.7,4.8-7.7,9.3-12.1,13.5c-4.4-3.9-8.5-8.2-12.1-12.8c-3.3-4.1-6.1-8.5-8.3-13.3c-2.4-4.8-3.7-10-3.8-15.3c0,0,0,0,0,0
		c0-13.4,10.9-24.2,24.2-24.2v0c0,0,0,0,0,0c13.4,0,24.2,10.9,24.2,24.2C115.3,84.1,114,89,111.5,94.3z"/>
	<path class="st0" d="M91.1,62C81,62,72.9,70.1,72.9,80.2c0,10.1,8.1,18.2,18.2,18.2c2.4,0,4.9-0.5,7.1-1.4
		c6.7-2.8,11.1-9.4,11.1-16.8C109.3,70.2,101.2,62,91.1,62z M91.1,96c-8.7,0-15.8-7.1-15.9-15.8c0-8.7,7.1-15.8,15.8-15.9
		c2.1,0,4.2,0.4,6.2,1.2c5.9,2.5,9.7,8.2,9.7,14.6C106.9,88.8,99.9,95.9,91.1,96z"/>
	<path class="st0" d="M109.2,106.6c-0.6-0.3-1.3,0-1.6,0.6c-0.3,0.6,0,1.3,0.6,1.6c4.5,2,7,4.7,7,7.6s-2.5,5.5-7,7.6
		c-11.1,4.2-23.3,4.2-34.3,0c-4.5-2-7-4.7-7-7.6c0-1.4,0.6-2.8,1.6-3.9c1.3-1.4,2.8-2.5,4.5-3.3c0.6-0.3,0.8-1,0.5-1.6
		c-0.3-0.6-1-0.8-1.6-0.5c-2,0.9-3.8,2.2-5.2,3.8c-1.4,1.5-2.2,3.4-2.2,5.4c0,3.8,3,7.3,8.5,9.7c5.8,2.3,11.9,3.5,18.1,3.4
		c6.2,0.1,12.4-1,18.1-3.4c5.5-2.4,8.5-5.9,8.5-9.7S114.7,109,109.2,106.6z"/>
</g>
</svg>
