<svg xmlns="http://www.w3.org/2000/svg" xmlns:xlink="http://www.w3.org/1999/xlink" width="178" height="60" viewBox="0 0 178 60"><defs><style>.a{fill:#fff;stroke:#707070;}.b{clip-path:url(#a);}.c{fill:#009cdc;}.d{fill:#141b4e;}.e{fill:#ffbe00;}</style><clipPath id="a"><rect class="a" width="178" height="60" transform="translate(686 5883)"/></clipPath></defs><g class="b" transform="translate(-686 -5883)"><g transform="translate(1001.827 6094.511)"><path class="c" d="M-109.874-211.444h11.99V-174h-11.99Z" transform="translate(-137.137 -0.045)"/><path class="c" d="M-66.188-211.444h45.315v9.547H-37.52V-174H-49.511v-27.9H-66.188Z" transform="translate(-166.227 -0.045)"/><path class="c" d="M77.323-174v-37.446h27.57q9.711.027,11.631.208a8.483,8.483,0,0,1,3.7,1.274,6.64,6.64,0,0,1,2.937,3.553,23.334,23.334,0,0,1,.795,7.118,25.578,25.578,0,0,1-.509,6.008,5.753,5.753,0,0,1-1.906,3.072,9.46,9.46,0,0,1-4.553,1.7q3.592.271,5.16,2.054a5.271,5.271,0,0,1,1.149,2.595,51.425,51.425,0,0,1,.245,6.376V-174H112.3v-2a29.355,29.355,0,0,0-.231-4.458,4.107,4.107,0,0,0-.861-2.043,3,3,0,0,0-1.742-.836,37.242,37.242,0,0,0-4.651-.181H88.735V-174Zm11.412-18.874h16.049q4.195-.084,5-.15a3.058,3.058,0,0,0,1.383-.425,2.48,2.48,0,0,0,1.045-1.386,9.517,9.517,0,0,0,.3-2.785,8.162,8.162,0,0,0-.342-2.743,2.332,2.332,0,0,0-1.192-1.316,4.173,4.173,0,0,0-1.442-.329q-.837-.054-4.786-.084H88.735Z" transform="translate(-261.786 -0.045)"/><g transform="translate(-315.731 -168.576)"><g transform="translate(0 0)"><path class="d" d="M-310.465-76.058h-5.074v-6.679h2.015v5.079h3.06Z" transform="translate(315.539 82.829)"/><path class="d" d="M-290.628-76.058h-5.036v-6.679h4.954v1.34h-2.939v1.224h2.8v1.345h-2.8V-77.4h3.021Z" transform="translate(302.305 82.829)"/><path class="d" d="M-269.965-81.113h-2.448v5.055h-2.01v-5.055h-2.448v-1.624h6.906Z" transform="translate(289.791 82.829)"/><path class="d" d="M-250.7-81.494a1.874,1.874,0,0,1-.128.662,2.038,2.038,0,0,1-.4.644,2.317,2.317,0,0,1-.713.521,3.368,3.368,0,0,1-1.029.3v-.309a1.209,1.209,0,0,0,.757-1.277v-.1a.921.921,0,0,1-.757-.95.976.976,0,0,1,.135-.494,1.023,1.023,0,0,1,.372-.374,1,1,0,0,1,.521-.14,1.072,1.072,0,0,1,.692.227,1.344,1.344,0,0,1,.416.578A1.978,1.978,0,0,1-250.7-81.494Z" transform="translate(273.878 83.013)"/><path class="d" d="M-237.264-78.183a1.842,1.842,0,0,1-.321,1.084,2.032,2.032,0,0,1-.894.7,3.342,3.342,0,0,1-1.315.243c-.139,0-.308-.009-.508-.026a5.866,5.866,0,0,1-.8-.147,6.273,6.273,0,0,1-1.038-.358v-1.638a7.233,7.233,0,0,0,1,.52,2.666,2.666,0,0,0,1.048.207.918.918,0,0,0,.667-.171.5.5,0,0,0,.152-.321.548.548,0,0,0-.26-.456,3.712,3.712,0,0,0-.756-.383,5.913,5.913,0,0,1-.964-.5,2.281,2.281,0,0,1-.678-.682,1.757,1.757,0,0,1-.263-.969,1.847,1.847,0,0,1,.265-.976,1.849,1.849,0,0,1,.81-.7,3.073,3.073,0,0,1,1.33-.26,4.671,4.671,0,0,1,1.034.108,4.535,4.535,0,0,1,.783.244,3.24,3.24,0,0,1,.424.212v1.566a5.586,5.586,0,0,0-.913-.525,2.553,2.553,0,0,0-1.077-.231.834.834,0,0,0-.545.145.451.451,0,0,0-.168.357.438.438,0,0,0,.168.342,2.977,2.977,0,0,0,.6.351,12.12,12.12,0,0,1,1.234.651,2.427,2.427,0,0,1,.725.667A1.617,1.617,0,0,1-237.264-78.183Z" transform="translate(266.705 83.013)"/><path class="d" d="M-204.433-76.058h-2.014v-3.87l-1.818,2.241h-.159l-1.822-2.241v3.87H-212.2v-6.679h1.827l2.053,2.506,2.062-2.506h1.827Z" transform="translate(246.73 82.829)"/><path class="d" d="M-176.435-79.586a3.517,3.517,0,0,1-.431,1.72,3.117,3.117,0,0,1-1.284,1.248,4.3,4.3,0,0,1-2.077.463,4.226,4.226,0,0,1-2.1-.482A3.13,3.13,0,0,1-183.6-77.9a3.53,3.53,0,0,1-.417-1.682,3.547,3.547,0,0,1,.414-1.685,3.107,3.107,0,0,1,1.275-1.263,4.257,4.257,0,0,1,2.1-.48,4.641,4.641,0,0,1,1.651.275,3.321,3.321,0,0,1,1.193.744,3.135,3.135,0,0,1,.708,1.095A3.6,3.6,0,0,1-176.435-79.586Zm-2.053,0a2.035,2.035,0,0,0-.111-.687,1.463,1.463,0,0,0-.335-.54,1.552,1.552,0,0,0-.547-.356,2.024,2.024,0,0,0-.747-.128,1.7,1.7,0,0,0-1.272.472,1.693,1.693,0,0,0-.463,1.239,1.7,1.7,0,0,0,.465,1.24,1.694,1.694,0,0,0,1.27.475,1.907,1.907,0,0,0,.945-.219,1.473,1.473,0,0,0,.593-.608A1.894,1.894,0,0,0-178.487-79.586Z" transform="translate(227.961 83.013)"/><path class="d" d="M-151.826-82.737l-3.012,6.766h-1.331l-2.954-6.766h2.1l1.528,3.855,1.57-3.855Z" transform="translate(211.387 82.829)"/><path class="d" d="M-128.326-76.058h-5.037v-6.679h4.955v1.34h-2.94v1.224h2.8v1.345h-2.8V-77.4h3.022Z" transform="translate(194.234 82.829)"/><path class="d" d="M-97.358-76.058H-99.42l-.545-1.354h-2.9l-.554,1.354h-2.063l2.954-6.679h2.227Zm-3.07-2.515-.978-2.439-.988,2.439Z" transform="translate(175.669 82.829)"/><path class="d" d="M-70.276-76.058h-2.01v-2.607h-3.031v2.607h-2.015v-6.679h2.015v2.453h3.031v-2.453h2.01Z" transform="translate(156.925 82.829)"/><path class="d" d="M-44.979-76.058h-5.037v-6.679h4.955v1.34H-48v1.224h2.8v1.345H-48V-77.4h3.022Z" transform="translate(138.736 82.829)"/><path class="d" d="M-23.961-76.058h-2.063l-.545-1.354h-2.9l-.554,1.354h-2.062l2.954-6.679h2.226Zm-3.07-2.515-.978-2.439L-29-78.573Z" transform="translate(126.797 82.829)"/><path class="d" d="M2.935-79.276a3.174,3.174,0,0,1-.374,1.647,3.529,3.529,0,0,1-.879,1.007,3.179,3.179,0,0,1-2.01.564H-3.933v-6.679h2.776a7.5,7.5,0,0,1,1.072.065,4.733,4.733,0,0,1,.8.183,3.158,3.158,0,0,1,.606.265,3.148,3.148,0,0,1,.448.316,3.069,3.069,0,0,1,.6.66,3.248,3.248,0,0,1,.409.882A3.739,3.739,0,0,1,2.935-79.276ZM.887-79.364a2.225,2.225,0,0,0-.311-1.27,1.52,1.52,0,0,0-.747-.61A2.661,2.661,0,0,0-1.06-81.4h-.858v3.956h.858a2.457,2.457,0,0,0,1.369-.376A1.726,1.726,0,0,0,.887-79.364Z" transform="translate(108.051 82.829)"/><path class="d" d="M36.881-81.113H34.433v5.055h-2.01v-5.055H29.975v-1.624h6.906Z" transform="translate(85.472 82.829)"/><path class="d" d="M59.941-79.586a3.513,3.513,0,0,1-.431,1.72,3.114,3.114,0,0,1-1.284,1.248,4.3,4.3,0,0,1-2.078.463,4.225,4.225,0,0,1-2.1-.482A3.13,3.13,0,0,1,52.778-77.9a3.526,3.526,0,0,1-.417-1.682,3.543,3.543,0,0,1,.414-1.685,3.107,3.107,0,0,1,1.275-1.263,4.256,4.256,0,0,1,2.1-.48,4.638,4.638,0,0,1,1.651.275,3.32,3.32,0,0,1,1.193.744A3.145,3.145,0,0,1,59.7-80.9,3.6,3.6,0,0,1,59.941-79.586Zm-2.052,0a2.037,2.037,0,0,0-.111-.687,1.472,1.472,0,0,0-.335-.54,1.553,1.553,0,0,0-.547-.356,2.022,2.022,0,0,0-.747-.128,1.7,1.7,0,0,0-1.272.472,1.694,1.694,0,0,0-.463,1.239,1.7,1.7,0,0,0,.465,1.24,1.7,1.7,0,0,0,1.27.475,1.906,1.906,0,0,0,.945-.219,1.472,1.472,0,0,0,.593-.608A1.894,1.894,0,0,0,57.889-79.586Z" transform="translate(70.566 83.013)"/><path class="d" d="M85.414-76.713q-.217.082-.372.135c-.1.035-.2.068-.3.1s-.232.066-.412.112a8.584,8.584,0,0,1-.914.161,7.857,7.857,0,0,1-.961.055,4.693,4.693,0,0,1-1.88-.372,3.081,3.081,0,0,1-1.38-1.151,3.386,3.386,0,0,1-.519-1.919,4.037,4.037,0,0,1,.267-1.439,2.522,2.522,0,0,1,.817-1.13,3.833,3.833,0,0,1,.918-.538,3.968,3.968,0,0,1,.908-.248,7.069,7.069,0,0,1,.978-.063,6.639,6.639,0,0,1,1.456.133q.573.134,1.258.349v1.581a5.489,5.489,0,0,0-.959-.443,3.828,3.828,0,0,0-1.262-.178,2.579,2.579,0,0,0-1.4.33,1.826,1.826,0,0,0-.728.788,2.156,2.156,0,0,0-.2.887,1.889,1.889,0,0,0,.236.932,1.724,1.724,0,0,0,.713.685,2.394,2.394,0,0,0,1.152.257,3.635,3.635,0,0,0,.819-.1v-.786h-.906v-1.345h2.666Z" transform="translate(53.041 83.013)"/><path class="d" d="M109.8-76.058h-5.037v-6.679h4.955v1.34h-2.94v1.224h2.8v1.345h-2.8V-77.4H109.8Z" transform="translate(35.676 82.829)"/><path class="d" d="M130.458-81.113H128.01v5.055H126v-5.055h-2.448v-1.624h6.906Z" transform="translate(23.162 82.829)"/><path class="d" d="M155.976-76.058h-2.01v-2.607h-3.032v2.607H148.92v-6.679h2.015v2.453h3.032v-2.453h2.01Z" transform="translate(6.271 82.829)"/><path class="d" d="M181.274-76.058h-5.037v-6.679h4.955v1.34h-2.94v1.224h2.8v1.345h-2.8V-77.4h3.022Z" transform="translate(-11.919 82.829)"/><path class="d" d="M203-76.058h-2.164l-.525-1.186a4.956,4.956,0,0,0-.521-.952,1.132,1.132,0,0,0-.45-.386,1.619,1.619,0,0,0-.566-.084h-.227v2.607H196.53v-6.679h3.427a2.493,2.493,0,0,1,1.359.337,2.024,2.024,0,0,1,.763.819,2.1,2.1,0,0,1,.234.916,1.738,1.738,0,0,1-.194.856,1.584,1.584,0,0,1-.412.508,4.39,4.39,0,0,1-.487.3,1.917,1.917,0,0,1,.533.445,5.617,5.617,0,0,1,.571,1.043Zm-2.737-4.568a.692.692,0,0,0-.3-.646,2,2,0,0,0-.988-.183h-.424v1.61h.433a2.169,2.169,0,0,0,1.01-.162A.658.658,0,0,0,200.261-80.626Z" transform="translate(-25.431 82.829)"/></g></g><g transform="translate(-315.827 -211.511)"><path class="d" d="M-270.924-195.758c-.773-.8-9.6-9.534-9.6-9.534s-.5-.469-.936-.1-3.11,3.177-3.11,3.177-4.184,1.308-3.78-3.177c.331-.5,3.646-3.982,3.646-3.982a5.621,5.621,0,0,0-4.42-1.872h-26.7v37.406h11.292v-28.036c2.142,2.125,3.969,3.944,3.969,3.944s2.678,1.941,4.884,0c1.005-1.137,3.346-3.478,3.346-3.478s3.681-.737,3.681,2.608a2.661,2.661,0,0,1,2.877,2.877c.066.068,2.876-.132,2.744,2.812.066,0,3.748.2,2.746,3.01-.071.134-2.613,3.146-2.613,3.146s-.267.3-.031.5,1.621,1.622,1.621,1.622,2.727.384,2.09-2.122a3.693,3.693,0,0,0-.6-.637s.2-1.072.869-.7a5.885,5.885,0,0,1,.8.637s3.111.335,1.572-2.41a1.866,1.866,0,0,1-.4-.434s.267-1.07.97-.6c.568.37.972.638.972.638s2.373.03,1.571-2.179a4.643,4.643,0,0,0-.534-.568s-.168-1.1.834-.765C-272.8-193.713-269.987-192.981-270.924-195.758Z" transform="translate(315.827 211.335)"/><g transform="translate(18.714)"><path class="e" d="M-254.67-179.551s-4.789,4.783-4.986,4.989c-.87,2.674,2.04,2.17,2.04,2.17s4.751-4.851,5.118-5.216C-251.962-180.185-254.67-179.551-254.67-179.551Z" transform="translate(259.819 190.276)"/><path class="e" d="M-246.163-170.942s-4.782,4.786-4.98,4.986c-.869,2.676,2.037,2.174,2.037,2.174s4.75-4.851,5.12-5.218C-243.452-171.577-246.163-170.942-246.163-170.942Z" transform="translate(254.15 184.543)"/><path class="e" d="M-237.855-162.132l-4.983,4.987c-.871,2.679,2.038,2.174,2.038,2.174s4.751-4.85,5.119-5.217C-235.143-162.767-237.855-162.132-237.855-162.132Z" transform="translate(248.62 178.677)"/><path class="e" d="M-229.244-153.809s-4.784,4.782-4.983,4.984c-.869,2.675,2.038,2.173,2.038,2.173s4.752-4.85,5.121-5.219C-226.534-154.446-229.244-153.809-229.244-153.809Z" transform="translate(242.886 173.136)"/><path class="e" d="M-206.637-211.511v.088h-17.63l-.533.5-5.455,5.583s-.433,2.913,2.276,2.01c.6-.6,3.678-3.712,3.678-3.712a1.015,1.015,0,0,1,.9.233c.366.368,9.435,9.4,9.435,9.4a3.154,3.154,0,0,0,3.645-.438c.575-.53,2.019-1.948,3.679-3.59v27.4h11.351v-37.484Z" transform="translate(240.15 211.511)"/></g></g></g></g></svg>