<?xml version="1.0" encoding="utf-8"?>
<!-- Generator: Adobe Illustrator 22.1.0, SVG Export Plug-In . SVG Version: 6.00 Build 0)  -->
<svg version="1.1" id="Layer_1" xmlns="http://www.w3.org/2000/svg" xmlns:xlink="http://www.w3.org/1999/xlink" x="0px" y="0px"
	 viewBox="0 0 182.2 182.2" style="enable-background:new 0 0 182.2 182.2;" xml:space="preserve">
<style type="text/css">
	.st0{fill:#112769;}
</style>
<g>
	<path class="st0" d="M127.4,90.3c-1.1-1.5-3.9-2.8-7.3-2.1l-0.4,0.1v-0.5c0-8.2-4.8-16-13.9-22.7l-0.2-0.2l0.1-0.3
		c2.6-6.3,3.1-8.4,3-9c0-0.7-0.6-1.2-1.3-1.1l-0.3,0c-2.3,0.1-4.6-0.2-6.8-0.9c-2.4-0.6-7.5-1.9-9.8,2.2c-0.4,0.7-0.5,0.9,3.8,8.9
		l0.2,0.3L94,65.2c-9,6.7-13.8,14.5-13.8,22.6c0,1.6,0.3,3.2,0.9,4.7l0.2,0.5h-1.5c-2.6,0-5.5,1.9-7.3,3.6l-5.5,5.5l-2.3-2.3
		c-0.2-0.2-0.6-0.4-0.9-0.4c-0.3,0-0.6,0.1-0.9,0.4l-8,8c-0.5,0.5-0.5,1.3,0,1.7l19.3,19.3c0.5,0.5,1.3,0.5,1.7,0l8-8
		c0.5-0.5,0.5-1.3,0-1.7l-2.4-2.4l0.6-0.2c0.3-0.1,0.6-0.1,0.9-0.1h22.5c2.6,0,12.4-10.1,13.8-11.6c3.1-4.1,5.9-8.6,8.2-13.2
		C127.7,91.2,127.6,90.7,127.4,90.3L127.4,90.3z M92.9,56.9l-0.1-0.2l0.2-0.2c1.1-1.2,3-1.4,6.7-0.4l0,0c1.9,0.5,3.8,0.8,5.7,1
		l0.5,0l-0.2,0.5c-0.6,1.6-1.6,4.3-2.7,7l-0.1,0.2l-0.2,0.1c-0.9,0.3-1.8,0.4-2.8,0.4c-1,0-2-0.2-2.9-0.5l-0.1,0l-0.1-0.1
		C95.1,61.3,93.5,58.1,92.9,56.9z M95.8,67l0.2-0.1l0.2,0.1c1.2,0.4,2.5,0.6,3.8,0.7c1.3,0,2.6-0.2,3.8-0.6l0.2-0.1L104,67
		c8.7,6.3,13.1,13.3,13.1,20.8c0,0.5,0,1-0.1,1.4l0,0.2l-0.1,0.1c-1.8,1.4-3.2,3.3-4.2,5.3l-0.1,0.1l-5.8,3l-0.2-0.2
		c-1.2-1-2.8-1.6-4.4-1.5l-8.4,0l-0.1,0c-0.6-0.3-1.1-0.7-1.6-1.1c-1.3-1-2.8-2.1-4.4-2.1h-3.8L84,92.9c-0.9-1.5-1.3-3.3-1.3-5
		C82.7,80.3,87.1,73.3,95.8,67z M75,126.2l-17.5-17.5l6.3-6.3L81.3,120L75,126.2z M124.7,91.7c-2.1,4-4.6,7.8-7.3,11.4l0,0
		c-1.9,2.1-10,10-11.9,10.8l-0.1,0H83.1c-1.1,0-2.1,0.3-3,0.9l-0.3,0.2l-11.1-11.1l5.5-5.5c1.5-1.4,3.9-2.9,5.6-2.9h8
		c0.7,0,1.7,0.7,2.9,1.6c1.1,0.9,2.1,1.6,3.1,1.6h8.5c0.9,0,1.8,0.2,2.5,0.7l0.2,0.1l0,0.2c0,0.2,0,0.4,0.1,0.5
		c0.1,0.2,0.3,0.4,0.5,0.5l0.2,0.1l0,0.2c0,0.1,0,0.3,0,0.5c0,1.4-1.1,2.8-3.6,2.8H89.5c-0.7,0-1.2,0.6-1.2,1.2s0.6,1.2,1.2,1.2
		h12.8c4,0,6-2.6,6-5.2c0-0.4-0.1-0.8-0.1-1.1l-0.1-0.3l6-3.1c0.2-0.1,0.4-0.3,0.5-0.5c1.9-3.8,3.4-5.3,5.6-5.8
		c1.5-0.4,3-0.2,4.3,0.5l0.3,0.2L124.7,91.7z"/>
	<path class="st0" d="M62.9,109.6l3.2,3.2c0.2,0.2,0.5,0.4,0.9,0.4c0,0,0,0,0,0c0.3,0,0.6-0.1,0.9-0.4c0.5-0.5,0.5-1.3,0-1.7
		l-3.2-3.2c-0.2-0.2-0.5-0.4-0.9-0.4c0,0,0,0,0,0c-0.3,0-0.6,0.1-0.9,0.4c-0.2,0.2-0.4,0.5-0.4,0.9S62.7,109.4,62.9,109.6z"/>
	<path id="Path_3086" class="st0" d="M94.7,79.6h7.1c-0.3,1.6-1.9,3.2-4.8,2.9c-0.2,0-0.4,0-0.6-0.1l0,1.9l5.4,7.3h2.1l-5.2-7.5
		v-0.1c2.4-0.3,4.4-2.1,4.8-4.5h1.7l1.5-2.1h-3.4c-0.2-0.4-0.4-0.8-0.7-1.2c0,0,0-0.1,0-0.1c0,0,0,0,0.1,0h2.6l1.5-2.1H96.2h-0.1
		l0,0l-1.5,2.1h3.7c0.7,0,1.4,0.2,2,0.5c0.3,0.2,0.6,0.5,0.9,0.8h-5.1L94.7,79.6z"/>
</g>
</svg>
