<?xml version="1.0" encoding="utf-8"?>
<!-- Generator: Adobe Illustrator 22.1.0, SVG Export Plug-In . SVG Version: 6.00 Build 0)  -->
<svg version="1.1" id="Layer_1" xmlns="http://www.w3.org/2000/svg" xmlns:xlink="http://www.w3.org/1999/xlink" x="0px" y="0px"
	 viewBox="0 0 182.2 182.2" style="enable-background:new 0 0 182.2 182.2;" xml:space="preserve">
<style type="text/css">
	.st0{fill:#112769;}
</style>
<g>
	<path class="st0" d="M119,74.5l-1.9,1.9c7.2,3.5,13.5,8.2,18.9,14.2l0.5,0.5l-0.5,0.5c-7.7,8.5-17.6,14.6-28.5,17.9l-3.2,0.9
		l2.4-2.2c4.8-4.4,7.6-10.6,7.6-17.1c0-3.4-0.7-6.7-2.2-9.7l-1.9,1.9c1,2.5,1.6,5.2,1.6,7.9c0,11.4-9.3,20.7-20.7,20.7H91
		c-2.7,0-5.3-0.5-7.8-1.6l-3.1,3.1c22,3.9,44.5-4.3,58.8-21.5l0.5-0.7l-0.6-0.7C133.5,83.8,126.6,78.3,119,74.5z"/>
	<path class="st0" d="M128.1,54.1c-0.5-0.5-1.3-0.5-1.8,0l-16.6,16.6l-0.4-0.1c-5.9-1.8-12-2.7-18.2-2.7
		c-30.7,0-47.2,21.5-47.9,22.4l-0.6,0.8l0.6,0.8c6.8,8.2,15.6,14.5,25.6,18.3l1.1,0.4l-15.7,15.7c-0.5,0.5-0.5,1.3,0,1.8
		c0.5,0.5,1.3,0.5,1.8,0l72.2-72.2c0.2-0.2,0.4-0.5,0.4-0.9S128.3,54.4,128.1,54.1L128.1,54.1z M71.9,108.5l-0.4-0.2
		c-9.6-3.4-18.3-9.2-25.2-16.8l-0.5-0.5l0.5-0.5C54,82.1,63.8,76,74.8,72.7l3.2-0.9L75.5,74c-9.3,8.4-10.2,22.5-2.1,32l0.5,0.5
		L71.9,108.5z M75.6,104.8l-0.2-0.3c-3.3-4.1-5.2-9.2-5-14.5c0.4-7.6,4.8-14.4,12-17.8c2.7-1.3,5.7-1.9,8.6-1.9h0l0,0
		c2.9,0,5.8,0.6,8.4,1.9c1.7,0.8,3.5,1.8,4.7,2.8l0.6,0.5L75.6,104.8z"/>
</g>
</svg>
