<svg xmlns="http://www.w3.org/2000/svg" xmlns:xlink="http://www.w3.org/1999/xlink" width="120.183" height="34.693" viewBox="0 0 120.183 34.693"><defs><style>.a{fill:#fff;}.b{clip-path:url(#a);}</style><clipPath id="a"><path class="a" d="M68.7,75.431l.342-2.351H67.13l.312-2.267h-2.35l-.312,2.267H63.339l.312-2.267H61.3l-.312,2.267H59.112l-.341,2.351h1.894L60.477,76.8h-1.9l-.341,2.351h1.914l-.312,2.267h2.351l.312-2.267h1.44l-.311,2.267h2.35l.312-2.267h1.877l.342-2.351H66.618l.188-1.365ZM64.268,76.8h-1.44l.188-1.365h1.441Z" transform="translate(-58.24 -70.814)"/></clipPath></defs><g transform="translate(-58.24 -41.331)"><g transform="translate(58.24 41.331)"><path class="a" d="M141.385,47.638c-1.945-.759-2.766-1.173-2.766-2.129,0-.748.707-1.437,2.171-1.437a6.92,6.92,0,0,1,3.1.71l.748-2.7a8.637,8.637,0,0,0-3.8-.752c-3.493,0-5.64,1.926-5.64,4.467,0,2.189,1.637,3.561,4.114,4.446,1.8.621,2.5,1.173,2.5,2.085,0,.989-.819,1.632-2.368,1.632a8.47,8.47,0,0,1-3.735-.931l-.692,2.766a9.7,9.7,0,0,0,4.224.933c4.1,0,6-2.127,6-4.628C145.234,49.978,144.017,48.606,141.385,47.638Z" transform="translate(-72.416 -41.331)"/><path class="a" d="M148.988,44.463h4.025V56.542h3.363V44.463h4.072V41.627H148.988Z" transform="translate(-74.997 -41.386)"/><path class="a" d="M168.628,50.235h5.487V47.49h-5.487v-3.1h5.821V41.627h-9.185V56.542h9.49V53.775h-6.127Z" transform="translate(-78.002 -41.386)"/><path class="a" d="M183.115,50.235H188.6V47.49h-5.486v-3.1h5.824V41.627H179.76V56.542h9.489V53.775h-6.134Z" transform="translate(-80.679 -41.386)"/><path class="a" d="M197.6,53.7V41.627h-3.367V56.542h9.3V53.7Z" transform="translate(-83.352 -41.386)"/><path class="a" d="M71.812,46.062V41.627H58.24v4.435h3.907V56.529h5.765V46.062Z" transform="translate(-58.24 -41.386)"/><path class="a" d="M106.515,46.062V41.627H92.944v4.435h3.9V56.529h5.766V46.062Z" transform="translate(-64.648 -41.386)"/><path class="a" d="M78.97,56.529l3-7.547,2.993,7.547h5.8l-5.874-14.9H79.044l-5.864,14.9Z" transform="translate(-60.998 -41.386)"/><path class="a" d="M113.323,56.529l3-7.547,2.993,7.547h5.795l-5.871-14.9H113.4l-5.865,14.9Z" transform="translate(-67.342 -41.386)"/><g transform="translate(0 24.039)"><g transform="translate(13.027 0.306)"><path class="a" d="M81.72,81.422H80.44l-1.6-8.235-1.581,8.235H75.985L74.218,71.19h1.365l1.049,8.235,1.523-8.235h1.38l1.552,8.235,1.035-8.235h1.351Z" transform="translate(-74.218 -71.19)"/><path class="a" d="M103.933,81.423a2.478,2.478,0,0,1-1.609-.46,2.037,2.037,0,0,1-.661-1.667V71.19h1.163v8.062a.985.985,0,0,0,1.107,1.121Z" transform="translate(-79.285 -71.19)"/><path class="a" d="M109.278,81.553a2.033,2.033,0,0,1-1.524.589,1.994,1.994,0,0,1-1.495-.575,2.281,2.281,0,0,1-.633-1.639h1.15a1.257,1.257,0,0,0,.316.906.868.868,0,0,0,.661.258.965.965,0,0,0,.712-.28,1,1,0,0,0,.28-.74,1.326,1.326,0,0,0-.847-1.208l-.964-.489a2.4,2.4,0,0,1-1.02-.862,1.892,1.892,0,0,1-.23-.978,2,2,0,0,1,.589-1.487,2.036,2.036,0,0,1,1.495-.582,1.949,1.949,0,0,1,1.516.589,2.251,2.251,0,0,1,.539,1.581h-1.15a1.289,1.289,0,0,0-.273-.891.829.829,0,0,0-.632-.258.878.878,0,0,0-.669.265.974.974,0,0,0-.251.7,1.086,1.086,0,0,0,.136.553,1.47,1.47,0,0,0,.611.482l.949.474a2.59,2.59,0,0,1,1.056.855,2.3,2.3,0,0,1-.323,2.738Z" transform="translate(-80.017 -71.795)"/><path class="a" d="M126.086,81.422H124.85V74.136l-1.624,4.786h-.762l-1.6-4.671v7.171h-1.236V71.19H120.8l2.07,5.691,2.055-5.691h1.164Z" transform="translate(-82.604 -71.19)"/><path class="a" d="M140.4,81.422l-1.423-3.507-.8,1.279v2.228h-1.164V71.19h1.164v6.323l2.113-3.535h1.236l-1.811,2.9,1.983,4.542Z" transform="translate(-85.813 -71.19)"/><path class="a" d="M155.273,72.3h-1.71v9.126h-1.236V72.3H150.6V71.19h4.671Z" transform="translate(-88.322 -71.19)"/><path class="a" d="M170.407,82.028h-1.164V76.552q0-1.035-.876-1.035t-.876,1.035v5.476h-1.164V76.552a1.077,1.077,0,0,0-.252-.769.842.842,0,0,0-.639-.266q-.877,0-.876,1.035v5.476h-1.164V74.583h1.121v.575a1.32,1.32,0,0,1,.46-.46,1.469,1.469,0,0,1,.8-.23,1.6,1.6,0,0,1,1.423.776,2.374,2.374,0,0,1,.59-.546,1.59,1.59,0,0,1,.847-.23,1.7,1.7,0,0,1,1.337.546,2.255,2.255,0,0,1,.431,1.538Z" transform="translate(-90.684 -71.795)"/><path class="a" d="M183.538,75.589h-.345a1.275,1.275,0,0,0-1.351,1.365v5.074h-1.164V74.583H181.8v.791a1.593,1.593,0,0,1,.518-.532,2.073,2.073,0,0,1,1.221-.373Z" transform="translate(-93.876 -71.795)"/><path class="a" d="M188.775,75.589h-.345a1.275,1.275,0,0,0-1.351,1.365v5.074h-1.164V74.583h1.121v.791a1.6,1.6,0,0,1,.518-.532,2.074,2.074,0,0,1,1.221-.373Z" transform="translate(-94.843 -71.795)"/><path class="a" d="M202.389,82.054H201.21L200.2,76.607l-.977,5.447h-1.178l-1.538-7.445h1.322l.848,5.605.992-5.605h1.049l1.049,5.605.862-5.605h1.322Z" transform="translate(-96.799 -71.821)"/><path class="a" d="M145.51,80.777a.811.811,0,0,0,.652.316.858.858,0,0,0,.665-.288,1.221,1.221,0,0,0,.261-.847h1.164a2.41,2.41,0,0,1-.594,1.638,1.935,1.935,0,0,1-1.49.546,1.979,1.979,0,0,1-1.476-.575q-.665-.676-.665-3.263a12.6,12.6,0,0,1,.115-2,2.213,2.213,0,0,1,.532-1.265,1.958,1.958,0,0,1,1.466-.575,1.9,1.9,0,0,1,1.466.575,2.694,2.694,0,0,1,.56,1.423,17.928,17.928,0,0,1,.086,2.113h-3.062A4.427,4.427,0,0,0,145.51,80.777Zm.63-5.274a.832.832,0,0,0-.676.345,3.868,3.868,0,0,0-.273,1.854h1.9a3.7,3.7,0,0,0-.273-1.868A.843.843,0,0,0,146.141,75.5Z" transform="translate(-87.108 -71.795)"/><path class="a" d="M177.291,81.453a2.133,2.133,0,0,1-3.155-.015,5.866,5.866,0,0,1-.539-3.133,5.866,5.866,0,0,1,.539-3.133,2.133,2.133,0,0,1,3.155-.015,5.917,5.917,0,0,1,.532,3.147A5.921,5.921,0,0,1,177.291,81.453ZM175.71,75.5a.754.754,0,0,0-.647.316,5.717,5.717,0,0,0-.3,2.486,5.662,5.662,0,0,0,.3,2.472.752.752,0,0,0,.647.316.767.767,0,0,0,.661-.316,5.861,5.861,0,0,0,.288-2.472,5.916,5.916,0,0,0-.288-2.486A.769.769,0,0,0,175.71,75.5Z" transform="translate(-92.568 -71.795)"/><path class="a" d="M160.277,81.453a2.133,2.133,0,0,1-3.155-.015,5.857,5.857,0,0,1-.539-3.133,5.858,5.858,0,0,1,.539-3.133,2.133,2.133,0,0,1,3.155-.015,5.919,5.919,0,0,1,.532,3.147A5.923,5.923,0,0,1,160.277,81.453ZM158.7,75.5a.754.754,0,0,0-.647.316,5.717,5.717,0,0,0-.3,2.486,5.662,5.662,0,0,0,.3,2.472.752.752,0,0,0,.647.316.767.767,0,0,0,.661-.316,5.868,5.868,0,0,0,.287-2.472,5.922,5.922,0,0,0-.287-2.486A.769.769,0,0,0,158.7,75.5Z" transform="translate(-89.427 -71.795)"/><path class="a" d="M194.213,81.453a2.133,2.133,0,0,1-3.155-.015,5.857,5.857,0,0,1-.539-3.133,5.858,5.858,0,0,1,.539-3.133,2.133,2.133,0,0,1,3.155-.015,5.928,5.928,0,0,1,.532,3.147A5.931,5.931,0,0,1,194.213,81.453Zm-1.581-5.95a.753.753,0,0,0-.647.316,5.711,5.711,0,0,0-.3,2.486,5.657,5.657,0,0,0,.3,2.472.751.751,0,0,0,.647.316.769.769,0,0,0,.661-.316,5.882,5.882,0,0,0,.287-2.472,5.936,5.936,0,0,0-.287-2.486A.771.771,0,0,0,192.632,75.5Z" transform="translate(-95.693 -71.795)"/><path class="a" d="M115.942,81.453a2.133,2.133,0,0,1-3.155-.015,5.857,5.857,0,0,1-.539-3.133,5.858,5.858,0,0,1,.539-3.133,2.133,2.133,0,0,1,3.155-.015,5.928,5.928,0,0,1,.532,3.147A5.931,5.931,0,0,1,115.942,81.453Zm-1.581-5.95a.753.753,0,0,0-.647.316,5.711,5.711,0,0,0-.3,2.486,5.657,5.657,0,0,0,.3,2.472.751.751,0,0,0,.647.316.769.769,0,0,0,.661-.316,5.882,5.882,0,0,0,.287-2.472,5.936,5.936,0,0,0-.287-2.486A.771.771,0,0,0,114.361,75.5Z" transform="translate(-81.24 -71.795)"/><path class="a" d="M133.8,82.028h-1.106v-.661a1.7,1.7,0,0,1-.431.5,1.409,1.409,0,0,1-.876.273,1.616,1.616,0,0,1-1.273-.546,2.494,2.494,0,0,1-.481-1.682,2.135,2.135,0,0,1,.661-1.681,2.286,2.286,0,0,1,1.581-.5h.762V76.552q0-1.063-.876-1.063a.755.755,0,0,0-.575.244,1.208,1.208,0,0,0-.273.863h-1.164a2.117,2.117,0,0,1,.561-1.567,1.963,1.963,0,0,1,1.451-.56,1.934,1.934,0,0,1,1.451.518,2.243,2.243,0,0,1,.589,1.638Zm-2.659-3.177a1.327,1.327,0,0,0-.345,1.021q0,1.25.905,1.25a.826.826,0,0,0,.676-.323,1.308,1.308,0,0,0,.258-.841v-1.38h-.661A1.166,1.166,0,0,0,131.136,78.851Z" transform="translate(-84.449 -71.795)"/><path class="a" d="M97.632,81.423l-.488-2.415H94.771l-.488,2.415H92.989L95.375,71.19h1.193l2.372,10.233ZM95,77.9h1.911l-.948-4.714Z" transform="translate(-77.684 -71.19)"/><path class="a" d="M87.866,80.777a.81.81,0,0,0,.651.316.859.859,0,0,0,.666-.288,1.217,1.217,0,0,0,.261-.847h1.164a2.41,2.41,0,0,1-.594,1.638,1.935,1.935,0,0,1-1.49.546,1.979,1.979,0,0,1-1.476-.575q-.665-.676-.665-3.263a12.694,12.694,0,0,1,.115-2,2.213,2.213,0,0,1,.532-1.265,1.958,1.958,0,0,1,1.466-.575,1.9,1.9,0,0,1,1.465.575,2.687,2.687,0,0,1,.561,1.423,18.114,18.114,0,0,1,.086,2.113H87.548A4.436,4.436,0,0,0,87.866,80.777ZM88.5,75.5a.83.83,0,0,0-.676.345,3.867,3.867,0,0,0-.273,1.854h1.9a3.7,3.7,0,0,0-.273-1.868A.845.845,0,0,0,88.5,75.5Z" transform="translate(-76.464 -71.795)"/></g><g class="b"><g transform="translate(-3.583 -3.436)"><circle class="a" cx="3.407" cy="3.407" r="3.407" transform="translate(2.415 2.677)"/><circle class="a" cx="4.362" cy="4.362" r="4.362" transform="translate(1.723 7.395)"/><circle class="a" cx="4.334" cy="4.334" r="4.334" transform="translate(5.944 1.569)"/><circle class="a" cx="4.334" cy="4.334" r="4.334" transform="translate(6.556 7.597)"/><circle class="a" cx="2.502" cy="2.502" r="2.502" transform="translate(10.397 5.242)"/><circle class="a" cx="2.502" cy="2.502" r="2.502" transform="translate(5.417)"/><circle class="a" cx="2.502" cy="2.502" r="2.502" transform="translate(0 8.65)"/></g></g></g></g></g></svg>