<svg xmlns="http://www.w3.org/2000/svg" width="73.969" height="62.77" viewBox="0 0 73.969 62.77"><defs><style>.a{fill:#d93348;}</style></defs><path class="a" d="M-213.565,278.278h-1.91a1.008,1.008,0,0,0-.1-.416l-9.788-20.042c0-.01-.012-.018-.018-.028h0l.734-.251a1.017,1.017,0,0,0,.634-1.291,1.017,1.017,0,0,0-1.291-.634l-19.259,6.574a5.894,5.894,0,0,0-5.171-3.074A5.9,5.9,0,0,0-255.625,265a5.914,5.914,0,0,0,.075.935l-19.264,6.576a1.017,1.017,0,0,0-.634,1.292,1.018,1.018,0,0,0,.963.689,1.018,1.018,0,0,0,.329-.055l.376-.128-9.708,19.878a1.02,1.02,0,0,0-.058.157H-285.5a1.017,1.017,0,0,0-1.017,1.017c0,2.518,1.49,4.85,4.2,6.569a17.978,17.978,0,0,0,9.535,2.524,17.978,17.978,0,0,0,9.535-2.524c2.705-1.719,4.2-4.051,4.2-6.569a1.017,1.017,0,0,0-1.017-1.017h-1.953a1.02,1.02,0,0,0-.058-.157l-9.788-20.043c0-.01-.012-.018-.017-.028a1.018,1.018,0,0,0-.058-.093c-.018-.026-.035-.052-.054-.076a.982.982,0,0,0-.068-.072,1,1,0,0,0-.074-.07l-.05-.038,17.311-5.91a5.9,5.9,0,0,0,4.13,2.942v37.576c0,.005,0,.01,0,.016h-15.963a2.037,2.037,0,0,0-2.035,2.035v6.882a1.017,1.017,0,0,0,1.017,1.017h34.9a1.017,1.017,0,0,0,1.017-1.017v-6.882a2.037,2.037,0,0,0-2.035-2.035H-248.72c0-.005,0-.01,0-.016V270.8a5.9,5.9,0,0,0,4.872-5.8,5.893,5.893,0,0,0-.067-.887l16.377-5.59-9.443,19.336a1.008,1.008,0,0,0-.1.416h-1.91a1.017,1.017,0,0,0-1.017,1.017c0,2.518,1.49,4.85,4.2,6.569a17.98,17.98,0,0,0,9.535,2.524,17.98,17.98,0,0,0,9.535-2.524c2.705-1.719,4.2-4.051,4.2-6.569A1.017,1.017,0,0,0-213.565,278.278Zm-47.653,18.1c-.846,3.364-5.8,6.041-11.568,6.041s-10.723-2.676-11.569-6.041Zm-3.054-2.035H-281.3l8.515-17.435Zm30.424,16.082v5.865h-32.867v-5.865Zm-15.888-41.572A3.859,3.859,0,0,1-253.59,265a3.859,3.859,0,0,1,3.855-3.855A3.859,3.859,0,0,1-245.881,265,3.859,3.859,0,0,1-249.736,268.858Zm23.458-8.273,8.641,17.694h-17.282Zm0,25.769c-5.768,0-10.723-2.676-11.568-6.041h23.137C-215.555,283.677-220.509,286.353-226.278,286.353Z" transform="translate(286.517 -255.559)"/></svg>