<svg xmlns="http://www.w3.org/2000/svg" width="44.038" height="62.406" viewBox="0 0 44.038 62.406"><defs><style>.a{fill:#102b6c;}</style></defs><path class="a" d="M773,247.087H745.115V200.835a.835.835,0,0,0-.835-.835H730.631a.835.835,0,0,0-.835.835v60.741a.831.831,0,0,0,.245.585.836.836,0,0,0,.59.245H773a.834.834,0,0,0,.835-.835V247.922A.834.834,0,0,0,773,247.087Zm-41.533,7.01h2.666a.835.835,0,0,0,0-1.67h-2.666v-2.742h2.666a.835.835,0,0,0,0-1.67h-2.666v-2.742h2.666a.835.835,0,0,0,0-1.67h-2.666v-2.741h1.206a.835.835,0,1,0,0-1.67h-1.206V236.45h2.666a.835.835,0,0,0,0-1.67h-2.666v-2.742h2.666a.835.835,0,1,0,0-1.67h-2.666v-2.742h2.666a.835.835,0,1,0,0-1.67h-2.666v-2.742h1.206a.835.835,0,0,0,0-1.67h-1.206V218.8h2.666a.835.835,0,1,0,0-1.67h-2.666V214.39h2.666a.835.835,0,1,0,0-1.67h-2.666v-2.742h2.666a.835.835,0,1,0,0-1.67h-2.666v-2.742h1.206a.835.835,0,1,0,0-1.67h-1.206V201.67h11.98v45.907l-11.98,11.979Zm40.7,6.639H732.647l11.979-11.979h27.538Z" transform="translate(-729.796 -200)"/></svg>