<svg xmlns="http://www.w3.org/2000/svg" xmlns:xlink="http://www.w3.org/1999/xlink" width="178" height="60" viewBox="0 0 178 60"><defs><style>.a{fill:red;stroke:#707070;}.b{fill:none;}.c{clip-path:url(#a);}.ad,.d{fill:#231f20;}.d{fill-rule:evenodd;}.e{clip-path:url(#b);}.f{fill:url(#c);}.g{clip-path:url(#d);}.h{fill:url(#e);}.i{clip-path:url(#f);}.j{fill:url(#g);}.k{clip-path:url(#h);}.l{fill:url(#i);}.m{clip-path:url(#j);}.n{fill:url(#k);}.o{clip-path:url(#l);}.p{fill:url(#m);}.q{clip-path:url(#n);}.r{fill:url(#o);}.s{clip-path:url(#p);}.t{fill:url(#q);}.u{clip-path:url(#r);}.v{fill:url(#s);}.w{clip-path:url(#t);}.x{fill:url(#u);}.y{clip-path:url(#v);}.z{fill:url(#w);}.aa{fill:#fff;}.ab{fill:#262261;}.ac{fill:#a7a8aa;}</style><clipPath id="a"><rect class="a" width="178" height="60" transform="translate(147 5883)"/></clipPath><clipPath id="b"><path class="b" d="M38.335,563.493h3.479q2.319,0,2.319,3.479t-2.319,3.479H38.335ZM33.7,558.854V575.09h8.118q6.958,0,6.958-8.117t-6.958-8.118ZM49.932,575.09H54.57V558.854H49.932Zm11.6-16.236q-5.8,0-5.8,5.173,0,5.265,5.8,5.265h3.479q1.16,0,1.16.533,0,.627-1.16.626H55.73v4.639h9.278q5.8,0,5.8-5.265,0-5.171-5.8-5.172H61.529q-1.16,0-1.16-.626,0-.534,1.16-.533h9.277v-4.639Zm12.814,2.377a8.118,8.118,0,0,0,11.481,11.481,8,8,0,0,0,1.786-2.644l-4.256-1.89a3.428,3.428,0,0,1-.812,1.253,3.479,3.479,0,1,1,0-4.917,3.385,3.385,0,0,1,.847,1.345l4.233-1.983a8.164,8.164,0,0,0-1.8-2.644,8.119,8.119,0,0,0-11.481,0m49.172-2.377-3.479,9.278-3.479-9.278h-4.639l5.8,16.236h4.639l5.8-16.236Zm5.8,0V575.09h13.916v-4.639h-9.277v-1.159h6.958v-4.639h-6.958v-1.159h9.277v-4.639Zm19.715,4.639h4.639a1.16,1.16,0,1,1,0,2.319h-4.639Zm-4.639-4.639V575.09h4.639v-4.639l4.639,4.639h5.8l-4.639-4.639q4.638,0,4.639-5.8t-5.8-5.8Zm25.594,0-3.166,4.639-3.166-4.639H158.7l5.8,9.278v6.958h4.639v-6.958l5.8-9.278Z" transform="translate(-33.696 -558.854)"/></clipPath><linearGradient id="c" x1="-0.077" y1="-6.46" x2="-0.075" y2="-6.46" gradientUnits="objectBoundingBox"><stop offset="0" stop-color="#4993cf"/><stop offset="1" stop-color="#3b56a5"/></linearGradient><clipPath id="d"><path class="b" d="M218.533,580.924a7.309,7.309,0,0,0,2.409,5.517l.895-.9a6.337,6.337,0,1,1,10.006-1.85l1.109.669a7.62,7.62,0,1,0-14.419-3.439" transform="translate(-218.533 -573.301)"/></clipPath><linearGradient id="e" x1="-3.777" y1="-5.451" x2="-3.76" y2="-5.451" gradientUnits="objectBoundingBox"><stop offset="0" stop-color="#f28083"/><stop offset="1" stop-color="#ed2b31"/></linearGradient><clipPath id="f"><path class="b" d="M224.923,585.242a5.541,5.541,0,0,0,.281,1.737l1.632-.456a3.42,3.42,0,0,1-.2-1.282,3.833,3.833,0,1,1,6.927,2.253l1.266,1.176a5.549,5.549,0,1,0-9.911-3.429" transform="translate(-224.923 -579.69)"/></clipPath><linearGradient id="g" x1="-5.502" y1="-7.836" x2="-5.478" y2="-7.836" gradientUnits="objectBoundingBox"><stop offset="0" stop-color="#e37fb2"/><stop offset="1" stop-color="#ec2180"/></linearGradient><clipPath id="h"><path class="b" d="M230.14,588.755c0,.06.006.118.009.177l1.181-.147c0-.01,0-.021,0-.031a2.651,2.651,0,1,1,4.114,2.209l.657.971a3.716,3.716,0,0,0,1.72-3.18,3.839,3.839,0,0,0-7.678,0" transform="translate(-230.14 -584.917)"/></clipPath><linearGradient id="i" x1="-7.899" y1="-11.237" x2="-7.866" y2="-11.237" gradientUnits="objectBoundingBox"><stop offset="0" stop-color="#9e5da5"/><stop offset="1" stop-color="#5d50a0"/></linearGradient><clipPath id="j"><path class="b" d="M232.27,582.381a5.526,5.526,0,1,1-8.986,2.751l-.877-.3a6.439,6.439,0,1,0,10.34-3.27Z" transform="translate(-222.178 -581.562)"/></clipPath><linearGradient id="k" x1="-4.416" y1="-6.528" x2="-4.397" y2="-6.528" gradientUnits="objectBoundingBox"><stop offset="0" stop-color="#dd0f82"/><stop offset="1" stop-color="#ad1e3d"/></linearGradient><clipPath id="l"><path class="b" d="M215.881,579.13a8.129,8.129,0,0,0,1.844,5.214l.641-.561a7.6,7.6,0,1,1,11.365.727l.7.549a8.482,8.482,0,1,0-14.545-5.929" transform="translate(-215.881 -570.647)"/></clipPath><linearGradient id="m" x1="-3.005" y1="-4.64" x2="-2.99" y2="-4.64" gradientUnits="objectBoundingBox"><stop offset="0" stop-color="#f37721"/><stop offset="1" stop-color="#fac614"/></linearGradient><clipPath id="n"><path class="b" d="M213.008,577l.982.025a8.418,8.418,0,0,1,11.574-7.669l.373-.912A9.417,9.417,0,0,0,213.008,577" transform="translate(-213.008 -567.763)"/></clipPath><linearGradient id="o" x1="-4.26" y1="-6.508" x2="-4.239" y2="-6.508" gradientUnits="objectBoundingBox"><stop offset="0" stop-color="#ffcf1c"/><stop offset="1" stop-color="#f6eb28"/></linearGradient><clipPath id="p"><path class="b" d="M257.776,579.154a9.415,9.415,0,0,1-4.1,13.819l.612,1.143A10.719,10.719,0,0,0,258.8,578.35Z" transform="translate(-253.678 -578.35)"/></clipPath><linearGradient id="q" x1="-4.588" y1="-8.43" x2="-4.569" y2="-8.43" gradientUnits="objectBoundingBox"><stop offset="0" stop-color="#c7db5d"/><stop offset="1" stop-color="#7bab41"/></linearGradient><clipPath id="r"><path class="b" d="M208.988,576.648a10.7,10.7,0,0,0,.591,3.509l1.211-.452a9.408,9.408,0,0,1,4.953-11.61l-.655-1.123a10.72,10.72,0,0,0-6.1,9.675" transform="translate(-208.988 -566.973)"/></clipPath><linearGradient id="s" x1="-4.436" y1="-9.029" x2="-4.414" y2="-9.029" xlink:href="#q"/><clipPath id="t"><path class="b" d="M207.977,573.792a11.071,11.071,0,0,0,.157,1.843l.435-.106a10.8,10.8,0,0,1-.147-1.737,10.6,10.6,0,1,1,17.834,7.738l.27.365a11.045,11.045,0,1,0-18.549-8.1" transform="translate(-207.977 -562.747)"/></clipPath><linearGradient id="u" x1="-2.244" y1="-3.602" x2="-2.233" y2="-3.602" gradientUnits="objectBoundingBox"><stop offset="0" stop-color="#62c9e4"/><stop offset="1" stop-color="#427fc0"/></linearGradient><clipPath id="v"><path class="b" d="M204.089,571.162c0,.32.016.637.04.95l1.284-.228c-.017-.239-.027-.479-.028-.722a11.011,11.011,0,1,1,19.938,6.431l.969.884a12.307,12.307,0,1,0-22.2-7.315" transform="translate(-204.089 -558.854)"/></clipPath><linearGradient id="w" x1="-2.163" y1="-3.183" x2="-2.152" y2="-3.183" xlink:href="#c"/></defs><g class="c" transform="translate(-147 -5883)"><g transform="translate(114.507 5373.082)"><g transform="translate(33.492 509.918)"><path class="d" d="M90.322,522.866v-12.6h3.849l4.341,6.749v-6.749h3.963v12.6H98.539L94.29,516.28v6.586Zm-7.378-2.781a2.429,2.429,0,0,0,1.286-.356,2.456,2.456,0,0,0,.927-1.172,5.153,5.153,0,0,0,.347-2.009,6.028,6.028,0,0,0-.172-1.51,3.24,3.24,0,0,0-.45-1.077,2.376,2.376,0,0,0-.774-.686A2.116,2.116,0,0,0,83.021,513a2.328,2.328,0,0,0-1.275.382,2.6,2.6,0,0,0-.958,1.192,4.973,4.973,0,0,0-.347,1.978,4.281,4.281,0,0,0,.809,2.772,2.081,2.081,0,0,0,1.695.765m.051,3.111a6.231,6.231,0,0,1-6.634-6.656,7.617,7.617,0,0,1,.413-2.587,5.87,5.87,0,0,1,1.121-1.93,5.725,5.725,0,0,1,1.48-1.207,6.859,6.859,0,0,1,1.657-.653,7.86,7.86,0,0,1,5.318.55,5.4,5.4,0,0,1,2.4,2.273,6.869,6.869,0,0,1,.836,3.425,7.708,7.708,0,0,1-.73,3.4,5.87,5.87,0,0,1-2.222,2.442,6.666,6.666,0,0,1-3.634.939m-7.41-8.116H71.676A2.229,2.229,0,0,0,71,513.613a2.027,2.027,0,0,0-1.444-.532,2.211,2.211,0,0,0-1.789.853,4.421,4.421,0,0,0-.686,2.763,5.289,5.289,0,0,0,.294,2,2.239,2.239,0,0,0,.818,1.024,2.43,2.43,0,0,0,1.31.33,2.152,2.152,0,0,0,1.521-.521,2.407,2.407,0,0,0,.671-1.563h3.979a7.087,7.087,0,0,1-.471,1.972,5.144,5.144,0,0,1-1.138,1.6,5.516,5.516,0,0,1-1.893,1.242,6.836,6.836,0,0,1-2.537.433,8.072,8.072,0,0,1-2.666-.424,5.622,5.622,0,0,1-3.348-3.014,7.359,7.359,0,0,1-.657-3.146,7.7,7.7,0,0,1,.477-2.737,6.049,6.049,0,0,1,1.313-2.128,5.67,5.67,0,0,1,1.851-1.295,7.238,7.238,0,0,1,2.867-.55,7.936,7.936,0,0,1,2.561.409,4.962,4.962,0,0,1,1.972,1.2,5.4,5.4,0,0,1,1.185,1.807,6.406,6.406,0,0,1,.4,1.745m-13.84-1.172H57.816a1.333,1.333,0,0,0-.532-.818,1.87,1.87,0,0,0-1.1-.277,1.729,1.729,0,0,0-1.075.288.677.677,0,0,0-.279.563.6.6,0,0,0,.209.477,3.766,3.766,0,0,0,1.4.532l1.607.391a6.057,6.057,0,0,1,3.128,1.53,3.3,3.3,0,0,1,.9,2.293,3.909,3.909,0,0,1-.468,1.9,3.975,3.975,0,0,1-1.139,1.348,5.247,5.247,0,0,1-1.757.78,8.484,8.484,0,0,1-2.266.295A8.661,8.661,0,0,1,54,522.875a5.187,5.187,0,0,1-1.9-.974,4.361,4.361,0,0,1-1.121-1.466,5.083,5.083,0,0,1-.371-1.46h3.972a1.477,1.477,0,0,0,.6.919,2.493,2.493,0,0,0,1.416.321,1.993,1.993,0,0,0,1.2-.277.7.7,0,0,0,.27-.585.813.813,0,0,0-.251-.615,3.608,3.608,0,0,0-1.356-.5l-1.442-.356a10.436,10.436,0,0,1-2.119-.747A3.624,3.624,0,0,1,51.4,515.9a3.228,3.228,0,0,1-.506-1.831,3.893,3.893,0,0,1,.453-1.888,3.738,3.738,0,0,1,1.207-1.328,5.045,5.045,0,0,1,1.7-.712,8.75,8.75,0,0,1,1.926-.209,8.977,8.977,0,0,1,2.165.242,4.908,4.908,0,0,1,1.566.626,3.488,3.488,0,0,1,.943.888,4.208,4.208,0,0,1,.567,1.013,6.02,6.02,0,0,1,.33,1.209m-15.876-3.647h4.137v12.6H45.868Zm-12.376,0H45.064v3.317H41.338v9.288h-4.12v-9.288H33.492Z" transform="translate(-33.492 -509.918)"/></g><g transform="translate(33.558 525.786)"><g class="e" transform="translate(0 0)"><rect class="f" width="141.241" height="16.236" transform="translate(0)"/></g></g><g transform="translate(93.493 530.47)"><g class="g" transform="translate(0 0)"><rect class="h" width="18.666" height="19.572" transform="matrix(0.458, -0.889, 0.889, 0.458, -5.352, 10.381)"/></g></g><g transform="translate(95.565 532.542)"><g class="i"><rect class="j" width="13.794" height="14.261" transform="matrix(0.588, -0.809, 0.809, 0.588, -4.273, 5.871)"/></g></g><g transform="translate(97.257 534.237)"><g class="k" transform="translate(0 0)"><rect class="l" width="10.078" height="10.269" transform="matrix(0.548, -0.837, 0.837, 0.548, -3.217, 4.912)"/></g></g><g transform="translate(94.675 533.149)"><g class="m"><rect class="n" width="16.586" height="17.017" transform="matrix(0.548, -0.836, 0.836, 0.548, -5.221, 7.962)"/></g></g><g transform="translate(92.633 529.61)"><g class="o" transform="translate(0 0)"><rect class="p" width="22.019" height="22.259" transform="matrix(0.659, -0.753, 0.753, 0.659, -7.142, 8.163)"/></g></g><g transform="translate(91.701 528.675)"><g class="q" transform="translate(0 0)"><rect class="r" width="15.555" height="15.792" transform="translate(-4.611 5.053) rotate(-47.618)"/></g></g><g transform="translate(104.889 532.108)"><g class="s"><rect class="t" width="17.195" height="13.397" transform="translate(-6.421 12.455) rotate(-62.727)"/></g></g><g transform="translate(90.398 528.419)"><g class="u"><rect class="v" width="14.814" height="12.046" transform="matrix(0.458, -0.889, 0.889, 0.458, -5.37, 10.416)"/></g></g><g transform="translate(90.07 527.048)"><g class="w" transform="translate(0 0)"><rect class="x" width="29.18" height="28.627" transform="translate(-9.237 7.057) rotate(-37.378)"/></g></g><g transform="translate(88.809 525.786)"><g class="y" transform="translate(0 0)"><rect class="z" width="30.225" height="31.425" transform="translate(-9.245 13.097) rotate(-54.783)"/></g></g><g transform="translate(33.791 534.796)"><path d="M238.861,590.694a2.919,2.919,0,1,1-2.919-2.919,2.919,2.919,0,0,1,2.919,2.919" transform="translate(-168.622 -587.407)"/><path class="aa" d="M249.579,588.042a1.4,1.4,0,1,1-1.4-1.4,1.4,1.4,0,0,1,1.4,1.4" transform="translate(-177.914 -586.64)"/><path class="aa" d="M252.953,597.018a.828.828,0,1,1-.828-.828.828.828,0,0,1,.828.828" transform="translate(-180.971 -593.093)"/><path class="ab" d="M254.018,605.774s-15.74,2.67-19.815,7.237a6.189,6.189,0,0,0,4.216,2.67s6.254-4.075,7.659-4.075a52.262,52.262,0,0,1-1.972,9.286c-9.432,1.062-31.146,2.162-68.277-3.009l1.981,2.311a283.148,283.148,0,0,0,65.6,2.946,78.437,78.437,0,0,1-3.861,9.546s1.195,2.108,5.9,1.756c0,0,1.86-9.637,3.1-11.746.627-.061,2.741-.152,3.371-.219l-1.5-.027c1.858.183,5.419.068,11.68-3.466,8.713-4.918,10.54-15.458-8.081-13.21m-4.286,14.264,4.778-10.68-.562-.492.492-.141c11.172-3.3,13.772,1.054,10.61,4.848s-15.318,6.465-15.318,6.465" transform="translate(-129.973 -599.36)"/><path class="ab" d="M469.9,618.556h-2.6s-6.675,7.519-7.87,7.519,2.881-5.551,3.092-5.762-.913-1.194-5.2-.562c0,0-4.286,8.643-5.129,15.669a5.813,5.813,0,0,0,4,.7s.562-6.745,8.081-12.366c0,0,1.757,2.389,4.286,2.108l1.827-2.038a4.6,4.6,0,0,1-.492-5.27" transform="translate(-316.727 -608.207)"/><path class="ab" d="M527.431,609.945s.352-3.021-3.443-2.108a4.662,4.662,0,0,0-3.865-1.335c-2.178.422-8.854,4.005-10.4,10.329s2.74,6.394,5.9,5.973,12.226-6.956,11.8-12.859M515.275,621.89s-2.719.513-.492-5.129c2.108-5.34,8.292-8.221,8.292-8.221,3.654,8.642-7.8,13.35-7.8,13.35" transform="translate(-355.38 -600.017)"/><rect class="ac" width="105.456" height="1.505" transform="translate(0 30.874)"/><rect class="ac" width="52.57" height="1.505" transform="translate(119.193 30.874)"/><path class="ad" d="M193.85,629.17l2.252.412-.126.685-1.419-.26-.154.844,1.326.243-.124.679-1.327-.243-.272,1.485-.833-.153Z" transform="translate(-141.694 -615.38)"/><path class="ad" d="M205.993,633.46a1.786,1.786,0,0,1-2.135,1.662,1.757,1.757,0,0,1-1.442-2.173,1.822,1.822,0,0,1,2.117-1.654,1.753,1.753,0,0,1,1.46,2.165m-2.688-.386c-.117.732.142,1.3.7,1.389s.979-.4,1.094-1.118c.108-.671-.114-1.294-.693-1.387s-.989.395-1.1,1.116" transform="translate(-147.919 -616.798)"/><path class="ad" d="M217.153,637a2.493,2.493,0,0,1-.971.028,1.79,1.79,0,0,1-1.688-2.136,1.91,1.91,0,0,1,2.3-1.687,2.121,2.121,0,0,1,.893.293l-.269.638a1.782,1.782,0,0,0-.687-.236,1.235,1.235,0,0,0-.334,2.446,2.028,2.028,0,0,0,.723-.024Z" transform="translate(-156.085 -618.089)"/><path class="ad" d="M226.119,634.1l-.26,2.141c-.079.647.131,1,.556,1.055.443.054.723-.227.8-.89l.26-2.14.84.1-.254,2.091c-.14,1.15-.787,1.627-1.76,1.509-.94-.114-1.424-.706-1.281-1.889l.253-2.08Z" transform="translate(-163.201 -618.645)"/><path class="ad" d="M236,638.376a2.151,2.151,0,0,0,.912.331c.388.041.61-.1.636-.342s-.139-.385-.572-.587c-.6-.287-.972-.674-.915-1.217.067-.637.655-1.063,1.531-.971a2.2,2.2,0,0,1,.934.288l-.26.656a1.759,1.759,0,0,0-.757-.258c-.366-.039-.561.115-.581.3-.025.238.169.365.638.6.634.313.9.689.847,1.215-.065.626-.6,1.109-1.624,1a2.447,2.447,0,0,1-1.035-.344Z" transform="translate(-170.47 -619.709)"/><path class="ad" d="M252.5,638.889a1.786,1.786,0,0,1-2,1.818,1.757,1.757,0,0,1-1.6-2.06,1.822,1.822,0,0,1,1.987-1.808,1.753,1.753,0,0,1,1.618,2.049m-2.709-.183c-.062.739.239,1.285.806,1.332s.946-.469,1.007-1.2c.057-.677-.211-1.282-.794-1.331s-.957.468-1.018,1.2" transform="translate(-179.339 -620.557)"/><path class="ad" d="M261.279,641.385l.255-3.749.99.067.686,1.426a11.935,11.935,0,0,1,.525,1.327h.011a15.559,15.559,0,0,1,.04-1.573l.074-1.09.779.053-.255,3.749-.889-.06-.7-1.5a12.679,12.679,0,0,1-.561-1.369h-.022c-.006.5-.031,1.032-.073,1.644l-.077,1.129Z" transform="translate(-187.716 -621.1)"/><path class="ad" d="M278.339,640.835l-1.381-.068-.044.891,1.543.076-.034.7-2.389-.118.185-3.754,2.311.114-.034.7-1.465-.072-.039.78,1.381.068Z" transform="translate(-197.686 -621.723)"/><path class="ad" d="M286.624,642.813l-.315-.692c-.129-.267-.211-.465-.309-.686h-.011c-.086.214-.188.406-.32.663l-.331.668-.969-.036,1.156-1.859-.979-1.893.975.035.3.7c.1.232.18.419.261.634h.011c.1-.236.177-.4.279-.614l.343-.673.969.035-1.126,1.794,1.043,1.962Z" transform="translate(-203.318 -622.007)"/><path class="ad" d="M297.661,643.055a2.493,2.493,0,0,1-.962.138,1.79,1.79,0,0,1-1.92-1.93,1.909,1.909,0,0,1,2.1-1.939,2.126,2.126,0,0,1,.921.189l-.195.664a1.793,1.793,0,0,0-.709-.156,1.235,1.235,0,0,0-.054,2.467,2.026,2.026,0,0,0,.716-.106Z" transform="translate(-210.353 -622.24)"/><path class="ad" d="M307.718,641.77l-1.383-.016-.01.892,1.545.018-.008.7-2.392-.027.043-3.758,2.314.027-.008.7-1.466-.017-.009.781,1.383.016Z" transform="translate(-217.577 -622.411)"/><path class="ad" d="M314.683,639.67h.847v3.044h1.494v.713h-2.341Z" transform="translate(-223.803 -622.475)"/><path class="ad" d="M323.4,639.643l.848-.008.031,3.044,1.494-.015.008.714-2.342.024Z" transform="translate(-229.695 -622.45)"/><path class="ad" d="M334.4,641.578l-1.381.03.019.891,1.543-.034.015.7-2.389.052-.082-3.754,2.311-.05.015.7-1.465.032.017.78,1.381-.03Z" transform="translate(-235.591 -622.299)"/><path class="ad" d="M341.3,642.88l-.134-3.754.991-.035.828,1.348a11.88,11.88,0,0,1,.659,1.265h.011a15.475,15.475,0,0,1-.123-1.568l-.039-1.091.78-.028.133,3.754-.891.031-.854-1.419a12.823,12.823,0,0,1-.7-1.3h-.022c.046.5.076,1.029.1,1.642l.041,1.13Z" transform="translate(-241.702 -622.033)"/><path class="ad" d="M355.664,642.114a2.5,2.5,0,0,1-.95.209,1.791,1.791,0,0,1-2.059-1.785,1.911,1.911,0,0,1,1.951-2.09,2.134,2.134,0,0,1,.933.122l-.145.677a1.788,1.788,0,0,0-.72-.1,1.235,1.235,0,0,0,.127,2.466,2.031,2.031,0,0,0,.707-.158Z" transform="translate(-249.46 -621.646)"/><path class="ad" d="M365.44,640.139l-1.379.084.054.89,1.541-.093.042.695-2.386.146-.229-3.75,2.308-.14.042.7-1.463.089.047.779,1.38-.084Z" transform="translate(-256.51 -621.326)"/></g></g></g></svg>