<svg xmlns="http://www.w3.org/2000/svg" xmlns:xlink="http://www.w3.org/1999/xlink" width="136" height="60" viewBox="0 0 136 60"><defs><style>.a{fill:#fff;stroke:#707070;}.b{clip-path:url(#a);}.c,.e{fill:#dc002f;}.d,.f{fill:#0095b7;}.d,.e,.g{fill-rule:evenodd;}.g,.h{fill:#1a1818;}</style><clipPath id="a"><rect class="a" width="136" height="60" transform="translate(1121 5700)"/></clipPath></defs><g class="b" transform="translate(-1121 -5700)"><g transform="translate(-4522 3993)"><g transform="translate(5722.255 1731.541)"><g transform="translate(11.7 19.741)"><path class="c" d="M175.625,311.445v-3.64l-4.553-1.97v5.286Z" transform="translate(-171.072 -305.835)"/><g transform="translate(0 6.205)"><path class="c" d="M171.072,315.717V321l4.553-1.97V315.4Z" transform="translate(-171.072 -315.396)"/></g></g><g transform="translate(0 0)"><path class="d" d="M175.3,288.922a7.311,7.311,0,0,0,4.854-6.566c0-7.382-9.707-6.934-9.707-6.934h-9.421V291.41l4.649-5.465h7.086v.459h-6.749l-12.967,15.737h.663l12.6-15.319,8.5,10.135h7.3Zm-.866-6.118c0,2.111-2.753,1.989-2.753,1.989h-4.741V280.51h5.231A2.038,2.038,0,0,1,174.433,282.8Z" transform="translate(-153.044 -275.417)"/></g><g transform="translate(1.177 12.014)"><path class="e" d="M156.784,308.619,167.9,295.1l-.951-1.175-12.091,14.69Z" transform="translate(-154.858 -293.929)"/></g></g><g transform="translate(5643.238 1732.039)"><path class="f" d="M31.289,275.975H42.147c2.662,0,4.538.665,5.777,1.875a4.764,4.764,0,0,1,1.361,3.448v.06a4.9,4.9,0,0,1-3.266,4.719c2.571.846,4.2,2.3,4.2,5.172v.06c0,3.63-2.964,5.838-8.015,5.838H31.289Zm12.22,6.533c0-1.18-.938-1.815-2.661-1.815H37.006v3.72H40.7c1.785,0,2.813-.6,2.813-1.845Zm-2.027,6.019H37.006v3.9h4.537c1.814,0,2.813-.7,2.813-1.936v-.06C44.356,289.282,43.448,288.527,41.482,288.527Z" transform="translate(-31.289 -275.975)"/></g><g transform="translate(5663.21 1731.887)"><path class="f" d="M69.717,293.254,68.2,297.065h-6.14l8.983-21.324H76.7l6.868,16.248,2.586,5.076H79.425l-1.511-3.811-1.724-4.567-2.36-5.99-2.39,5.99Z" transform="translate(-62.064 -275.741)"/></g><g transform="translate(5752.642 1731.887)"><path class="f" d="M213.991,288.687l-2.36-5.99-2.389,5.99-1.724,4.567-1.513,3.811h-6.14l8.983-21.324h5.657l6.868,16.248,2.184,5.076h-6.33l-1.512-3.811Z" transform="translate(-199.866 -275.741)"/></g><g transform="translate(5688.968 1731.674)"><path class="f" d="M101.752,293.8l3.266-3.9a10.972,10.972,0,0,0,6.866,2.541c1.6,0,2.45-.544,2.45-1.452v-.06c0-.907-.7-1.362-3.6-2.057-4.507-1.028-7.984-2.3-7.984-6.624v-.06c0-3.932,3.115-6.775,8.2-6.775a13.328,13.328,0,0,1,8.711,2.813l-2.934,4.144a10.392,10.392,0,0,0-5.928-2.086c-1.421,0-2.117.574-2.117,1.361v.06c0,.968.726,1.392,3.69,2.057,4.839,1.058,7.864,2.632,7.864,6.594v.06c0,4.326-3.418,6.9-8.56,6.9A14.848,14.848,0,0,1,101.752,293.8Z" transform="translate(-101.752 -275.415)"/></g><g transform="translate(5643 1757.736)"><rect class="f" width="79.866" height="0.529" transform="translate(0 0)"/></g><g transform="translate(5643 1755.899)"><path class="c" d="M110.063,313.479H30.922v-.53h79.555Z" transform="translate(-30.922 -312.949)"/></g><g transform="translate(5710.343 1732.039)"><path class="f" d="M152.76,292.156H140.5V288.8h10.163v-4.627H140.5v-3.237h11.221v-4.96H134.689v21.172l14.014-.109Z" transform="translate(-134.689 -275.975)"/></g><g transform="translate(5643.238 1707)"><g transform="translate(36.656)"><path class="g" d="M87.771,237.013h18.064v5.472H100.6v13.277H93.169V242.485h-5.4Z" transform="translate(-87.771 -237.013)"/></g><g transform="translate(52.77)"><path class="g" d="M119.716,237.013h7.958l7.115,18.743h-7.265L123.7,244.463l-3.827,11.294H112.6Z" transform="translate(-112.601 -237.013)"/></g><g transform="translate(0)"><path class="g" d="M31.289,237.013H49.35v5.472H44.11v13.277H36.686V242.485h-5.4Z" transform="translate(-31.289 -237.013)"/></g><g transform="translate(16.109)"><path class="g" d="M63.228,237.013h7.96L78.3,255.757H71.032L67.21,244.463l-3.825,11.294H56.11Z" transform="translate(-56.11 -237.013)"/></g></g><g transform="translate(5643.223 1760.404)"><path class="h" d="M32.091,320.053v2.672H35.18v-2.672h.834v6.387H35.18v-2.995H32.091v2.995h-.825v-6.387Z" transform="translate(-31.266 -319.949)"/><path class="h" d="M47.135,323.123c0,2.2-1.336,3.364-2.966,3.364a2.928,2.928,0,0,1-2.872-3.24c0-2.028,1.26-3.355,2.967-3.355C46.007,319.892,47.135,321.228,47.135,323.123Zm-4.956.1c0,1.365.739,2.587,2.038,2.587s2.047-1.2,2.047-2.654c0-1.27-.663-2.6-2.037-2.6S42.178,321.825,42.178,323.228Z" transform="translate(-34.787 -319.892)"/><path class="h" d="M58.328,323.635c-.048-.891-.1-1.961-.095-2.758H58.2c-.218.749-.483,1.545-.806,2.427l-1.127,3.1h-.626l-1.033-3.042c-.3-.9-.559-1.724-.739-2.482h-.019c-.019.8-.066,1.867-.123,2.824l-.171,2.739h-.787l.445-6.387h1.053l1.09,3.089c.265.786.483,1.487.644,2.151h.028c.162-.644.389-1.346.673-2.151l1.137-3.089H58.9l.4,6.387h-.805Z" transform="translate(-38.816 -319.949)"/><path class="h" d="M69.179,323.445H66.7v2.3h2.767v.692H65.872v-6.387h3.449v.691H66.7v2.019h2.483Z" transform="translate(-43.413 -319.949)"/><path class="h" d="M78.053,325.379a2.924,2.924,0,0,0,1.478.417c.844,0,1.336-.445,1.336-1.09,0-.6-.341-.938-1.2-1.269-1.042-.371-1.687-.911-1.687-1.811a1.839,1.839,0,0,1,2.066-1.734,2.9,2.9,0,0,1,1.412.313l-.227.672a2.545,2.545,0,0,0-1.213-.3c-.872,0-1.2.521-1.2.957,0,.6.389.891,1.27,1.232,1.081.417,1.63.938,1.63,1.877,0,.986-.73,1.838-2.237,1.838a3.3,3.3,0,0,1-1.63-.408Z" transform="translate(-47.616 -319.892)"/><path class="h" d="M91.889,323.123c0,2.2-1.336,3.364-2.966,3.364a2.928,2.928,0,0,1-2.872-3.24c0-2.028,1.26-3.355,2.967-3.355C90.761,319.892,91.889,321.228,91.889,323.123Zm-4.956.1c0,1.365.739,2.587,2.038,2.587s2.047-1.2,2.047-2.654c0-1.27-.663-2.6-2.038-2.6S86.932,321.825,86.932,323.228Z" transform="translate(-50.496 -319.892)"/><path class="h" d="M97.791,320.053h.825v5.695h2.729v.692H97.791Z" transform="translate(-54.617 -319.949)"/><path class="h" d="M106.071,320.053v3.781c0,1.431.635,2.038,1.488,2.038.948,0,1.554-.626,1.554-2.038v-3.781h.834v3.724c0,1.961-1.033,2.767-2.417,2.767-1.308,0-2.294-.749-2.294-2.729v-3.762Z" transform="translate(-57.231 -319.949)"/><path class="h" d="M116.613,320.754H114.67v-.7H119.4v.7h-1.952v5.686h-.834Z" transform="translate(-60.542 -319.949)"/><path class="h" d="M124.971,320.053v6.387h-.825v-6.387Z" transform="translate(-63.868 -319.949)"/><path class="h" d="M133.985,323.123c0,2.2-1.337,3.364-2.967,3.364a2.928,2.928,0,0,1-2.872-3.24c0-2.028,1.26-3.355,2.966-3.355C132.857,319.892,133.985,321.228,133.985,323.123Zm-4.957.1c0,1.365.74,2.587,2.038,2.587s2.047-1.2,2.047-2.654c0-1.27-.663-2.6-2.037-2.6S129.028,321.825,129.028,323.228Z" transform="translate(-65.273 -319.892)"/><path class="h" d="M139.887,326.44v-6.387h.9l2.048,3.231a18.155,18.155,0,0,1,1.146,2.075l.019-.009c-.076-.853-.095-1.63-.095-2.625v-2.672h.777v6.387h-.834L141.82,323.2a20.166,20.166,0,0,1-1.194-2.132l-.029.01c.047.805.066,1.573.066,2.634v2.73Z" transform="translate(-69.394 -319.949)"/><path class="h" d="M150.3,325.379a2.922,2.922,0,0,0,1.478.417c.844,0,1.336-.445,1.336-1.09,0-.6-.341-.938-1.2-1.269-1.042-.371-1.687-.911-1.687-1.811a1.838,1.838,0,0,1,2.066-1.734,2.9,2.9,0,0,1,1.412.313l-.227.672a2.55,2.55,0,0,0-1.214-.3c-.872,0-1.2.521-1.2.957,0,.6.389.891,1.27,1.232,1.08.417,1.63.938,1.63,1.877,0,.986-.729,1.838-2.236,1.838a3.306,3.306,0,0,1-1.63-.408Z" transform="translate(-72.976 -319.892)"/></g></g></g></svg>