<svg xmlns="http://www.w3.org/2000/svg" xmlns:xlink="http://www.w3.org/1999/xlink" width="32" height="34" viewBox="0 0 32 34"><defs><style>.a{fill:red;}.b{clip-path:url(#a);}.c{fill:#fff;}</style><clipPath id="a"><rect class="a" width="32" height="34" transform="translate(0.197)"/></clipPath></defs><g class="b" transform="translate(-0.197)"><path class="c" d="M16.105,0A16.105,16.105,0,1,0,32.211,16.105,16.107,16.107,0,0,0,16.105,0Zm7.353,12.557q.011.238.011.478A10.446,10.446,0,0,1,12.952,23.553h0a10.464,10.464,0,0,1-5.666-1.661,7.519,7.519,0,0,0,.882.051,7.417,7.417,0,0,0,4.591-1.582A3.7,3.7,0,0,1,9.3,17.793a3.684,3.684,0,0,0,1.67-.063,3.7,3.7,0,0,1-2.966-3.624c0-.017,0-.032,0-.047a3.671,3.671,0,0,0,1.674.462A3.7,3.7,0,0,1,8.539,9.586a10.5,10.5,0,0,0,7.62,3.862,3.7,3.7,0,0,1,6.3-3.371,7.415,7.415,0,0,0,2.347-.9,3.711,3.711,0,0,1-1.626,2.045,7.372,7.372,0,0,0,2.123-.582,7.512,7.512,0,0,1-1.844,1.914Zm0,0" transform="translate(0.039 0)"/></g></svg>