<svg xmlns="http://www.w3.org/2000/svg" xmlns:xlink="http://www.w3.org/1999/xlink" width="32" height="34" viewBox="0 0 32 34"><defs><style>.a{fill:red;}.b{clip-path:url(#a);}.c{fill:#fff;}</style><clipPath id="a"><rect class="a" width="32" height="34" transform="translate(0.015)"/></clipPath></defs><g class="b" transform="translate(-0.015)"><g transform="translate(-0.196 0)"><path class="c" d="M224.113,214.506l5.614-3.233-5.614-3.233Zm0,0" transform="translate(-210.21 -195.557)"/><path class="c" d="M16.105,0A16.105,16.105,0,1,0,32.21,16.105,16.107,16.107,0,0,0,16.105,0ZM26.169,16.122a26.581,26.581,0,0,1-.414,4.841,2.522,2.522,0,0,1-1.774,1.774c-1.575.415-7.875.415-7.875.415s-6.283,0-7.875-.431a2.522,2.522,0,0,1-1.774-1.774,26.465,26.465,0,0,1-.415-4.841,26.564,26.564,0,0,1,.415-4.841A2.573,2.573,0,0,1,8.23,9.474c1.575-.415,7.875-.415,7.875-.415s6.3,0,7.875.431a2.522,2.522,0,0,1,1.774,1.774,25.225,25.225,0,0,1,.414,4.857Zm0,0" transform="translate(0 0)"/></g></g></svg>