<svg xmlns="http://www.w3.org/2000/svg" width="46.927" height="47" viewBox="0 0 46.927 47"><defs><style>.a{fill:#1a1818;}</style></defs><g transform="translate(-1068 -2186)"><path class="a" d="M115.668,129.616a2.937,2.937,0,0,0,.484,2.035l-6.9,7.78a.733.733,0,0,0,.065,1.033.7.7,0,0,0,.485.188.724.724,0,0,0,.549-.248l6.9-7.775a2.943,2.943,0,0,0,.93.3,3.349,3.349,0,0,0,.411.026,2.945,2.945,0,0,0,2.9-2.534,2.944,2.944,0,0,0-2.506-3.313A2.94,2.94,0,0,0,115.668,129.616Zm1.458.2a1.473,1.473,0,0,1,1.446-1.267,1.749,1.749,0,0,1,.217.014,1.482,1.482,0,0,1,.966.569,1.473,1.473,0,0,1-1.377,2.34,1.48,1.48,0,0,1-.971-.569A1.5,1.5,0,0,1,117.126,129.819Z" transform="translate(976.546 2083.184)"/><path class="a" d="M124.4,123.527a12.446,12.446,0,0,1-5.111-1.087.735.735,0,0,0-.6,1.34A13.955,13.955,0,1,0,124.4,97.09a.734.734,0,1,0,0,1.468,12.484,12.484,0,0,1,0,24.969Z" transform="translate(970.729 2102.162)"/><path class="a" d="M88.232,81.173A19.632,19.632,0,0,0,74.207,87H61.834a.734.734,0,1,0,0,1.469h19.8a.734.734,0,1,0,0-1.469H76.36a18.276,18.276,0,1,1-6.14,10.534.734.734,0,0,0-1.442-.276,20.085,20.085,0,0,0-.344,3.714,19.8,19.8,0,1,0,19.8-19.8Z" transform="translate(1006.901 2112.234)"/><path class="a" d="M172.733,86.862a.727.727,0,0,0,1.034-.073.735.735,0,0,0-.072-1.037l-3.323-2.878a.73.73,0,0,0-1.037.073.738.738,0,0,0,.073,1.033Z" transform="translate(938.52 2111.274)"/><path class="a" d="M120.212,66.866h8.062a2.21,2.21,0,0,0,2.208-2.2V63.2a2.209,2.209,0,0,0-2.208-2.2h-8.062a2.2,2.2,0,0,0-2.2,2.2v1.468A2.2,2.2,0,0,0,120.212,66.866ZM119.48,63.2a.733.733,0,0,1,.732-.735h8.062a.738.738,0,0,1,.737.735v1.468a.734.734,0,0,1-.737.731h-8.062a.729.729,0,0,1-.732-.731Z" transform="translate(970.885 2125)"/><path class="a" d="M92.294,109.772a.732.732,0,0,0-.737-.735H77.705a18.486,18.486,0,0,1,1.241-2.345.733.733,0,1,0-1.244-.777,19.505,19.505,0,0,0-1.579,3.121H71.736a.734.734,0,0,0,0,1.468H91.557A.735.735,0,0,0,92.294,109.772Z" transform="translate(1000.634 2096.796)"/></g></svg>