<svg xmlns="http://www.w3.org/2000/svg" xmlns:xlink="http://www.w3.org/1999/xlink" width="51" height="51" viewBox="0 0 51 51"><defs><style>.a,.c{fill:#1a1818;}.b{clip-path:url(#a);}.c{stroke:#fff;stroke-width:0.4px;}</style><clipPath id="a"><rect class="a" width="51" height="51" transform="translate(995 2306)"/></clipPath></defs><g class="b" transform="translate(-995 -2306)"><path class="c" d="M1184.019,433.5h-48.037a1.483,1.483,0,0,0-1.481,1.481v48.037a1.483,1.483,0,0,0,1.481,1.481h48.037a1.483,1.483,0,0,0,1.481-1.481V434.981A1.483,1.483,0,0,0,1184.019,433.5Zm-27.341,28.67a5.339,5.339,0,0,0-1.439,3.619v16.6h-18.622V435.616h45.9C1181.883,436.268,1157.469,461.331,1156.678,462.17Zm-.169,3.619a4.069,4.069,0,0,1,1.041-2.688c3.1-3.343,10.845-4.695,15.715.626,9.953-25.011,8.9-22.371,10.12-25.432v44.089h-26.875Z" transform="translate(-139.5 1872.5)"/><path class="a" d="M1153.489,479.177a2.877,2.877,0,0,1,.237-.212,1.641,1.641,0,0,1,1.236-.008c.247.267.485.512.736.775.814-.287,2.374-.874,3.035-1.122a1.585,1.585,0,0,1,1.807.267c1.215,1.164.184.2,3.018,2.886-2.8,1.893-2.073,1.376-4.038,2.861-.125-.018-2.846-.406-2.971-.419-.046.1-.56,1.224-.605,1.325-.04.005-.909.129-.948.135-.013.033-.388.869-.4.9l-1,.288c.019,0,1.017-.245,1.037-.245.007-.02.418-.841.427-.859.053,0,.925-.082.978-.089.033-.059.6-1.171.626-1.232l1.566.292s-.1.465-.4,1.765a5.567,5.567,0,0,1-.736,2.108c-.321.423-.536.485-1.629.923a3.459,3.459,0,0,0,1.727-.846,5.639,5.639,0,0,0,.9-2.116l.516-1.761.995.186c1.655-1.182,2.437-1.622,4.736-3.03l0,0,1.143-.711c.694-.047,3.046-.216,3.458-.216a.52.52,0,0,0,.245-.063,30.341,30.341,0,0,0,2.641-2.239c.127.127.258.25.385.372.14-.14.28-.284.423-.432-.406-.423-.16-.172-.783-.821-.917.77-1.453,1.236-2.032,1.706-.427-.093-1.12-.273-1.778-.394-.375-.056-.738-.137-.851-.525a4.973,4.973,0,0,0-.326-.889,5.9,5.9,0,0,1,.237.91c.078.437.485.6.9.7.474.132,1.418.449,1.477.474-.533.412-.356.273-.6.444-.592,0-3.225.177-3.648.195-.13.085-1.021.643-1.155.728-.565-.525-2.145-2-3.073-2.836a2.186,2.186,0,0,0-2.5-.309c-1.7.722-1.856.8-2.7,1.168-.644-.61-1.908-1.752-2.569-2.345-.3-.322-.614-.635-.914-.952.267.351.533.707.8,1.058l0,0c.851.93.967,1.052,1.435,1.549a1.508,1.508,0,0,0-.973.258c-.163.122-.125.16-.237.258a1.173,1.173,0,0,1-1.549.021A1.261,1.261,0,0,0,1153.489,479.177Z" transform="translate(-149.478 1848.039)"/></g></svg>