<svg xmlns="http://www.w3.org/2000/svg" xmlns:xlink="http://www.w3.org/1999/xlink" width="51" height="51" viewBox="0 0 51 51"><defs><style>.a{fill:red;}.b{clip-path:url(#a);}.c{fill:none;}.d{fill:#1a1818;}</style><clipPath id="a"><rect class="a" width="51" height="51" transform="translate(978 2274)"/></clipPath></defs><g class="b" transform="translate(-978 -2274)"><g transform="translate(83 148)"><path class="c" d="M2832.045,387.971a24.055,24.055,0,0,0-17.507,40.572l34.005-34.005A23.98,23.98,0,0,0,2832.045,387.971Zm-6.072,28.128-11.559-11.56a.686.686,0,1,1,.97-.97l11.559,11.56Z" transform="translate(-1911.545 1739.455)"/><path class="c" d="M2990.511,536.505l-34.005,34.005a24.055,24.055,0,0,0,34.005-34.005Zm-.361,12.749a.686.686,0,0,1-.686-.686v-2.684L2973.1,562.252a.686.686,0,0,1-.97,0l-3.177-3.177.97-.97,2.692,2.692,15.861-15.86h-2.638a.686.686,0,0,1,0-1.372h4.2a.673.673,0,0,1,.6.178.681.681,0,0,1,.2.5s0,.007,0,.011v4.317A.686.686,0,0,1,2990.151,549.254Z" transform="translate(-2052.504 1598.497)"/><path class="d" d="M3222.383,675.4a.667.667,0,0,0-.8-.675h-4.2a.686.686,0,0,0,0,1.372h2.638l-15.861,15.86-2.692-2.692-.97.97,3.177,3.177a.686.686,0,0,0,.97,0l16.368-16.368v2.684a.686.686,0,1,0,1.372,0V675.41S3222.384,675.4,3222.383,675.4Z" transform="translate(-2284.054 1467.338)"/><path class="d" d="M2930.551,690.085a.686.686,0,0,0,0,.97l11.559,11.56.97-.97-11.559-11.56A.685.685,0,0,0,2930.551,690.085Z" transform="translate(-2027.682 1452.94)"/><path class="d" d="M2805.5,360a25.5,25.5,0,1,0,25.5,25.5A25.529,25.529,0,0,0,2805.5,360Zm-24.073,25.5A24.055,24.055,0,0,1,2822,367.993L2787.993,402A23.981,23.981,0,0,1,2781.427,385.5Zm24.073,24.073a23.981,23.981,0,0,1-16.5-6.567L2823.007,369a24.055,24.055,0,0,1-17.507,40.572Z" transform="translate(-1885 1766)"/></g></g></svg>