<svg xmlns="http://www.w3.org/2000/svg" width="48.565" height="47.5" viewBox="0 0 48.565 47.5"><defs><style>.a{fill:#1a1818;stroke:#fff;stroke-width:0.5px;}</style></defs><g transform="translate(-19.685 -19.75)"><path class="a" d="M68,47a5.988,5.988,0,0,0-.853-3.084L60.9,33.505a1,1,0,1,0-1.714,1.03l6.25,10.41A4,4,0,0,1,62,51H59.733L52.478,38.9a1,1,0,1,0-1.716,1.028L57.4,51H51V48a1,1,0,0,0-1-1H49a1,1,0,0,0-.874.514l-5,9a1,1,0,0,0,0,.972l5,9A1,1,0,0,0,49,67h1a1,1,0,0,0,1-1V63h5a6.014,6.014,0,0,0,5.188-2.985l5.96-9.932c.008-.013.007-.028.015-.041A5.958,5.958,0,0,0,68,47ZM59.465,59A4.017,4.017,0,0,1,56,61H50a1,1,0,0,0-1,1v1.941L45.144,57,49,50.059V52a1,1,0,0,0,1,1H62a6.034,6.034,0,0,0,1.132-.11Z"/><path class="a" d="M43.351,61h0l-11.875.009a4,4,0,0,1-3.422-6.061L29.224,53H43.346a1,1,0,0,0,0-2H30.426l3.293-5.481,2.572,1.545a1,1,0,0,0,1.372-.342l.515-.857a1,1,0,0,0,.009-1.014L33.048,35.93a1,1,0,0,0-.833-.5l-10.29-.349a1,1,0,0,0-.89.484l-.515.857a1,1,0,0,0,.341,1.373l2.572,1.545-2.576,4.286a6.019,6.019,0,0,0-.113,5.985l5.443,10.223a1.018,1.018,0,0,0,.13.178,5.94,5.94,0,0,0,2.075,2.14,6,6,0,0,0,3.083.858L43.352,63a1,1,0,0,0,0-2ZM22.572,44.655l3.09-5.143a1,1,0,0,0-.342-1.373l-1.663-1,7.935.269,3.963,6.88-1.663-1a1,1,0,0,0-1.372.342L26.339,53.918a6.113,6.113,0,0,0-.489,1.024L22.5,48.656A4.017,4.017,0,0,1,22.572,44.655Z"/><path class="a" d="M27.36,34.163a1,1,0,0,0,1.353-.413l5.13-9.63a4.006,4.006,0,0,1,6.959-.176v0l1.169,1.945L35.718,37.63a1,1,0,0,0,.412,1.352.98.98,0,0,0,.469.118,1,1,0,0,0,.883-.53l5.691-10.679,3.3,5.491-2.529,1.542a1,1,0,0,0-.337,1.369l.515.858a1,1,0,0,0,.858.485h.034L55.3,37.286a1,1,0,0,0,.833-.5l5.139-8.921a1,1,0,0,0-.01-1.014l-.515-.857a1,1,0,0,0-1.367-.346L56.758,27.2,54.18,22.911A6.047,6.047,0,0,0,48.948,20l-11.582.007c-.016,0-.03.009-.046.01a5.956,5.956,0,0,0-3.038.848,6.02,6.02,0,0,0-2.205,2.315l-5.13,9.63A1,1,0,0,0,27.36,34.163ZM48.965,22a4,4,0,0,1,3.5,1.941l3.091,5.142a1,1,0,0,0,1.366.346L58.655,28.4l-3.976,6.9-7.963.27,1.645-1A1,1,0,0,0,48.7,33.2L42.52,22.923l0-.008a5.934,5.934,0,0,0-.676-.91Z"/></g></svg>