<svg xmlns="http://www.w3.org/2000/svg" width="200" height="90" viewBox="0 0 200 90"><defs><style>.a,.c{fill:#dc002f;}.b,.d{fill:#0095b7;}.b,.c,.e{fill-rule:evenodd;}.e,.f{fill:#1a1818;}</style></defs><g transform="translate(-5643 -1707)"><g transform="translate(5761.882 1743.811)"><g transform="translate(17.55 29.612)"><path class="a" d="M177.9,314.251v-5.46l-6.829-2.955v7.929Z" transform="translate(-171.072 -305.835)"/><g transform="translate(0 9.307)"><path class="a" d="M171.072,315.878v7.929l6.829-2.955V315.4Z" transform="translate(-171.072 -315.396)"/></g></g><g transform="translate(0 0)"><path class="b" d="M186.427,295.675a10.967,10.967,0,0,0,7.281-9.85c0-11.073-14.56-10.4-14.56-10.4H165.016v23.982l6.974-8.2h10.629v.688H172.495L153.044,315.5h.994l18.9-22.979,12.755,15.2h10.952Zm-1.3-9.177c0,3.166-4.13,2.983-4.13,2.983h-7.112v-6.424h7.846A3.057,3.057,0,0,1,185.128,286.5Z" transform="translate(-153.044 -275.417)"/></g><g transform="translate(1.766 18.021)"><path class="c" d="M157.746,315.964l16.674-20.272-1.427-1.762-18.136,22.035Z" transform="translate(-154.858 -293.929)"/></g></g><g transform="translate(5643.358 1744.558)"><path class="d" d="M31.289,275.975H47.576c3.993,0,6.807,1,8.666,2.812a7.146,7.146,0,0,1,2.041,5.172v.091c0,3.675-2.086,5.853-4.9,7.078,3.857,1.269,6.306,3.447,6.306,7.758v.091c0,5.445-4.446,8.756-12.022,8.756H31.289Zm18.33,9.8c0-1.77-1.407-2.722-3.992-2.722H39.864v5.58H45.4c2.677,0,4.22-.907,4.22-2.768Zm-3.04,9.029H39.864v5.853H46.67c2.721,0,4.219-1.044,4.219-2.9v-.091C50.889,295.936,49.528,294.8,46.578,294.8Z" transform="translate(-31.289 -275.975)"/></g><g transform="translate(5673.316 1744.331)"><path class="d" d="M73.543,302.01l-2.269,5.716h-9.21l13.475-31.985h8.484l10.3,24.372,3.878,7.614h-10.1l-2.267-5.716-2.587-6.85-3.54-8.984-3.584,8.984Z" transform="translate(-62.064 -275.741)"/></g><g transform="translate(5807.463 1744.331)"><path class="d" d="M221.054,295.16l-3.54-8.984-3.583,8.984-2.586,6.85-2.269,5.716h-9.21l13.475-31.985h8.485l10.3,24.372,3.276,7.614h-9.5l-2.267-5.716Z" transform="translate(-199.866 -275.741)"/></g><g transform="translate(5711.952 1744.011)"><path class="d" d="M101.752,303l4.9-5.852a16.457,16.457,0,0,0,10.3,3.811c2.4,0,3.675-.817,3.675-2.178v-.091c0-1.361-1.044-2.042-5.4-3.086-6.76-1.542-11.977-3.448-11.977-9.935v-.091c0-5.9,4.673-10.163,12.294-10.163,5.4,0,9.618,1.451,13.067,4.219l-4.4,6.216a15.588,15.588,0,0,0-8.893-3.13c-2.132,0-3.175.861-3.175,2.041v.09c0,1.451,1.088,2.087,5.535,3.085,7.259,1.588,11.8,3.948,11.8,9.891v.091c0,6.488-5.127,10.344-12.84,10.344A22.272,22.272,0,0,1,101.752,303Z" transform="translate(-101.752 -275.415)"/></g><g transform="translate(5643 1783.103)"><rect class="d" width="119.799" height="0.794" transform="translate(0 0)"/></g><g transform="translate(5643 1780.348)"><path class="a" d="M149.634,313.743H30.922v-.794H150.254Z" transform="translate(-30.922 -312.949)"/></g><g transform="translate(5744.015 1744.558)"><path class="d" d="M161.8,300.247H143.4v-5.037h15.244V288.27H143.4v-4.855h16.832v-7.44H134.689v31.758l21.021-.163Z" transform="translate(-134.689 -275.975)"/></g><g transform="translate(5643.358 1707)"><g transform="translate(54.984)"><path class="e" d="M87.771,237.013h27.1v8.207h-7.86v19.915H95.868V245.221h-8.1Z" transform="translate(-87.771 -237.013)"/></g><g transform="translate(79.155)"><path class="e" d="M123.274,237.013h11.937l10.672,28.115h-10.9l-5.742-16.941L123.5,265.128H112.6Z" transform="translate(-112.601 -237.013)"/></g><g transform="translate(0)"><path class="e" d="M31.289,237.013H58.381v8.207h-7.86v19.915H39.384V245.221h-8.1Z" transform="translate(-31.289 -237.013)"/></g><g transform="translate(24.163)"><path class="e" d="M66.786,237.013H78.726L89.4,265.128H78.494l-5.734-16.941-5.738,16.941H56.11Z" transform="translate(-56.11 -237.013)"/></g></g><g transform="translate(5643.334 1787.107)"><path class="f" d="M32.5,320.053v4.008h4.634v-4.008h1.251v9.581H37.137v-4.493H32.5v4.493H31.266v-9.581Z" transform="translate(-31.266 -319.896)"/><path class="f" d="M50.053,324.739c0,3.3-2,5.047-4.449,5.047-2.53,0-4.308-1.962-4.308-4.861,0-3.042,1.89-5.033,4.45-5.033C48.362,319.892,50.053,321.9,50.053,324.739Zm-7.434.157c0,2.047,1.109,3.881,3.057,3.881s3.07-1.806,3.07-3.981c0-1.905-.995-3.895-3.056-3.895S42.619,322.792,42.619,324.9Z" transform="translate(-31.532 -319.892)"/><path class="f" d="M61.105,325.426c-.072-1.337-.157-2.942-.142-4.136H60.92c-.327,1.123-.725,2.317-1.209,3.64l-1.691,4.647h-.938l-1.55-4.564c-.455-1.349-.838-2.586-1.109-3.724h-.028c-.028,1.194-.1,2.8-.185,4.237l-.256,4.108h-1.18l.668-9.581h1.579l1.634,4.634c.4,1.179.724,2.231.967,3.227h.042c.242-.967.583-2.019,1.009-3.227l1.706-4.634h1.579l.6,9.581H61.346Z" transform="translate(-31.836 -319.896)"/><path class="f" d="M70.833,325.141H67.108V328.6h4.151v1.039H65.872v-9.581h5.174v1.037H67.108v3.029h3.725Z" transform="translate(-32.184 -319.896)"/><path class="f" d="M78.157,328.123a4.386,4.386,0,0,0,2.218.625c1.266,0,2-.668,2-1.634,0-.9-.511-1.408-1.806-1.9-1.563-.556-2.53-1.366-2.53-2.716,0-1.493,1.237-2.6,3.1-2.6a4.345,4.345,0,0,1,2.118.469l-.341,1.009a3.816,3.816,0,0,0-1.819-.455c-1.308,0-1.806.782-1.806,1.436,0,.9.583,1.337,1.905,1.848,1.621.626,2.445,1.408,2.445,2.815,0,1.479-1.1,2.758-3.356,2.758a4.955,4.955,0,0,1-2.444-.611Z" transform="translate(-32.501 -319.892)"/><path class="f" d="M94.807,324.739c0,3.3-2,5.047-4.449,5.047-2.531,0-4.308-1.962-4.308-4.861,0-3.042,1.89-5.033,4.45-5.033C93.117,319.892,94.807,321.9,94.807,324.739Zm-7.434.157c0,2.047,1.109,3.881,3.057,3.881s3.07-1.806,3.07-3.981c0-1.905-.995-3.895-3.057-3.895S87.373,322.792,87.373,324.9Z" transform="translate(-32.719 -319.892)"/><path class="f" d="M97.791,320.053h1.237V328.6h4.093v1.039H97.791Z" transform="translate(-33.03 -319.896)"/><path class="f" d="M106.488,320.053v5.671c0,2.147.952,3.057,2.232,3.057,1.421,0,2.331-.938,2.331-3.057v-5.671H112.3v5.586c0,2.942-1.55,4.151-3.625,4.151-1.962,0-3.44-1.123-3.44-4.093v-5.643Z" transform="translate(-33.228 -319.896)"/><path class="f" d="M117.585,321.1H114.67v-1.051h7.094V321.1h-2.928v8.53h-1.251Z" transform="translate(-33.478 -319.896)"/><path class="f" d="M125.383,320.053v9.581h-1.237v-9.581Z" transform="translate(-33.729 -319.896)"/><path class="f" d="M136.9,324.739c0,3.3-2.005,5.047-4.45,5.047-2.53,0-4.308-1.962-4.308-4.861,0-3.042,1.89-5.033,4.45-5.033C135.212,319.892,136.9,321.9,136.9,324.739Zm-7.435.157c0,2.047,1.11,3.881,3.057,3.881s3.07-1.806,3.07-3.981c0-1.905-.995-3.895-3.056-3.895S129.469,322.792,129.469,324.9Z" transform="translate(-33.836 -319.892)"/><path class="f" d="M139.887,329.634v-9.581h1.35l3.071,4.847a27.237,27.237,0,0,1,1.719,3.112l.029-.014c-.114-1.279-.142-2.445-.142-3.938v-4.008h1.165v9.581h-1.251l-3.042-4.863a30.251,30.251,0,0,1-1.791-3.2l-.043.015c.071,1.208.1,2.36.1,3.951v4.094Z" transform="translate(-34.147 -319.896)"/><path class="f" d="M150.406,328.123a4.383,4.383,0,0,0,2.217.625c1.266,0,2-.668,2-1.634,0-.9-.511-1.408-1.8-1.9-1.563-.556-2.53-1.366-2.53-2.716,0-1.493,1.236-2.6,3.1-2.6a4.346,4.346,0,0,1,2.118.469l-.341,1.009a3.825,3.825,0,0,0-1.82-.455c-1.307,0-1.8.782-1.8,1.436,0,.9.583,1.337,1.905,1.848,1.62.626,2.444,1.408,2.444,2.815,0,1.479-1.094,2.758-3.355,2.758a4.96,4.96,0,0,1-2.445-.611Z" transform="translate(-34.418 -319.892)"/></g></g></svg>