<svg xmlns="http://www.w3.org/2000/svg" width="165.65" height="52.095" viewBox="0 0 165.65 52.095"><defs><style>.a{fill:#fff;}.b{fill:#90c2ca;}</style></defs><path class="a" d="M1252.4,1485.539h126.754c10.7,0,19.448,9.307,19.448,20.683h0c0,11.376-8.752,20.683-19.448,20.683h-94.088l-23.567,10.728,2.893-10.728H1252.4c-10.7,0-19.448-9.308-19.448-20.683h0C1232.955,1494.846,1241.707,1485.539,1252.4,1485.539Z" transform="translate(-1232.955 -1485.539)"/><path class="b" d="M1284.031,1538.495h-16.346c-8.873,0-16.092-7.7-16.092-17.159s7.219-17.159,16.092-17.159H1394.1c8.873,0,16.092,7.7,16.092,17.159s-7.219,17.159-16.092,17.159h-94.517l-17.732,8.094Z" transform="translate(-1248.069 -1500.652)"/></svg>