<svg xmlns="http://www.w3.org/2000/svg" width="133" height="45.228" viewBox="0 0 133 45.228"><defs><style>.a{fill:#10296a;}</style></defs><path class="a" d="M682.411,153.382a7.131,7.131,0,0,1-.583,2.982,6.087,6.087,0,0,1-1.61,2.147,6.714,6.714,0,0,1-2.461,1.294,11,11,0,0,1-3.14.426h-3.692v9.151h-3V146.661h7.1a9.229,9.229,0,0,1,3.251.521,6.343,6.343,0,0,1,2.3,1.436,5.932,5.932,0,0,1,1.374,2.129,7.443,7.443,0,0,1,.457,2.635m-2.87.1a3.8,3.8,0,0,0-1.342-3.251,6.156,6.156,0,0,0-3.771-1.011h-3.5v8.615h3.344a7.932,7.932,0,0,0,2.036-.253,4.862,4.862,0,0,0,1.672-.773,3.783,3.783,0,0,0,1.136-1.357,4.27,4.27,0,0,0,.428-1.972" transform="translate(-667.926 -140.681)"/><path class="a" d="M696.1,152.784a5.959,5.959,0,0,1-1.12,3.614,5.5,5.5,0,0,1-3.139,2.066,5.416,5.416,0,0,1,2,.788,4.054,4.054,0,0,1,1.23,1.342,5.284,5.284,0,0,1,.615,1.8,13.422,13.422,0,0,1,.158,2.129v4.86h-2.934v-4.45a10.86,10.86,0,0,0-.221-2.319,3.745,3.745,0,0,0-.79-1.657,3.454,3.454,0,0,0-1.514-.994,7.244,7.244,0,0,0-2.368-.332h-3.409v9.751h-3V146.661h7.448a10.807,10.807,0,0,1,2.808.347,6.191,6.191,0,0,1,2.226,1.073,5.017,5.017,0,0,1,1.467,1.894,6.706,6.706,0,0,1,.536,2.809m-3,.315a3.83,3.83,0,0,0-1.167-2.965,5.728,5.728,0,0,0-3.913-1.074h-3.409v8.364h3.346a8.11,8.11,0,0,0,1.878-.221,4.811,4.811,0,0,0,1.657-.726,3.713,3.713,0,0,0,1.168-1.341,4.324,4.324,0,0,0,.441-2.036" transform="translate(-663.598 -140.681)"/><path class="a" d="M707.131,169.511V159.35h-7.889v10.162h-3V153.134a6.9,6.9,0,0,1,1.766-5.143,7.09,7.09,0,0,1,5.176-1.737,6.178,6.178,0,0,1,6.941,6.881v16.378Zm0-15.747a11.023,11.023,0,0,0-.174-2,4.38,4.38,0,0,0-.632-1.625,3.188,3.188,0,0,0-1.214-1.088,4.892,4.892,0,0,0-3.851,0,3.183,3.183,0,0,0-1.215,1.088,4.361,4.361,0,0,0-.63,1.625,10.8,10.8,0,0,0-.174,2v3.188h7.889Z" transform="translate(-659.379 -140.81)"/><path class="a" d="M719.3,169.382h-3.124l-7.606-22.721h3.093l6.059,17.482,6.059-17.482H726.9Z" transform="translate(-655.681 -140.681)"/><path class="a" d="M759.1,163.294a6.2,6.2,0,0,1-.725,3.109,6.116,6.116,0,0,1-1.924,2.083,8.567,8.567,0,0,1-2.731,1.183,13.005,13.005,0,0,1-3.14.379,14.314,14.314,0,0,1-3.265-.395,9.632,9.632,0,0,1-3.109-1.325,7.25,7.25,0,0,1-2.319-2.493,7.713,7.713,0,0,1-.9-3.9h3a6.364,6.364,0,0,0,.521,2.7,4.727,4.727,0,0,0,1.435,1.814,5.954,5.954,0,0,0,2.162,1.011,11.029,11.029,0,0,0,2.7.315,7.973,7.973,0,0,0,1.924-.236,5.452,5.452,0,0,0,1.7-.742,3.826,3.826,0,0,0,1.215-1.31,3.874,3.874,0,0,0,.458-1.941,3.222,3.222,0,0,0-.553-1.972,4.19,4.19,0,0,0-1.468-1.215,9.708,9.708,0,0,0-2.145-.774q-1.232-.3-2.587-.646t-2.715-.742a10.44,10.44,0,0,1-2.445-1.041,5.278,5.278,0,0,1-1.768-1.7,4.971,4.971,0,0,1-.678-2.73,5.873,5.873,0,0,1,.725-3.03,5.964,5.964,0,0,1,1.878-1.987,8.123,8.123,0,0,1,2.619-1.106,12.97,12.97,0,0,1,2.982-.347,13.432,13.432,0,0,1,3.251.379,7.483,7.483,0,0,1,2.651,1.216,6.138,6.138,0,0,1,1.829,2.193,8.078,8.078,0,0,1,.79,3.314H755.6a4.972,4.972,0,0,0-.458-2.241,4.205,4.205,0,0,0-1.231-1.5,4.925,4.925,0,0,0-1.8-.837,9.069,9.069,0,0,0-2.161-.251,10.143,10.143,0,0,0-1.831.174,5.389,5.389,0,0,0-1.719.616,3.808,3.808,0,0,0-1.279,1.183,3.259,3.259,0,0,0-.5,1.877,2.725,2.725,0,0,0,.646,1.91,4.964,4.964,0,0,0,1.673,1.167,13.568,13.568,0,0,0,2.32.774q1.293.314,2.651.662,1.419.379,2.73.79a8.609,8.609,0,0,1,2.3,1.088,4.973,4.973,0,0,1,1.578,1.75,5.785,5.785,0,0,1,.583,2.777" transform="translate(-646.045 -140.81)"/><path class="a" d="M770.644,169.382V159h-9.277v10.382h-3V146.661h3v9.94h9.246v-9.94h3.03v22.721Z" transform="translate(-640.643 -140.681)"/><path class="a" d="M740.04,158.674l-12.926-.561.06-16,12.926,4.95Z" transform="translate(-650.055 -142.117)"/><path class="a" d="M740.04,155.689l-12.926.56.06,16L740.1,167.3Z" transform="translate(-650.055 -137.967)"/><path class="a" d="M715.637,171.666a12.06,12.06,0,0,1,1.808-.137,3.772,3.772,0,0,1,2.669.821,3.03,3.03,0,0,1,.929,2.365,3.487,3.487,0,0,1-.949,2.562,4.063,4.063,0,0,1-2.913.948,13.784,13.784,0,0,1-1.545-.078Zm.85,5.826a5.481,5.481,0,0,0,.861.049,2.532,2.532,0,0,0,2.8-2.8,2.349,2.349,0,0,0-2.668-2.541,4.851,4.851,0,0,0-1,.088Z" transform="translate(-653.481 -133.046)"/><path class="a" d="M726.495,174.818c0,2.269-1.378,3.471-3.06,3.471-1.74,0-2.963-1.349-2.963-3.343,0-2.093,1.3-3.461,3.06-3.461,1.8,0,2.962,1.379,2.962,3.334m-5.112.108c0,1.407.762,2.669,2.1,2.669s2.112-1.242,2.112-2.738c0-1.311-.684-2.678-2.1-2.678s-2.111,1.3-2.111,2.747" transform="translate(-652.02 -133.06)"/><path class="a" d="M731.8,174.818c0,2.269-1.378,3.471-3.06,3.471-1.74,0-2.961-1.349-2.961-3.343,0-2.093,1.3-3.461,3.059-3.461,1.8,0,2.963,1.379,2.963,3.334m-5.113.108c0,1.407.763,2.669,2.1,2.669s2.112-1.242,2.112-2.738c0-1.311-.684-2.678-2.1-2.678s-2.112,1.3-2.112,2.747" transform="translate(-650.414 -133.06)"/><path class="a" d="M731.377,171.666a8.844,8.844,0,0,1,1.632-.137,2.7,2.7,0,0,1,1.907.537,1.641,1.641,0,0,1,.519,1.252A1.73,1.73,0,0,1,734.192,175v.029a1.642,1.642,0,0,1,.969,1.329,10.405,10.405,0,0,0,.508,1.808h-.88a8.732,8.732,0,0,1-.44-1.574c-.195-.908-.547-1.25-1.319-1.281h-.8v2.855h-.85Zm.85,3h.871c.908,0,1.486-.5,1.486-1.252,0-.85-.616-1.221-1.516-1.232a3.476,3.476,0,0,0-.841.079Z" transform="translate(-648.708 -133.046)"/><path class="a" d="M735.522,177.145a3.005,3.005,0,0,0,1.525.43c.87,0,1.378-.459,1.378-1.124,0-.616-.351-.969-1.241-1.311-1.075-.382-1.74-.938-1.74-1.868a1.9,1.9,0,0,1,2.131-1.789,3,3,0,0,1,1.457.322l-.234.695a2.63,2.63,0,0,0-1.252-.313c-.9,0-1.242.538-1.242.987,0,.616.4.92,1.31,1.271,1.116.43,1.683.967,1.683,1.936,0,1.016-.753,1.9-2.308,1.9a3.392,3.392,0,0,1-1.681-.421Z" transform="translate(-647.515 -133.06)"/><path class="a" d="M746.893,174.818c0,2.269-1.379,3.471-3.06,3.471-1.74,0-2.963-1.349-2.963-3.343,0-2.093,1.3-3.461,3.06-3.461,1.8,0,2.963,1.379,2.963,3.334m-5.113.108c0,1.407.762,2.669,2.1,2.669s2.112-1.242,2.112-2.738c0-1.311-.686-2.678-2.1-2.678s-2.112,1.3-2.112,2.747" transform="translate(-645.845 -133.06)"/><path class="a" d="M746.471,171.566h3.549v.713h-2.7v2.19h2.493v.7h-2.493v2.982h-.85Z" transform="translate(-644.13 -133.034)"/><rect class="a" width="0.85" height="6.589" transform="translate(109.39 38.532)"/><path class="a" d="M754,178.154v-6.588h.929l2.111,3.334a18.789,18.789,0,0,1,1.183,2.141l.02-.011c-.079-.88-.1-1.681-.1-2.707v-2.757h.8v6.588h-.861l-2.093-3.343a20.685,20.685,0,0,1-1.23-2.2l-.03.011c.049.83.068,1.623.068,2.718v2.815Z" transform="translate(-642.025 -133.034)"/><path class="a" d="M759.069,171.666a12.088,12.088,0,0,1,1.808-.137,3.77,3.77,0,0,1,2.669.821,3.031,3.031,0,0,1,.929,2.365,3.486,3.486,0,0,1-.948,2.562,4.066,4.066,0,0,1-2.914.948,13.8,13.8,0,0,1-1.545-.078Zm.85,5.826a5.5,5.5,0,0,0,.861.049,2.533,2.533,0,0,0,2.806-2.8,2.351,2.351,0,0,0-2.669-2.541,4.849,4.849,0,0,0-1,.088Z" transform="translate(-640.421 -133.046)"/><rect class="a" width="0.85" height="6.589" transform="translate(125.404 38.532)"/><path class="a" d="M767.349,176.082l-.684,2.073h-.879l2.237-6.588h1.027l2.249,6.588h-.91l-.7-2.073Zm2.16-.665-.645-1.9c-.147-.429-.243-.82-.342-1.2h-.02c-.1.391-.205.791-.332,1.192l-.645,1.906Z" transform="translate(-638.298 -133.034)"/></svg>