<svg xmlns="http://www.w3.org/2000/svg" xmlns:xlink="http://www.w3.org/1999/xlink" width="33" height="33" viewBox="0 0 33 33"><defs><style>.a{fill:red;}.b{clip-path:url(#a);}.c,.d{fill:#112769;stroke:#fff;stroke-width:0.2px;}.d{stroke-miterlimit:10;}</style><clipPath id="a"><rect class="a" width="33" height="33" transform="translate(812.949 2196.949)"/></clipPath></defs><g class="b" transform="translate(-812.949 -2196.949)"><g transform="translate(813.354 2197.582)"><g transform="translate(0 2.857)"><path class="c" d="M927.869,1134.963a14.725,14.725,0,1,1,8.391-26.828.585.585,0,0,1-.667.96,13.552,13.552,0,1,0,3.445,3.457.585.585,0,1,1,.963-.664,14.721,14.721,0,0,1-12.132,23.074Z" transform="translate(-913.144 -1105.512)"/><g transform="translate(4.814 4.814)"><path class="c" d="M1246.9,1449.182a9.911,9.911,0,1,1,4.96-18.494.584.584,0,1,1-.586,1.012,8.738,8.738,0,1,0,3.269,3.324.585.585,0,0,1,1.021-.569,9.908,9.908,0,0,1-8.665,14.727Z" transform="translate(-1236.99 -1429.359)"/></g><g transform="translate(9.728 9.728)"><path class="c" d="M1572.567,1769.933a5,5,0,1,1,1.3-9.823.585.585,0,0,1-.3,1.129,3.823,3.823,0,1,0,2.692,2.668.585.585,0,0,1,1.126-.314,5,5,0,0,1-4.814,6.34Z" transform="translate(-1567.57 -1759.939)"/></g></g><g transform="translate(14.27)"><path class="c" d="M1891.124,916.345a.165.165,0,0,0-.153-.1h-1.956l.486-.486a.577.577,0,0,0-.817-.817l-.479.479v-1.942a.165.165,0,0,0-.282-.117l-2.569,2.569a.164.164,0,0,0-.048.114l-.04,2.314-12,12.005a.577.577,0,1,0,.816.817l12-12,2.328-.04a.165.165,0,0,0,.114-.048l2.569-2.569A.165.165,0,0,0,1891.124,916.345Z" transform="translate(-1873.093 -913.313)"/></g><g transform="translate(18.599 15.468)"><path class="d" d="M2164.337,1953.877" transform="translate(-2164.337 -1953.877)"/></g></g></g></svg>