<svg xmlns="http://www.w3.org/2000/svg" width="67.269" height="52.5" viewBox="0 0 67.269 52.5"><defs><style>.a{fill:#112769;stroke:#fff;stroke-width:1.5px;}</style></defs><path class="a" d="M526.642,105.763a1.607,1.607,0,0,0-1.606-1.607h-4.551a1.607,1.607,0,0,0,0,3.213h4.551A1.607,1.607,0,0,0,526.642,105.763ZM541.166,91.24a1.606,1.606,0,0,0,1.606-1.607V85.082a1.607,1.607,0,0,0-3.213,0v4.551A1.607,1.607,0,0,0,541.166,91.24Zm-12.542,4.253a1.606,1.606,0,0,0,2.272-2.271L527.678,90a1.606,1.606,0,0,0-2.271,2.271Zm0,20.541-3.219,3.218a1.606,1.606,0,0,0,2.272,2.272l3.219-3.218a1.606,1.606,0,1,0-2.272-2.272Zm23.947-20.069a1.6,1.6,0,0,0,1.136-.47l3.218-3.218A1.606,1.606,0,1,0,554.654,90l-3.218,3.218a1.606,1.606,0,0,0,1.135,2.742Zm-15.478,17.713A8.963,8.963,0,1,1,547.51,99.363a17.84,17.84,0,0,1,2.813-1.687,12.175,12.175,0,1,0-15.56,18.376A13.9,13.9,0,0,1,537.093,113.677Zm36.177-1.957a11.234,11.234,0,0,0-1.337.079,14.056,14.056,0,0,0-27.978,1.928q0,.406.025.816a10.04,10.04,0,0,0,1.715,19.932H573.27a11.378,11.378,0,0,0,0-22.756Zm0,19.543H545.695a6.827,6.827,0,0,1-.04-13.654l2.057.042-.359-1.937a10.842,10.842,0,1,1,21.5-2.028V115.9l2.069-.621a8.165,8.165,0,1,1,2.349,15.984Z" transform="translate(-518.128 -82.726)"/></svg>