<svg xmlns="http://www.w3.org/2000/svg" xmlns:xlink="http://www.w3.org/1999/xlink" width="51" height="51" viewBox="0 0 51 51"><defs><style>.a,.c{fill:#112769;}.b{clip-path:url(#a);}.c{stroke:#112769;stroke-width:0.7px;}</style><clipPath id="a"><rect class="a" width="51" height="51" transform="translate(860 2198)"/></clipPath></defs><g class="b" transform="translate(-860 -2198)"><path class="c" d="M257.342,245.1a2.692,2.692,0,0,0-1.01.2l-3.716-6.434a2.7,2.7,0,0,0-.012-4.264l3.692-6.473a2.7,2.7,0,1,0,.037-5l-3.717-6.433a2.7,2.7,0,1,0-4.343-2.507h-7.434a2.7,2.7,0,1,0-4.334,2.513l-3.679,6.427a2.7,2.7,0,0,0-3.676,2.133h-7.435a2.7,2.7,0,1,0-4.335,2.512L213.7,234.2a2.7,2.7,0,1,0,0,5.021l3.679,6.432a2.7,2.7,0,1,0,4.334,2.514h7.435a2.7,2.7,0,0,0,3.674,2.132l3.682,6.452a2.7,2.7,0,1,0,4.333,2.514h7.434a2.7,2.7,0,1,0,4.343-2.506l3.717-6.441a2.7,2.7,0,1,0,1.009-5.213Zm-4.447-8.365a1.945,1.945,0,0,1-3.889.048.433.433,0,0,0,.005-.047.4.4,0,0,0-.005-.05,1.945,1.945,0,0,1,2.872-1.661.312.312,0,0,0,.033.024.348.348,0,0,0,.047.023A1.946,1.946,0,0,1,252.895,236.739Zm3.471-12.784.006,0,0,0a1.929,1.929,0,0,1,.968-.259,1.946,1.946,0,1,1-.982,3.624c-.008-.006-.016-.013-.025-.018l-.017-.008a1.945,1.945,0,0,1,.048-3.334Zm-5.415-11.333a1.946,1.946,0,0,1,.988,3.621l-.018.008-.015.011a1.946,1.946,0,1,1-.956-3.64Zm-14.733,1.946a1.947,1.947,0,1,1,1.223,1.806.378.378,0,0,0-.467-.268A1.943,1.943,0,0,1,236.217,214.568Zm.946,2.512a2.7,2.7,0,0,0,3.676-2.133h7.434a2.7,2.7,0,0,0,3.687,2.129l3.718,6.433a2.7,2.7,0,0,0-.032,4.231l-3.7,6.486a2.7,2.7,0,0,0-3.672,2.132l-7.375-.028a2.7,2.7,0,0,0-3.688-2.129l-3.717-6.435a2.7,2.7,0,0,0-.009-4.26Zm3,19.678a1.946,1.946,0,0,1-2.8,1.7.374.374,0,0,0-.1-.091.383.383,0,0,0-.131-.045,1.945,1.945,0,0,1,0-3.224.373.373,0,0,0,.133-.046.38.38,0,0,0,.105-.091,1.946,1.946,0,0,1,2.8,1.7.361.361,0,0,0-.005.047A.339.339,0,0,0,240.165,236.757Zm-8.34-13.062a1.932,1.932,0,0,1,.723.14.378.378,0,0,0,.467.268,1.943,1.943,0,0,1-.1,3.15.362.362,0,0,0-.231.134,1.945,1.945,0,1,1-.856-3.692Zm-14.732,1.946a1.946,1.946,0,1,1,1.12,1.76.368.368,0,0,0-.275-.158A1.944,1.944,0,0,1,217.094,225.641Zm-3.3,12.675a.375.375,0,0,0-.266.152,1.945,1.945,0,1,1,0-3.519.372.372,0,0,0,.273.157,1.944,1.944,0,0,1-.005,3.21Zm5.241,11.415a1.945,1.945,0,0,1-1.1-3.549.372.372,0,0,0,.272-.156,1.945,1.945,0,1,1,.826,3.706Zm10.111-2.323h-7.435a2.7,2.7,0,0,0-3.676-2.133l-3.679-6.432a2.7,2.7,0,0,0,0-4.266l3.677-6.426a2.7,2.7,0,0,0,3.677-2.131h7.435a2.7,2.7,0,0,0,3.687,2.127l3.717,6.435a2.7,2.7,0,0,0,0,4.255l-3.718,6.442a2.7,2.7,0,0,0-3.687,2.128Zm2.676,2.323a1.945,1.945,0,1,1,.856-3.691.367.367,0,0,0,.231.134,1.945,1.945,0,0,1-1.088,3.558Zm6.337,11.1a1.946,1.946,0,1,1,1.944-1.946A1.948,1.948,0,0,1,238.163,260.831Zm14.732-1.946a1.945,1.945,0,1,1-1.945-1.945A1.947,1.947,0,0,1,252.895,258.884Zm-.935-2.507a2.7,2.7,0,0,0-3.687,2.128h-7.434a2.7,2.7,0,0,0-3.675-2.133l-3.682-6.452a2.7,2.7,0,0,0,.011-4.261l3.718-6.443a2.7,2.7,0,0,0,3.687-2.128l7.376.028a2.7,2.7,0,0,0,3.687,2.13l3.717,6.434a2.7,2.7,0,0,0,0,4.256Zm5.382-6.623a1.946,1.946,0,1,1,1.947-1.946A1.947,1.947,0,0,1,257.342,249.754Z" transform="translate(650.5 1986.637)"/></g></svg>