<svg xmlns="http://www.w3.org/2000/svg" xmlns:xlink="http://www.w3.org/1999/xlink" width="33" height="32" viewBox="0 0 33 32"><defs><style>.a,.c{fill:#112769;}.b{clip-path:url(#a);}.c{stroke:#112769;stroke-width:0.7px;}</style><clipPath id="a"><rect class="a" width="33" height="32" transform="translate(858 2197)"/></clipPath></defs><g class="b" transform="translate(-858 -2197)"><path class="c" d="M236.92,230.765a1.531,1.531,0,0,0-.574.112l-2.113-3.658a1.535,1.535,0,0,0-.007-2.425l2.1-3.681a1.538,1.538,0,1,0,.021-2.844l-2.114-3.658a1.537,1.537,0,1,0-2.469-1.425h-4.227a1.537,1.537,0,1,0-2.464,1.429l-2.092,3.655a1.536,1.536,0,0,0-2.09,1.213h-4.228a1.537,1.537,0,1,0-2.465,1.428l-2.09,3.654a1.537,1.537,0,1,0,0,2.855l2.092,3.657a1.537,1.537,0,1,0,2.464,1.429h4.228a1.536,1.536,0,0,0,2.089,1.212l2.094,3.669a1.537,1.537,0,1,0,2.464,1.429h4.227a1.537,1.537,0,1,0,2.469-1.425l2.114-3.663a1.538,1.538,0,1,0,.574-2.964Zm-2.529-4.757a1.106,1.106,0,0,1-2.212.027.244.244,0,0,0,0-.026.226.226,0,0,0,0-.028,1.106,1.106,0,0,1,1.633-.945.18.18,0,0,0,.019.013l.027.013A1.107,1.107,0,0,1,234.391,226.008Zm1.974-7.269,0,0h0a1.1,1.1,0,0,1,.55-.147,1.106,1.106,0,1,1-.559,2.061l-.014-.01-.01,0a1.106,1.106,0,0,1,.028-1.9Zm-3.079-6.444a1.106,1.106,0,0,1,.562,2.059l-.01,0-.009.006a1.106,1.106,0,1,1-.543-2.07Zm-8.378,1.107a1.107,1.107,0,1,1,.7,1.027.215.215,0,0,0-.266-.153A1.1,1.1,0,0,1,224.908,213.4Zm.538,1.428a1.536,1.536,0,0,0,2.09-1.213h4.227a1.536,1.536,0,0,0,2.1,1.21l2.114,3.658a1.535,1.535,0,0,0-.018,2.406l-2.1,3.688a1.536,1.536,0,0,0-2.088,1.213l-4.194-.016a1.538,1.538,0,0,0-2.1-1.211l-2.114-3.659a1.534,1.534,0,0,0-.005-2.422Zm1.708,11.189a1.107,1.107,0,0,1-1.591.967.212.212,0,0,0-.059-.052.218.218,0,0,0-.075-.026,1.106,1.106,0,0,1,0-1.833.212.212,0,0,0,.076-.026.216.216,0,0,0,.06-.052,1.107,1.107,0,0,1,1.59.967.206.206,0,0,0,0,.027A.193.193,0,0,0,227.153,226.018Zm-4.742-7.427a1.1,1.1,0,0,1,.411.079.215.215,0,0,0,.266.152,1.1,1.1,0,0,1-.059,1.791.206.206,0,0,0-.132.076,1.106,1.106,0,1,1-.487-2.1Zm-8.377,1.107a1.107,1.107,0,1,1,.637,1,.209.209,0,0,0-.157-.09A1.106,1.106,0,0,1,214.034,219.7ZM212.16,226.9a.213.213,0,0,0-.151.087,1.106,1.106,0,1,1,0-2,.211.211,0,0,0,.155.089,1.105,1.105,0,0,1,0,1.825Zm2.98,6.491a1.106,1.106,0,0,1-.624-2.018.211.211,0,0,0,.155-.089,1.106,1.106,0,1,1,.47,2.107Zm5.75-1.321h-4.228a1.536,1.536,0,0,0-2.09-1.213l-2.092-3.658a1.535,1.535,0,0,0,0-2.426l2.091-3.654a1.536,1.536,0,0,0,2.091-1.212h4.228a1.536,1.536,0,0,0,2.1,1.209l2.114,3.659a1.535,1.535,0,0,0,0,2.42l-2.114,3.663a1.536,1.536,0,0,0-2.1,1.21Zm1.521,1.321a1.106,1.106,0,1,1,.487-2.1.209.209,0,0,0,.132.076,1.106,1.106,0,0,1-.618,2.023Zm3.6,6.311a1.106,1.106,0,1,1,1.106-1.107A1.108,1.108,0,0,1,226.014,239.707Zm8.377-1.107a1.106,1.106,0,1,1-1.106-1.106A1.107,1.107,0,0,1,234.391,238.6Zm-.532-1.426a1.536,1.536,0,0,0-2.1,1.21h-4.227a1.536,1.536,0,0,0-2.09-1.213l-2.093-3.669a1.534,1.534,0,0,0,.006-2.423l2.114-3.663a1.537,1.537,0,0,0,2.1-1.21l4.194.016a1.536,1.536,0,0,0,2.1,1.211l2.113,3.658a1.535,1.535,0,0,0,0,2.42Zm3.061-3.766a1.107,1.107,0,1,1,1.107-1.107A1.107,1.107,0,0,1,236.92,233.409Z" transform="translate(650.284 1986.421)"/></g></svg>