<svg xmlns="http://www.w3.org/2000/svg" xmlns:xlink="http://www.w3.org/1999/xlink" width="51" height="51" viewBox="0 0 51 51"><defs><style>.a{fill:red;}.b{clip-path:url(#a);}.c,.d{fill:#112769;stroke:#fff;stroke-width:0.2px;}.d{stroke-miterlimit:10;}</style><clipPath id="a"><rect class="a" width="51" height="51" transform="translate(813 2197)"/></clipPath></defs><g class="b" transform="translate(-813 -2197)"><g transform="translate(-61 -112.484)"><g transform="translate(874.496 2314.772)"><g transform="translate(0)"><path class="c" d="M936.02,1151.265a22.876,22.876,0,1,1,13.036-41.677.908.908,0,1,1-1.036,1.492,21.054,21.054,0,1,0,5.352,5.371.908.908,0,0,1,1.5-1.031,22.869,22.869,0,0,1-18.847,35.846Z" transform="translate(-913.144 -1105.512)"/></g><g transform="translate(7.479 7.479)"><path class="c" d="M1252.387,1460.154a15.4,15.4,0,1,1,7.705-28.731.908.908,0,1,1-.91,1.572,13.574,13.574,0,1,0,5.079,5.164.908.908,0,0,1,1.587-.884,15.393,15.393,0,0,1-13.461,22.879Z" transform="translate(-1236.99 -1429.359)"/></g><g transform="translate(15.113 15.113)"><path class="c" d="M1575.333,1775.465a7.763,7.763,0,1,1,2.02-15.261.908.908,0,0,1-.472,1.754,5.939,5.939,0,1,0,4.182,4.144.908.908,0,0,1,1.75-.487,7.765,7.765,0,0,1-7.479,9.85Z" transform="translate(-1567.57 -1759.939)"/></g></g><g transform="translate(896.665 2310.334)"><path class="c" d="M1901.1,918.024a.257.257,0,0,0-.237-.158h-3.038l.755-.755a.9.9,0,0,0-1.269-1.269l-.744.745V913.57a.256.256,0,0,0-.438-.181l-3.991,3.991a.254.254,0,0,0-.075.177l-.061,3.6-18.65,18.65a.9.9,0,1,0,1.269,1.269l18.639-18.639,3.617-.062a.256.256,0,0,0,.177-.075l3.991-3.991A.257.257,0,0,0,1901.1,918.024Z" transform="translate(-1873.093 -913.313)"/></g><g transform="translate(903.391 2334.365)"><path class="d" d="M2164.337,1953.877" transform="translate(-2164.337 -1953.877)"/></g></g></g></svg>