<svg xmlns="http://www.w3.org/2000/svg" xmlns:xlink="http://www.w3.org/1999/xlink" width="19" height="29" viewBox="0 0 19 29"><defs><style>.a{fill:red;}.b{clip-path:url(#a);}.c{fill:#112769;stroke:#112769;stroke-width:0.3px;}</style><clipPath id="a"><rect class="a" width="19" height="29" transform="translate(1113 2195.165)"/></clipPath></defs><g class="b" transform="translate(-1113 -2195.165)"><g transform="translate(1115.392 2197)"><path class="c" d="M1191.679,853.13a1.565,1.565,0,1,0-1.565-1.565A1.567,1.567,0,0,0,1191.679,853.13Zm0-2.393a.828.828,0,1,1-.828.828A.829.829,0,0,1,1191.679,850.737Z" transform="translate(-1184.71 -850)"/><path class="c" d="M1044.763,1084.775l-4.37-7.648v-6.26h.958a.369.369,0,0,0,0-.737h-7.191a.369.369,0,0,0,0,.737h.958v6.26l-4.37,7.648a3.2,3.2,0,0,0,2.47,4.768c1.352.13,2.921.2,4.537.2s3.184-.069,4.537-.2a3.2,3.2,0,0,0,2.47-4.768Zm-8.955-7.367a.368.368,0,0,0,.049-.183v-6.358h3.8v6.358a.369.369,0,0,0,.048.183l3.559,6.228c-1.9-.586-3.772-.087-5.6.4-1.99.53-3.876,1.031-5.756.192Zm8.364,10.083a2.453,2.453,0,0,1-1.95,1.318c-1.329.128-2.874.2-4.466.2s-3.136-.068-4.466-.2a2.46,2.46,0,0,1-1.9-3.669l.155-.272a5.969,5.969,0,0,0,2.546.541,14.822,14.822,0,0,0,3.767-.664c2.074-.552,4.036-1.073,6-.078l.27.472A2.449,2.449,0,0,1,1044.172,1087.491Z" transform="translate(-1030.326 -1062.685)"/><path class="c" d="M1305.522,936.8a1.35,1.35,0,1,0-1.35-1.35A1.351,1.351,0,0,0,1305.522,936.8Zm0-1.963a.613.613,0,1,1-.613.613A.614.614,0,0,1,1305.522,934.837Z" transform="translate(-1294.91 -931.256)"/><path class="c" d="M1277.158,1368.3a1.438,1.438,0,1,0,1.438-1.438A1.44,1.44,0,0,0,1277.158,1368.3Zm1.438-.7a.7.7,0,1,1-.7.7A.7.7,0,0,1,1278.6,1367.6Z" transform="translate(-1268.81 -1349.38)"/><path class="c" d="M1157.939,1340.549a1.35,1.35,0,1,0-1.35-1.35A1.351,1.351,0,0,0,1157.939,1340.549Zm0-1.962a.613.613,0,1,1-.613.613A.613.613,0,0,1,1157.939,1338.587Z" transform="translate(-1152.319 -1321.35)"/><path class="c" d="M1166.3,969.518a1.2,1.2,0,1,0-1.2-1.2A1.2,1.2,0,0,0,1166.3,969.518Zm0-1.657a.46.46,0,1,1-.46.46A.461.461,0,0,1,1166.3,967.861Z" transform="translate(-1160.544 -963.163)"/><path class="c" d="M1215.912,1173.873a1.3,1.3,0,1,0-1.3-1.3A1.3,1.3,0,0,0,1215.912,1173.873Zm0-1.87a.566.566,0,1,1-.566.566A.567.567,0,0,1,1215.912,1172Z" transform="translate(-1208.376 -1160.4)"/></g></g></svg>