<svg xmlns="http://www.w3.org/2000/svg" xmlns:xlink="http://www.w3.org/1999/xlink" width="51" height="51" viewBox="0 0 51 51"><defs><style>.a{fill:red;}.b{clip-path:url(#a);}.c{fill:#112769;stroke:#112769;stroke-width:0.3px;}</style><clipPath id="a"><rect class="a" width="51" height="51" transform="translate(1109 2197)"/></clipPath></defs><g class="b" transform="translate(-1109 -2197)"><g transform="translate(90.674 1347)"><path class="c" d="M1193.052,855.877a2.938,2.938,0,1,0-2.938-2.938A2.942,2.942,0,0,0,1193.052,855.877Zm0-4.493a1.555,1.555,0,1,1-1.555,1.555A1.556,1.556,0,0,1,1193.052,851.384Z" transform="translate(-149.642)"/><path class="c" d="M1057.43,1097.624l-8.2-14.358v-11.752h1.8a.692.692,0,1,0,0-1.384h-13.5a.692.692,0,0,0,0,1.384h1.8v11.752l-8.2,14.358a6,6,0,0,0,4.638,8.952c2.539.245,5.484.375,8.517.375s5.978-.13,8.517-.375a6,6,0,0,0,4.638-8.952Zm-16.813-13.831a.691.691,0,0,0,.091-.343v-11.936h7.134v11.936a.694.694,0,0,0,.091.343l6.681,11.691c-3.561-1.1-7.082-.163-10.5.748-3.736.995-7.276,1.936-10.807.361Zm15.7,18.93a4.6,4.6,0,0,1-3.661,2.475c-2.5.241-5.395.368-8.384.368s-5.888-.127-8.384-.368a4.618,4.618,0,0,1-3.569-6.888l.292-.511a11.205,11.205,0,0,0,4.78,1.016,27.824,27.824,0,0,0,7.072-1.246c3.895-1.037,7.577-2.015,11.256-.146l.506.887A4.6,4.6,0,0,1,1056.32,1102.723Z" transform="translate(0 -206.152)"/><path class="c" d="M1306.706,939.169a2.534,2.534,0,1,0-2.534-2.534A2.537,2.537,0,0,0,1306.706,939.169Zm0-3.685a1.151,1.151,0,1,1-1.151,1.151A1.152,1.152,0,0,1,1306.706,935.484Z" transform="translate(-256.457 -78.76)"/><path class="c" d="M1277.158,1369.561a2.7,2.7,0,1,0,2.7-2.7A2.7,2.7,0,0,0,1277.158,1369.561Zm2.7-1.317a1.317,1.317,0,1,1-1.317,1.317A1.318,1.318,0,0,1,1279.858,1368.245Z" transform="translate(-231.159 -484.042)"/><path class="c" d="M1159.123,1342.918a2.534,2.534,0,1,0-2.534-2.534A2.537,2.537,0,0,0,1159.123,1342.918Zm0-3.684a1.15,1.15,0,1,1-1.15,1.15A1.152,1.152,0,0,1,1159.123,1339.234Z" transform="translate(-118.245 -456.873)"/><path class="c" d="M1167.349,971.618a2.247,2.247,0,1,0-2.247-2.247A2.25,2.25,0,0,0,1167.349,971.618Zm0-3.111a.864.864,0,1,1-.864.864A.865.865,0,0,1,1167.349,968.508Z" transform="translate(-126.218 -109.687)"/><path class="c" d="M1217.056,1176.16a2.447,2.447,0,1,0-2.447-2.447A2.45,2.45,0,0,0,1217.056,1176.16Zm0-3.51a1.063,1.063,0,1,1-1.063,1.063A1.065,1.065,0,0,1,1217.056,1172.65Z" transform="translate(-172.581 -300.866)"/></g></g></svg>