<svg xmlns="http://www.w3.org/2000/svg" width="20.502" height="19.251" viewBox="0 0 20.502 19.251"><defs><style>.a{fill:#d4001c;}</style></defs><g transform="translate(-317.369 -328.511)"><path class="a" d="M337.225,556.793a.646.646,0,0,0-.645.646v4.426a.093.093,0,0,1-.1.076H318.761a.093.093,0,0,1-.1-.076v-4.426a.645.645,0,1,0-1.291,0v4.426a1.381,1.381,0,0,0,1.392,1.367h17.717a1.381,1.381,0,0,0,1.392-1.367v-4.426A.646.646,0,0,0,337.225,556.793Z" transform="translate(0 -215.469)"/><path class="a" d="M395.788,342.748a.646.646,0,0,0,.913,0l5.525-5.525a.645.645,0,0,0-.913-.913l-4.423,4.423V329.157a.645.645,0,1,0-1.291,0v11.577l-4.423-4.423a.645.645,0,1,0-.913.913Z" transform="translate(-68.625 0)"/></g></svg>