<svg xmlns="http://www.w3.org/2000/svg" width="15.973" height="25.703" viewBox="0 0 15.973 25.703"><defs><style>.a{fill:#112769;stroke:#fff;stroke-width:0.3px;}</style></defs><g transform="translate(-667.143 -46.835)"><path class="a" d="M704.547,137.285a2.508,2.508,0,0,0,1.564-2.1,1.914,1.914,0,0,0-.466-1.226,4.548,4.548,0,0,1-.9.64.9.9,0,0,1,.351.587c0,.235-.257.628-.98,1.024a13.211,13.211,0,0,1-5.875,1.129.6.6,0,0,0,0,1.185A13.9,13.9,0,0,0,704.547,137.285Z" transform="translate(-23.145 -66.138)"/><path class="a" d="M680.91,124.5q.134-.06.262-.122c.079-.039.156-.079.23-.119a4.231,4.231,0,0,0,.775-.536c.06-.053.117-.106.17-.161s.105-.115.153-.174a1.847,1.847,0,0,0,0-2.452,4.535,4.535,0,0,1-.9.64.666.666,0,0,1,0,1.174,2.5,2.5,0,0,1-.208.17,3.687,3.687,0,0,1-.421.267c-.139.076-.29.149-.45.219q-.12.052-.247.1a14.962,14.962,0,0,1-5.178.808,12.948,12.948,0,0,1-5.825-1.128c-.891-.5-.96-.91-.96-1.026a.861.861,0,0,1,.335-.583,4.506,4.506,0,0,1-.894-.641,1.93,1.93,0,0,0-.457,1.224,2.5,2.5,0,0,0,1.538,2.095,13.629,13.629,0,0,0,6.263,1.243,15.553,15.553,0,0,0,5.555-.89C680.738,124.574,680.825,124.537,680.91,124.5Z" transform="translate(0 -56.232)"/><path class="a" d="M669.064,111.353q.126.063.259.122c.085.038.171.075.26.111a15.309,15.309,0,0,0,5.51.888,15.559,15.559,0,0,0,5.555-.89q.134-.054.261-.11c.09-.04.177-.08.262-.122s.156-.079.23-.119a4.231,4.231,0,0,0,.775-.536c.06-.053.117-.106.17-.161s.105-.115.153-.173a1.847,1.847,0,0,0,0-2.452,4.545,4.545,0,0,1-.9.64.666.666,0,0,1,0,1.174,2.55,2.55,0,0,1-.208.17,3.7,3.7,0,0,1-.421.267c-.139.076-.29.149-.45.219-.08.035-.162.069-.247.1a14.962,14.962,0,0,1-5.178.808,14.722,14.722,0,0,1-5.13-.8c-.085-.033-.166-.068-.246-.1-.16-.07-.31-.144-.448-.221a3.669,3.669,0,0,1-.42-.27,2.372,2.372,0,0,1-.2-.172.676.676,0,0,1,0-1.166,4.506,4.506,0,0,1-.894-.641,1.867,1.867,0,0,0,0,2.448c.047.059.1.118.152.175s.109.109.168.162a4.164,4.164,0,0,0,.76.534C668.906,111.272,668.984,111.313,669.064,111.353Z" transform="translate(0 -46.327)"/><path class="a" d="M669.064,98.327c.084.042.17.083.259.123s.171.075.26.111a15.31,15.31,0,0,0,5.51.887,15.559,15.559,0,0,0,5.555-.89q.134-.054.261-.11t.262-.122c.079-.039.156-.079.23-.119a4.231,4.231,0,0,0,.775-.536c.06-.053.117-.106.17-.161s.105-.115.153-.174a1.847,1.847,0,0,0,0-2.452,4.545,4.545,0,0,1-.9.639.666.666,0,0,1,0,1.174,2.5,2.5,0,0,1-.208.17,3.688,3.688,0,0,1-.421.267c-.139.076-.29.149-.45.219q-.12.052-.247.1a14.962,14.962,0,0,1-5.178.808,14.721,14.721,0,0,1-5.13-.8c-.085-.033-.166-.068-.246-.1-.16-.07-.31-.144-.448-.221a3.667,3.667,0,0,1-.42-.27,2.331,2.331,0,0,1-.205-.173.676.676,0,0,1,0-1.166,4.514,4.514,0,0,1-.893-.641,1.867,1.867,0,0,0,0,2.448c.047.059.1.118.152.175s.109.109.168.162a4.152,4.152,0,0,0,.76.534C668.906,98.246,668.984,98.287,669.064,98.327Z" transform="translate(0 -36.422)"/><path class="a" d="M669.064,85.3q.125.063.259.123c.085.038.171.075.26.11a15.313,15.313,0,0,0,5.511.887,15.553,15.553,0,0,0,5.555-.89c.089-.036.176-.072.261-.11s.177-.08.262-.122.155-.078.229-.119a4.232,4.232,0,0,0,.776-.537c.06-.053.117-.106.17-.161s.105-.115.153-.174a1.847,1.847,0,0,0,0-2.453,4.593,4.593,0,0,1-.9.639.666.666,0,0,1,0,1.174,2.551,2.551,0,0,1-.208.17,3.708,3.708,0,0,1-.422.267c-.139.076-.29.149-.449.219q-.12.052-.247.1a14.965,14.965,0,0,1-5.178.808,14.716,14.716,0,0,1-5.131-.8q-.127-.05-.246-.1c-.159-.07-.309-.144-.447-.221a3.7,3.7,0,0,1-.421-.27,2.372,2.372,0,0,1-.2-.173.674.674,0,0,1,0-1.162,4.54,4.54,0,0,1-.892-.642,1.867,1.867,0,0,0,0,2.445c.047.059.1.118.152.175s.109.109.168.162a4.176,4.176,0,0,0,.761.535C668.906,85.219,668.984,85.26,669.064,85.3Z" transform="translate(0 -26.516)"/><path class="a" d="M687.4,61.137c.22-.083.406-.165.567-.244l-.124-.048a15.917,15.917,0,0,0-5.407-.833,15.706,15.706,0,0,0-5.489.878,5.783,5.783,0,0,0,.563.248,9.619,9.619,0,0,0,1.376.4,17.39,17.39,0,0,1,3.549-.342,17.642,17.642,0,0,1,3.567.342A9.911,9.911,0,0,0,687.4,61.137Z" transform="translate(-7.339 -9.906)"/><path class="a" d="M669.322,72.389q.128.057.261.11a15.662,15.662,0,0,0,5.512.887,15.917,15.917,0,0,0,5.407-.833l.148-.057c.09-.036.176-.072.261-.11s.177-.081.261-.122a4.575,4.575,0,0,0,1.007-.654q.09-.079.169-.161c.055-.057.106-.114.154-.173a1.86,1.86,0,0,0,0-2.457,4.6,4.6,0,0,1-.906.643.663.663,0,0,1,0,1.172,2.41,2.41,0,0,1-.206.171,4.391,4.391,0,0,1-.87.487q-.117.051-.247.1l-.085.033a15.032,15.032,0,0,1-5.095.776,14.755,14.755,0,0,1-5.057-.775l-.074-.03q-.129-.051-.247-.1a4.386,4.386,0,0,1-.863-.491,2.452,2.452,0,0,1-.205-.173.667.667,0,0,1,0-1.158,4.544,4.544,0,0,1-.9-.648,1.9,1.9,0,0,0,0,2.455q.072.089.153.174t.168.162a4.491,4.491,0,0,0,1,.654Q669.188,72.329,669.322,72.389Z" transform="translate(-0.001 -16.603)"/><path class="a" d="M669.323,52.665q.138.061.284.119a15.706,15.706,0,0,0,5.488.878,15.917,15.917,0,0,0,5.407-.833l.124-.048q.148-.059.287-.12t.26-.122a4.586,4.586,0,0,0,1.008-.656q.089-.079.168-.16t.154-.172a1.907,1.907,0,0,0,.464-1.229c0-1.031-.852-1.9-2.464-2.506a15.917,15.917,0,0,0-5.407-.833c-3.757,0-7.8,1.045-7.8,3.339a1.926,1.926,0,0,0,.449,1.226q.071.088.151.173t.167.162a4.494,4.494,0,0,0,1,.66C669.149,52.586,669.235,52.626,669.323,52.665Zm-.484-1.6a2.351,2.351,0,0,1-.195-.166.887.887,0,0,1-.334-.577c0-.357.534-.922,1.727-1.378a14.749,14.749,0,0,1,5.057-.775,15.031,15.031,0,0,1,5.095.775c1.39.524,1.761,1.113,1.761,1.378a.914.914,0,0,1-.353.586,2.573,2.573,0,0,1-.2.165q-.1.076-.225.154a5.528,5.528,0,0,1-.983.473q-.258.1-.539.183c-.147.045-.3.086-.453.127q-.26.066-.534.124a17.627,17.627,0,0,1-3.567.342,17.39,17.39,0,0,1-3.549-.342q-.272-.058-.529-.124c-.154-.04-.3-.082-.448-.127-.185-.057-.362-.118-.531-.182a5.341,5.341,0,0,1-.972-.478C668.983,51.172,668.907,51.119,668.839,51.067Z" transform="translate(-0.001)"/></g></svg>