<svg xmlns="http://www.w3.org/2000/svg" width="31.764" height="51.3" viewBox="0 0 31.764 51.3"><defs><style>.a{fill:#1a1818;stroke:#1a1818;stroke-width:0.3px;}</style></defs><g transform="translate(-667.143 -46.835)"><path class="a" d="M711.414,140.633c2.054-1.127,3.14-2.582,3.14-4.209a3.844,3.844,0,0,0-.935-2.462,9.134,9.134,0,0,1-1.81,1.284,1.8,1.8,0,0,1,.705,1.178c0,.472-.517,1.26-1.968,2.055-2.588,1.42-7,2.267-11.795,2.267a1.2,1.2,0,0,0,0,2.38C703.91,143.126,708.526,142.217,711.414,140.633Z" transform="translate(-15.797 -45.141)"/><path class="a" d="M694.63,128.092q.27-.12.525-.246c.158-.078.313-.158.462-.24a8.5,8.5,0,0,0,1.556-1.076c.12-.106.235-.213.341-.323s.212-.231.308-.349a3.708,3.708,0,0,0,0-4.923,9.1,9.1,0,0,1-1.81,1.284,1.337,1.337,0,0,1,0,2.356,5.04,5.04,0,0,1-.417.342,7.4,7.4,0,0,1-.845.536c-.28.153-.582.3-.9.44q-.241.105-.5.2a30.037,30.037,0,0,1-10.4,1.622c-4.78,0-9.151-.846-11.694-2.264-1.788-1-1.926-1.828-1.926-2.059a1.727,1.727,0,0,1,.672-1.17,9.054,9.054,0,0,1-1.794-1.287,3.876,3.876,0,0,0-.918,2.456c0,1.626,1.068,3.08,3.087,4.206,2.846,1.587,7.429,2.5,12.574,2.5a31.224,31.224,0,0,0,11.151-1.787C694.285,128.241,694.459,128.167,694.63,128.092Z" transform="translate(0 -38.38)"/><path class="a" d="M670.849,114.823q.253.126.52.246c.17.076.343.151.522.222a30.736,30.736,0,0,0,11.063,1.782,31.235,31.235,0,0,0,11.151-1.787q.268-.108.524-.221c.18-.079.355-.162.525-.245s.313-.158.462-.24a8.5,8.5,0,0,0,1.556-1.077c.12-.106.235-.213.341-.323s.212-.23.308-.348a3.708,3.708,0,0,0,0-4.923,9.116,9.116,0,0,1-1.81,1.284,1.337,1.337,0,0,1,0,2.356,5.139,5.139,0,0,1-.417.342,7.42,7.42,0,0,1-.845.536c-.28.153-.582.3-.9.44-.161.07-.326.139-.5.2a30.039,30.039,0,0,1-10.4,1.622,29.555,29.555,0,0,1-10.3-1.613q-.255-.1-.494-.206c-.32-.141-.621-.289-.9-.444a7.37,7.37,0,0,1-.844-.542,4.748,4.748,0,0,1-.411-.346,1.356,1.356,0,0,1,0-2.341,9.054,9.054,0,0,1-1.794-1.286,3.748,3.748,0,0,0,0,4.914c.1.119.2.236.3.351s.219.218.338.325a8.363,8.363,0,0,0,1.526,1.073C670.531,114.661,670.688,114.743,670.849,114.823Z" transform="translate(0 -31.62)"/><path class="a" d="M670.849,101.8q.253.126.52.246t.522.222a30.737,30.737,0,0,0,11.063,1.782,31.236,31.236,0,0,0,11.151-1.786q.268-.108.524-.221t.525-.246c.158-.078.313-.158.462-.24a8.495,8.495,0,0,0,1.556-1.076c.12-.106.235-.213.341-.323s.212-.231.308-.349a3.707,3.707,0,0,0,0-4.923,9.116,9.116,0,0,1-1.81,1.284,1.337,1.337,0,0,1,0,2.356,5.041,5.041,0,0,1-.417.342,7.4,7.4,0,0,1-.845.536c-.28.153-.582.3-.9.44q-.241.105-.5.2a30.037,30.037,0,0,1-10.4,1.622,29.553,29.553,0,0,1-10.3-1.613q-.255-.1-.494-.206c-.32-.141-.621-.289-.9-.444a7.385,7.385,0,0,1-.843-.542,4.689,4.689,0,0,1-.412-.346,1.356,1.356,0,0,1,0-2.341,9.063,9.063,0,0,1-1.793-1.287,3.748,3.748,0,0,0,0,4.915c.1.119.2.236.3.351s.219.218.338.325a8.339,8.339,0,0,0,1.526,1.072C670.531,101.635,670.688,101.717,670.849,101.8Z" transform="translate(0 -24.859)"/><path class="a" d="M670.849,88.77q.252.126.52.246c.17.076.343.15.521.222a30.743,30.743,0,0,0,11.064,1.781,31.225,31.225,0,0,0,11.151-1.786c.179-.072.354-.145.524-.221s.355-.161.525-.245.312-.157.46-.239a8.5,8.5,0,0,0,1.558-1.077c.12-.106.235-.213.341-.323s.212-.231.308-.349a3.707,3.707,0,0,0,0-4.924,9.218,9.218,0,0,1-1.81,1.284,1.337,1.337,0,0,1,0,2.357,5.142,5.142,0,0,1-.417.341,7.43,7.43,0,0,1-.847.537c-.279.153-.581.3-.9.439q-.241.105-.5.2a30.043,30.043,0,0,1-10.4,1.621,29.544,29.544,0,0,1-10.3-1.613q-.255-.1-.494-.206c-.319-.141-.62-.288-.9-.443a7.415,7.415,0,0,1-.845-.543,4.748,4.748,0,0,1-.411-.347A1.353,1.353,0,0,1,670,83.154a9.114,9.114,0,0,1-1.791-1.289,3.747,3.747,0,0,0,.006,4.909c.1.118.2.236.3.351s.219.218.338.325a8.385,8.385,0,0,0,1.527,1.074C670.532,88.608,670.688,88.69,670.849,88.77Z" transform="translate(0 -18.098)"/><path class="a" d="M697.929,62.271c.442-.166.816-.331,1.138-.49l-.248-.1a31.955,31.955,0,0,0-10.856-1.672,31.531,31.531,0,0,0-11.019,1.763,11.594,11.594,0,0,0,1.131.5,19.309,19.309,0,0,0,2.763.8,34.911,34.911,0,0,1,7.125-.687,35.42,35.42,0,0,1,7.162.687A19.9,19.9,0,0,0,697.929,62.271Z" transform="translate(-5.009 -6.761)"/><path class="a" d="M671.365,75.985q.256.114.524.221a31.443,31.443,0,0,0,11.065,1.782,31.955,31.955,0,0,0,10.856-1.672l.3-.115c.18-.072.354-.145.524-.22s.355-.162.525-.245a9.189,9.189,0,0,0,2.021-1.313q.18-.159.34-.323t.31-.347a3.734,3.734,0,0,0,0-4.933,9.222,9.222,0,0,1-1.818,1.29,1.33,1.33,0,0,1,0,2.353,4.841,4.841,0,0,1-.415.343,8.815,8.815,0,0,1-1.746.977q-.235.1-.495.2l-.17.066a30.177,30.177,0,0,1-10.228,1.557A29.621,29.621,0,0,1,672.8,74.053l-.149-.06q-.258-.1-.5-.207a8.809,8.809,0,0,1-1.733-.987,4.9,4.9,0,0,1-.412-.348A1.339,1.339,0,0,1,670,70.126a9.119,9.119,0,0,1-1.809-1.3,3.808,3.808,0,0,0,0,4.928q.144.178.306.349t.337.325a9.019,9.019,0,0,0,2,1.313Q671.1,75.866,671.365,75.985Z" transform="translate(-0.001 -11.332)"/><path class="a" d="M671.367,58.388q.278.123.569.239a31.531,31.531,0,0,0,11.019,1.763,31.955,31.955,0,0,0,10.856-1.672l.248-.1q.3-.118.576-.24t.523-.244a9.208,9.208,0,0,0,2.024-1.316q.178-.158.337-.321t.309-.346a3.827,3.827,0,0,0,.931-2.467c0-2.07-1.71-3.809-4.947-5.03a31.955,31.955,0,0,0-10.856-1.672c-7.542,0-15.66,2.1-15.66,6.7a3.865,3.865,0,0,0,.9,2.461q.142.177.3.347t.335.325a9.022,9.022,0,0,0,2.015,1.325C671.017,58.229,671.19,58.31,671.367,58.388ZM670.4,55.18a4.759,4.759,0,0,1-.391-.333,1.781,1.781,0,0,1-.671-1.159c0-.718,1.072-1.852,3.467-2.767a29.609,29.609,0,0,1,10.152-1.556,30.177,30.177,0,0,1,10.228,1.557c2.79,1.052,3.535,2.234,3.535,2.766a1.835,1.835,0,0,1-.709,1.177,5.144,5.144,0,0,1-.4.331q-.2.152-.453.309a11.1,11.1,0,0,1-1.974.949c-.345.13-.707.252-1.083.367-.294.089-.6.174-.91.254q-.521.133-1.073.249a35.387,35.387,0,0,1-7.162.687,34.911,34.911,0,0,1-7.125-.687q-.546-.115-1.062-.249c-.308-.08-.61-.164-.9-.254-.37-.114-.726-.236-1.065-.366a10.727,10.727,0,0,1-1.952-.959C670.686,55.39,670.532,55.285,670.4,55.18Z" transform="translate(-0.001)"/></g></svg>