<svg xmlns="http://www.w3.org/2000/svg" xmlns:xlink="http://www.w3.org/1999/xlink" width="72" height="50" viewBox="0 0 72 50"><defs><style>.a,.c{fill:#1a1818;}.b{clip-path:url(#a);}.c{stroke:#fff;stroke-width:0.3px;}</style><clipPath id="a"><rect class="a" width="72" height="50" transform="translate(859 2311)"/></clipPath></defs><g class="b" transform="translate(-859 -2311)"><g transform="translate(1218.321 2182.546)"><path class="c" d="M-336.284,298.083a1.146,1.146,0,0,0-.335-.808l-7.367-7.367a1.141,1.141,0,0,0-1.245-.248,1.141,1.141,0,0,0-.705,1.056v2.845h-8.242a1.143,1.143,0,0,0-1.144,1.143,1.143,1.143,0,0,0,1.144,1.143h9.384a1.137,1.137,0,0,0,.808-.335,1.138,1.138,0,0,0,.334-.808v-1.23l4.608,4.608-4.608,4.609v-1.23a1.136,1.136,0,0,0-.334-.808,1.133,1.133,0,0,0-.808-.335h-9.384a1.143,1.143,0,0,0-1.144,1.143,1.143,1.143,0,0,0,1.144,1.143h8.241v2.845a1.141,1.141,0,0,0,.705,1.056,1.145,1.145,0,0,0,1.245-.248l7.367-7.367A1.148,1.148,0,0,0-336.284,298.083Z" transform="translate(0 -144.206)"/><path class="c" d="M97.855,295.513a1.132,1.132,0,0,0,.808.335h9.386a1.143,1.143,0,0,0,0-2.285H99.806v-2.845a1.142,1.142,0,0,0-1.95-.808l-7.367,7.367a1.142,1.142,0,0,0,0,1.616l7.367,7.367a1.143,1.143,0,0,0,1.95-.808v-2.845h8.244a1.143,1.143,0,0,0,0-2.285H98.663a1.143,1.143,0,0,0-1.143,1.143v1.23l-4.608-4.609,4.608-4.608v1.23A1.142,1.142,0,0,0,97.855,295.513Z" transform="translate(-401.2 -144.206)"/><path class="c" d="M-47.15,131.094a1.142,1.142,0,0,0-1.143,1.143v46.236a1.142,1.142,0,0,0,1.143,1.143,1.142,1.142,0,0,0,1.142-1.143V132.237A1.142,1.142,0,0,0-47.15,131.094Z" transform="translate(-276.513 -1.477)"/><path class="c" d="M-231.544,129.8a1.142,1.142,0,0,0,.013,1.616,30.942,30.942,0,0,1,9.536,22.14,31.05,31.05,0,0,1-10.19,22.77,1.143,1.143,0,0,0-.058,1.616,1.143,1.143,0,0,0,1.616.056,33.338,33.338,0,0,0,10.917-24.442,33.23,33.23,0,0,0-10.219-23.77A1.142,1.142,0,0,0-231.544,129.8Z" transform="translate(-110.57)"/><path class="c" d="M42.29,176.322a30.511,30.511,0,0,1-.652-44.911,1.142,1.142,0,1,0-1.6-1.629,32.792,32.792,0,0,0,.694,48.211,1.143,1.143,0,1,0,1.56-1.672Z" transform="translate(-346.862)"/></g></g></svg>