<svg xmlns="http://www.w3.org/2000/svg" width="26.994" height="18.756" viewBox="0 0 26.994 18.756"><defs><style>.a{fill:#112769;}</style></defs><g transform="translate(-1260.693 -90.572)"><path class="a" d="M1456.839,100.907a.631.631,0,0,0,.893,0l4.071-4.071a.631.631,0,0,0-.446-1.078h-1.572V91.2a.631.631,0,0,0-1.263,0V96.39a.631.631,0,0,0,.631.631h.678l-2.546,2.546-2.547-2.546h.68a.632.632,0,0,0,.631-.631V91.2a.631.631,0,0,0-1.263,0v4.556h-1.572a.631.631,0,0,0-.447,1.078Z" transform="translate(-183.095 0)"/><path class="a" d="M1288.847,472.262H1263.3a.631.631,0,0,0,0,1.263h25.551a.631.631,0,1,0,0-1.263Z" transform="translate(-1.881 -364.197)"/><path class="a" d="M1286.863,391.025a42.447,42.447,0,0,1-12.847,1.771,43.15,43.15,0,0,1-12.5-1.658.631.631,0,0,0-.379,1.2,44.375,44.375,0,0,0,12.875,1.716,43.672,43.672,0,0,0,13.244-1.835.631.631,0,1,0-.4-1.2Z" transform="translate(-0.006 -286.652)"/><path class="a" d="M1286.718,311.673h0a24.056,24.056,0,0,1-12.708,3.214,24.305,24.305,0,0,1-12.361-3,.631.631,0,1,0-.649,1.083,28.083,28.083,0,0,0,26.392-.229.631.631,0,0,0-.675-1.067Z" transform="translate(0 -210.874)"/><path class="a" d="M1274.013,230.357c5.21,0,10.011-1.647,13.507-5.4a.631.631,0,1,0-.922-.861h0c-3.224,3.454-7.628,4.993-12.583,5-4.784,0-9.048-1.394-12.235-4.637a.631.631,0,1,0-.9.885C1264.341,228.873,1268.992,230.36,1274.013,230.357Z" transform="translate(-0.002 -127.214)"/></g></svg>