<svg xmlns="http://www.w3.org/2000/svg" xmlns:xlink="http://www.w3.org/1999/xlink" width="29" height="29" viewBox="0 0 29 29"><defs><style>.a{fill:red;}.b{clip-path:url(#a);}.c{fill:#112769;stroke:#112769;stroke-width:0.8px;}</style><clipPath id="a"><rect class="a" width="29" height="29" transform="translate(891.519 2310.519)"/></clipPath></defs><g class="b" transform="translate(-891.519 -2310.519)"><g transform="translate(893.673 2311.488)"><path class="c" d="M211.276,113.195a1.653,1.653,0,0,0,1.642,2.849,12.278,12.278,0,0,0,8.046,4.657,1.654,1.654,0,0,0,3.288,0,12.288,12.288,0,0,0,8.005-4.6,1.635,1.635,0,0,0,.672.147,1.665,1.665,0,0,0,.431-.057,1.653,1.653,0,0,0,.552-2.927,12.223,12.223,0,0,0,.028-9.3,1.653,1.653,0,0,0-1.641-2.848,12.277,12.277,0,0,0-8.046-4.657,1.654,1.654,0,0,0-3.288,0,12.293,12.293,0,0,0-8.045,4.654,1.655,1.655,0,0,0-1.642,2.851,12.227,12.227,0,0,0,0,9.235Zm.969-8.92a1.656,1.656,0,0,0,1.319-.654l5.356,3.07a4.109,4.109,0,0,0,0,3.773l-5.353,3.067a1.66,1.66,0,0,0-1.921-.537,11.806,11.806,0,0,1,0-8.833A1.646,1.646,0,0,0,212.245,104.274Zm10.363.575a3.727,3.727,0,1,1-3.727,3.727A3.732,3.732,0,0,1,222.608,104.85Zm-10.675,10.876a1.236,1.236,0,1,1,1.388-1.815v0l0,0a1.236,1.236,0,0,1-1.391,1.81Zm1.346.1a1.657,1.657,0,0,0,.5-1.932l5.353-3.067a4.142,4.142,0,0,0,3.269,1.886v6.166a1.656,1.656,0,0,0-1.426,1.4A11.858,11.858,0,0,1,213.279,115.825Zm9.329,5.929a1.236,1.236,0,0,1,0-2.472h.006a1.236,1.236,0,0,1,0,2.472Zm1.635-1.475a1.656,1.656,0,0,0-1.426-1.4v-6.166a4.142,4.142,0,0,0,3.268-1.885l5.322,3.123a1.644,1.644,0,0,0,.49,1.928A11.869,11.869,0,0,1,224.243,120.279Zm9.756-5.07h0a1.235,1.235,0,1,1-1.388-1.813A1.236,1.236,0,0,1,234,115.209Zm-.456-2.153a1.644,1.644,0,0,0-1.927.532l-5.322-3.123a4.109,4.109,0,0,0,0-3.775l5.351-3.065a1.649,1.649,0,0,0,1.924.536,11.8,11.8,0,0,1-.027,8.895Zm-.261-11.626a1.236,1.236,0,1,1-1.389,1.815v0l0,0a1.237,1.237,0,0,1,1.392-1.81Zm-1.345-.1a1.657,1.657,0,0,0-.5,1.934l-5.351,3.065a4.142,4.142,0,0,0-3.269-1.886V98.276a1.656,1.656,0,0,0,1.426-1.4A11.857,11.857,0,0,1,231.937,101.329ZM222.608,95.4a1.236,1.236,0,0,1,0,2.472h0a1.236,1.236,0,0,1,0-2.472Zm-1.635,1.475a1.656,1.656,0,0,0,1.426,1.4v6.166a4.142,4.142,0,0,0-3.269,1.886l-5.357-3.07a1.645,1.645,0,0,0-.495-1.931A11.874,11.874,0,0,1,220.973,96.875ZM211.18,102a1.235,1.235,0,1,1,2.139,1.234h0A1.235,1.235,0,1,1,211.18,102Z" transform="translate(-210.371 -94.982)"/><path class="c" d="M1069.338,1072.1a.209.209,0,0,0,.2.054l1.935-.518a.208.208,0,0,0,.148-.148l.518-1.935a.209.209,0,0,0-.054-.2l-1.416-1.416a.21.21,0,0,0-.2-.054l-1.935.518a.209.209,0,0,0-.148.148l-.518,1.935a.209.209,0,0,0,.054.2Zm1.912-.837-1.7.456-.475-.475,2.157-2.157.475.475Zm-2.491-2.491,1.7-.456.475.475-2.157,2.157-.475-.475Z" transform="translate(-1057.768 -1056.422)"/></g></g></svg>