<svg xmlns="http://www.w3.org/2000/svg" xmlns:xlink="http://www.w3.org/1999/xlink" width="51" height="51" viewBox="0 0 51 51"><defs><style>.a{fill:red;}.b{clip-path:url(#a);}.c{fill:#112769;stroke:#1a1818;stroke-width:0.8px;}</style><clipPath id="a"><rect class="a" width="51" height="51" transform="translate(892 2311)"/></clipPath></defs><g class="b" transform="translate(-892 -2311)"><g transform="translate(895.043 2311.888)"><path class="c" d="M212.018,128.11A3.006,3.006,0,0,0,215,133.291a22.332,22.332,0,0,0,14.635,8.472,3.008,3.008,0,0,0,5.98,0,22.352,22.352,0,0,0,14.561-8.372,2.974,2.974,0,0,0,1.222.268,3.029,3.029,0,0,0,.784-.1,3.006,3.006,0,0,0,1-5.324,22.233,22.233,0,0,0,.05-16.921,3.007,3.007,0,0,0-2.985-5.18,22.332,22.332,0,0,0-14.635-8.471,3.008,3.008,0,0,0-5.98,0,22.359,22.359,0,0,0-14.634,8.465,3.01,3.01,0,0,0-2.987,5.187,22.239,22.239,0,0,0,0,16.8Zm1.762-16.226a3.013,3.013,0,0,0,2.4-1.189l9.743,5.584a7.474,7.474,0,0,0,0,6.863l-9.737,5.579a3.02,3.02,0,0,0-3.495-.977,21.474,21.474,0,0,1,0-16.067A2.994,2.994,0,0,0,213.78,111.884Zm18.849,1.047a6.78,6.78,0,1,1-6.78,6.78A6.788,6.788,0,0,1,232.629,112.931Zm-19.418,19.782a2.248,2.248,0,1,1,2.525-3.3s0,0,0,0l0,.005a2.249,2.249,0,0,1-2.531,3.292Zm2.449.181a3.015,3.015,0,0,0,.906-3.514L226.3,123.8a7.534,7.534,0,0,0,5.946,3.431v11.215A3.012,3.012,0,0,0,229.655,141,21.568,21.568,0,0,1,215.66,132.895Zm16.969,10.784a2.248,2.248,0,0,1-.005-4.5h.01a2.248,2.248,0,0,1-.005,4.5ZM235.6,141a3.012,3.012,0,0,0-2.594-2.549V127.232a7.534,7.534,0,0,0,5.944-3.428l9.68,5.681a2.99,2.99,0,0,0,.891,3.508A21.589,21.589,0,0,1,235.6,141Zm17.746-9.222h0a2.247,2.247,0,1,1-2.525-3.3,2.248,2.248,0,0,1,2.525,3.3Zm-.83-3.916a2.99,2.99,0,0,0-3.5.968l-9.68-5.681a7.475,7.475,0,0,0,0-6.866l9.733-5.575a3,3,0,0,0,3.5.975,21.465,21.465,0,0,1-.049,16.18Zm-.474-21.146a2.248,2.248,0,1,1-2.527,3.3s0,0,0-.006l0,0a2.249,2.249,0,0,1,2.533-3.292Zm-2.447-.185a3.015,3.015,0,0,0-.91,3.518l-9.734,5.576a7.534,7.534,0,0,0-5.946-3.431V100.974a3.011,3.011,0,0,0,2.594-2.548A21.568,21.568,0,0,1,249.6,106.527Zm-16.97-10.784a2.248,2.248,0,0,1,0,4.5h-.009a2.248,2.248,0,0,1,0-4.5Zm-2.974,2.682a3.011,3.011,0,0,0,2.594,2.548v11.215a7.534,7.534,0,0,0-5.946,3.431l-9.744-5.585a2.992,2.992,0,0,0-.9-3.512A21.6,21.6,0,0,1,229.655,98.425Zm-17.813,9.328A2.246,2.246,0,1,1,215.733,110h0a2.246,2.246,0,1,1-3.891-2.246Z" transform="translate(-210.371 -94.982)"/><path class="c" d="M1070.548,1075.56a.379.379,0,0,0,.367.1l3.519-.943a.379.379,0,0,0,.269-.269l.943-3.519a.38.38,0,0,0-.1-.367l-2.576-2.576a.382.382,0,0,0-.367-.1l-3.519.943a.379.379,0,0,0-.269.269l-.943,3.519a.38.38,0,0,0,.1.367Zm3.477-1.523-3.095.829-.864-.864,3.924-3.924.864.864Zm-4.531-4.531,3.095-.829.864.864-3.924,3.924-.864-.864Z" transform="translate(-1049.502 -1047.044)"/></g></g></svg>