<svg xmlns="http://www.w3.org/2000/svg" width="27.139" height="27.136" viewBox="0 0 27.139 27.136"><defs><style>.a{fill:#112769;}</style></defs><g transform="translate(-287.2 -58.191)"><path class="a" d="M312.587,59.937a5.993,5.993,0,0,0-8.458,0L288.946,75.12a5.98,5.98,0,0,0,8.451,8.464c.013-.012.025-.025.036-.038l15.117-15.118.036-.034a5.981,5.981,0,0,0,0-8.458ZM296.743,82.855l-.016.016-.017.018a4.988,4.988,0,0,1-3.529,1.46h-.006c-.069,0-.137,0-.206,0h-.035c-.057,0-.115-.008-.172-.012l-.069-.005c-.045,0-.09-.011-.135-.016l-.105-.013-.093-.016c-.048-.008-.1-.015-.145-.025l-.045-.01a5,5,0,1,1,4.574-1.392Zm15.175-15.173-12.892,12.89a5.973,5.973,0,0,0-7.077-7.074L304.82,60.628a5,5,0,0,1,7.1,7.055Z" transform="translate(0 0)"/><path class="a" d="M365.6,80.913l-2.6,2.6.691.691,2.293-2.293a17,17,0,0,1,6.291,1.613l.418-.883a17.977,17.977,0,0,0-6.877-1.718Z" transform="translate(-60.996 -18.284)"/><rect class="a" width="0.999" height="0.977" transform="translate(306.196 61.038) rotate(-45)"/><path class="a" d="M336.863,123.066a17.832,17.832,0,0,0-7.139-1.846l-.216-.01-.939.945.693.688.632-.636a16.854,16.854,0,0,1,6.838,1.888l.318.166,2.993-2.994-.691-.691Z" transform="translate(-33.288 -50.2)"/><path class="a" d="M351.5,101.87a18.145,18.145,0,0,0-7.133-1.846l-.216-.01-2.6,2.6.691.691,2.293-2.293a17.148,17.148,0,0,1,6.834,1.888l.318.165,2.931-2.931-.691-.691Z" transform="translate(-43.732 -33.194)"/><rect class="a" width="2.813" height="0.977" transform="translate(299.885 76.557) rotate(-45)"/></g></svg>