<svg xmlns="http://www.w3.org/2000/svg" xmlns:xlink="http://www.w3.org/1999/xlink" width="50" height="50" viewBox="0 0 50 50"><defs><style>.a{fill:#1a1818;}.b{clip-path:url(#a);}</style><clipPath id="a"><rect class="a" width="50" height="50" transform="translate(998 2190)"/></clipPath></defs><g class="b" transform="translate(-998 -2190)"><g transform="translate(792.437 2155)"><g transform="translate(210.563 35)"><path class="a" d="M249.616,46.682a11.682,11.682,0,0,0-19.942-8.26l-9.821,9.822A11.684,11.684,0,0,0,217.4,61.153l-3.418,3.418A11.682,11.682,0,0,0,230.5,81.091l9.822-9.822a11.691,11.691,0,0,0,2.458-12.911l3.415-3.415A11.606,11.606,0,0,0,249.616,46.682Zm-7.753,16.327a9.738,9.738,0,0,1-2.871,6.932l-9.821,9.822A9.8,9.8,0,0,1,215.308,65.9l9.3-9.3a.911.911,0,0,0,.1-.1l.417-.417a9.831,9.831,0,0,1,10.262-2.293l-4.2,4.2a5.061,5.061,0,0,0-2.744,1.42l-9.822,9.822a5.1,5.1,0,1,0,7.218,7.218l9.822-9.822a5.076,5.076,0,0,0,1.38-2.532l4.281-4.281A9.767,9.767,0,0,1,241.863,63.009Zm-5.03-10.665a11.566,11.566,0,0,0-4.772-1.016,11.686,11.686,0,0,0-4.055.722l7.647-7.647a3.224,3.224,0,1,1,4.56,4.56ZM223.342,67.168a11.719,11.719,0,0,0,8.825.3l-7.647,7.647a3.224,3.224,0,1,1-4.56-4.56Zm11.7-3.733a9.827,9.827,0,0,1-10.261,2.293l4.2-4.2a5.051,5.051,0,0,0,2.742-1.418l9.821-9.822a5.1,5.1,0,1,0-7.218-7.217L224.5,52.894a5.052,5.052,0,0,0-1.375,2.527l-4.28,4.28a9.8,9.8,0,0,1,2.334-10.13L231,39.75a9.8,9.8,0,0,1,13.862,13.863Z" transform="translate(-210.563 -35)"/></g></g></g></svg>